G04 #@! TF.GenerationSoftware,KiCad,Pcbnew,5.1.6+dfsg1-1*
G04 #@! TF.CreationDate,2021-03-31T14:53:12+02:00*
G04 #@! TF.ProjectId,pdu-board,7064752d-626f-4617-9264-2e6b69636164,rev?*
G04 #@! TF.SameCoordinates,Original*
G04 #@! TF.FileFunction,Copper,L1,Top*
G04 #@! TF.FilePolarity,Positive*
%FSLAX46Y46*%
G04 Gerber Fmt 4.6, Leading zero omitted, Abs format (unit mm)*
G04 Created by KiCad (PCBNEW 5.1.6+dfsg1-1) date 2021-03-31 14:53:12*
%MOMM*%
%LPD*%
G01*
G04 APERTURE LIST*
G04 #@! TA.AperFunction,ComponentPad*
%ADD10C,6.400000*%
G04 #@! TD*
G04 #@! TA.AperFunction,ComponentPad*
%ADD11C,2.600000*%
G04 #@! TD*
G04 #@! TA.AperFunction,ComponentPad*
%ADD12R,2.600000X2.600000*%
G04 #@! TD*
G04 #@! TA.AperFunction,ComponentPad*
%ADD13R,1.700000X1.700000*%
G04 #@! TD*
G04 #@! TA.AperFunction,ComponentPad*
%ADD14O,1.600000X1.600000*%
G04 #@! TD*
G04 #@! TA.AperFunction,ComponentPad*
%ADD15C,1.600000*%
G04 #@! TD*
G04 #@! TA.AperFunction,ComponentPad*
%ADD16O,1.200000X1.200000*%
G04 #@! TD*
G04 #@! TA.AperFunction,ComponentPad*
%ADD17O,1.200000X1.600000*%
G04 #@! TD*
G04 #@! TA.AperFunction,ComponentPad*
%ADD18O,2.200000X2.200000*%
G04 #@! TD*
G04 #@! TA.AperFunction,ComponentPad*
%ADD19R,2.200000X2.200000*%
G04 #@! TD*
G04 #@! TA.AperFunction,ComponentPad*
%ADD20R,1.600000X1.600000*%
G04 #@! TD*
G04 APERTURE END LIST*
D10*
X373500000Y-155000000D03*
X495000000Y-175000000D03*
X365000000Y-175000000D03*
X235000000Y-175000000D03*
X495000000Y-155000000D03*
X247500000Y-155000000D03*
X105000000Y-175000000D03*
X105000000Y-155000000D03*
D11*
X342080000Y-172000000D03*
D12*
X337000000Y-172000000D03*
D11*
X330580000Y-172000000D03*
D12*
X325500000Y-172000000D03*
D13*
X280500000Y-176000000D03*
D11*
X272580000Y-172000000D03*
D12*
X267500000Y-172000000D03*
D11*
X385080000Y-171000000D03*
D12*
X380000000Y-171000000D03*
D11*
X308920000Y-157000000D03*
D12*
X314000000Y-157000000D03*
D11*
X125080000Y-171000000D03*
D12*
X120000000Y-171000000D03*
D11*
X142920000Y-157000000D03*
D12*
X148000000Y-157000000D03*
D11*
X232920000Y-157000000D03*
D12*
X238000000Y-157000000D03*
D11*
X322920000Y-157000000D03*
D12*
X328000000Y-157000000D03*
D11*
X412920000Y-157000000D03*
D12*
X418000000Y-157000000D03*
D11*
X177420000Y-157000000D03*
D12*
X182500000Y-157000000D03*
D11*
X267420000Y-157000000D03*
D12*
X272500000Y-157000000D03*
D11*
X357420000Y-157000000D03*
D12*
X362500000Y-157000000D03*
D11*
X447420000Y-157000000D03*
D12*
X452500000Y-157000000D03*
D14*
X279760000Y-170500000D03*
D15*
X295000000Y-170500000D03*
D16*
X355000000Y-170460000D03*
X356270000Y-171730000D03*
D17*
X355000000Y-173000000D03*
D16*
X312500000Y-170540000D03*
X311230000Y-169270000D03*
D17*
X312500000Y-168000000D03*
D18*
X348500000Y-167000000D03*
D19*
X348500000Y-177160000D03*
D18*
X319500000Y-167000000D03*
D19*
X319500000Y-177160000D03*
D18*
X126840000Y-153000000D03*
D19*
X137000000Y-153000000D03*
D18*
X216340000Y-153000000D03*
D19*
X226500000Y-153000000D03*
D18*
X345160000Y-153000000D03*
D19*
X335000000Y-153000000D03*
D18*
X397340000Y-153000000D03*
D19*
X407500000Y-153000000D03*
D15*
X132000000Y-161000000D03*
D20*
X132000000Y-158500000D03*
D15*
X221500000Y-161000000D03*
D20*
X221500000Y-158500000D03*
D15*
X336500000Y-161000000D03*
D20*
X336500000Y-158500000D03*
D15*
X402500000Y-161000000D03*
D20*
X402500000Y-158500000D03*
M02*
