M48
INCH,TZ
T1C0.0276
T2C0.0315
T3C0.0394
T4C0.0433
T5C0.0512
T6C0.1260
%
G90
G05
T1
X139764Y-67110
X139764Y-68110
X140264Y-67610
X122531Y-66642
X123031Y-66142
X123031Y-67142
T2
X110142Y-67126
X116142Y-67126
T3
X110433Y-69291
T4
X125787Y-65748
X125787Y-69748
X137205Y-65748
X137205Y-69748
T5
X105315Y-67717
X107315Y-67717
X105283Y-61811
X107283Y-61811
X140717Y-61811
X142717Y-61811
X149606Y-67323
X151606Y-67323
X69850Y-61811
X71850Y-61811
X121622Y-61811
X123622Y-61811
X47244Y-67323
X49244Y-67323
X132677Y-67717
X134677Y-67717
X176150Y-61811
X178150Y-61811
X128150Y-67717
X130150Y-67717
T6
X97441Y-61024
X143701Y-68898
X147047Y-61024
X194882Y-68898
X194882Y-61024
X41339Y-68898
X41339Y-61024
X92520Y-68898
T0
M30
