G04 #@! TF.GenerationSoftware,KiCad,Pcbnew,5.1.6+dfsg1-1*
G04 #@! TF.CreationDate,2021-04-07T18:08:27+02:00*
G04 #@! TF.ProjectId,pdu-board,7064752d-626f-4617-9264-2e6b69636164,rev?*
G04 #@! TF.SameCoordinates,Original*
G04 #@! TF.FileFunction,Copper,L2,Bot*
G04 #@! TF.FilePolarity,Positive*
%FSLAX46Y46*%
G04 Gerber Fmt 4.6, Leading zero omitted, Abs format (unit mm)*
G04 Created by KiCad (PCBNEW 5.1.6+dfsg1-1) date 2021-04-07 18:08:27*
%MOMM*%
%LPD*%
G01*
G04 APERTURE LIST*
G04 #@! TA.AperFunction,ComponentPad*
%ADD10C,6.400000*%
G04 #@! TD*
G04 #@! TA.AperFunction,ComponentPad*
%ADD11C,2.600000*%
G04 #@! TD*
G04 #@! TA.AperFunction,ComponentPad*
%ADD12R,2.600000X2.600000*%
G04 #@! TD*
G04 #@! TA.AperFunction,ComponentPad*
%ADD13R,1.700000X1.700000*%
G04 #@! TD*
G04 #@! TA.AperFunction,ComponentPad*
%ADD14O,1.600000X1.600000*%
G04 #@! TD*
G04 #@! TA.AperFunction,ComponentPad*
%ADD15C,1.600000*%
G04 #@! TD*
G04 #@! TA.AperFunction,ComponentPad*
%ADD16O,1.200000X1.200000*%
G04 #@! TD*
G04 #@! TA.AperFunction,ComponentPad*
%ADD17O,1.200000X1.600000*%
G04 #@! TD*
G04 #@! TA.AperFunction,ComponentPad*
%ADD18O,2.200000X2.200000*%
G04 #@! TD*
G04 #@! TA.AperFunction,ComponentPad*
%ADD19R,2.200000X2.200000*%
G04 #@! TD*
G04 #@! TA.AperFunction,Conductor*
%ADD20C,1.000000*%
G04 #@! TD*
G04 #@! TA.AperFunction,Conductor*
%ADD21C,0.250000*%
G04 #@! TD*
G04 #@! TA.AperFunction,Conductor*
%ADD22C,0.254000*%
G04 #@! TD*
G04 APERTURE END LIST*
D10*
X247500000Y-155000000D03*
X235000000Y-175000000D03*
X105000000Y-175000000D03*
X105000000Y-155000000D03*
X495000000Y-175000000D03*
X495000000Y-155000000D03*
X373500000Y-155000000D03*
X365000000Y-175000000D03*
D11*
X342080000Y-172000000D03*
D12*
X337000000Y-172000000D03*
D11*
X330580000Y-172000000D03*
D12*
X325500000Y-172000000D03*
D13*
X280500000Y-176000000D03*
D11*
X272580000Y-172000000D03*
D12*
X267500000Y-172000000D03*
D11*
X385080000Y-171000000D03*
D12*
X380000000Y-171000000D03*
D11*
X308920000Y-157000000D03*
D12*
X314000000Y-157000000D03*
D11*
X125080000Y-171000000D03*
D12*
X120000000Y-171000000D03*
D11*
X177420000Y-157000000D03*
D12*
X182500000Y-157000000D03*
D11*
X267420000Y-157000000D03*
D12*
X272500000Y-157000000D03*
D11*
X357420000Y-157000000D03*
D12*
X362500000Y-157000000D03*
D11*
X447420000Y-157000000D03*
D12*
X452500000Y-157000000D03*
D14*
X279760000Y-170500000D03*
D15*
X295000000Y-170500000D03*
D16*
X355000000Y-170460000D03*
X356270000Y-171730000D03*
D17*
X355000000Y-173000000D03*
D16*
X312500000Y-170540000D03*
X311230000Y-169270000D03*
D17*
X312500000Y-168000000D03*
D18*
X348500000Y-167000000D03*
D19*
X348500000Y-177160000D03*
D18*
X319500000Y-167000000D03*
D19*
X319500000Y-177160000D03*
D20*
X120000000Y-171000000D02*
X120000000Y-167000000D01*
X120000000Y-167000000D02*
X123000000Y-164000000D01*
X175500000Y-164000000D02*
X182500000Y-157000000D01*
X123000000Y-164000000D02*
X175500000Y-164000000D01*
X265500000Y-164000000D02*
X272500000Y-157000000D01*
X267500000Y-166000000D02*
X265500000Y-164000000D01*
X267500000Y-172000000D02*
X267500000Y-166000000D01*
X307000000Y-164000000D02*
X314000000Y-157000000D01*
X265500000Y-164000000D02*
X307000000Y-164000000D01*
X205340000Y-164000000D02*
X205000000Y-164000000D01*
X205000000Y-164000000D02*
X265500000Y-164000000D01*
X175500000Y-164000000D02*
X205000000Y-164000000D01*
X337000000Y-170000000D02*
X331000000Y-164000000D01*
X337000000Y-172000000D02*
X337000000Y-170000000D01*
X325500000Y-166500000D02*
X323000000Y-164000000D01*
X325500000Y-172000000D02*
X325500000Y-166500000D01*
X323000000Y-164000000D02*
X331000000Y-164000000D01*
X307000000Y-164000000D02*
X323000000Y-164000000D01*
X355500000Y-164000000D02*
X362500000Y-157000000D01*
X373000000Y-164000000D02*
X380000000Y-171000000D01*
X355500000Y-164000000D02*
X373000000Y-164000000D01*
X373000000Y-164000000D02*
X445500000Y-164000000D01*
X342160000Y-177160000D02*
X337000000Y-172000000D01*
X348500000Y-177160000D02*
X342160000Y-177160000D01*
X445500000Y-164000000D02*
X452500000Y-157000000D01*
X331000000Y-164000000D02*
X355500000Y-164000000D01*
X320340000Y-177160000D02*
X325500000Y-172000000D01*
X319500000Y-177160000D02*
X320340000Y-177160000D01*
D21*
X315960000Y-170540000D02*
X319500000Y-167000000D01*
X312500000Y-170540000D02*
X315960000Y-170540000D01*
X323694999Y-178885001D02*
X330580000Y-172000000D01*
X317899999Y-178885001D02*
X323694999Y-178885001D01*
X312500000Y-173485002D02*
X317899999Y-178885001D01*
X312500000Y-170540000D02*
X312500000Y-173485002D01*
X347080000Y-167000000D02*
X348500000Y-167000000D01*
X342080000Y-172000000D02*
X347080000Y-167000000D01*
X351540000Y-167000000D02*
X355000000Y-170460000D01*
X348500000Y-167000000D02*
X351540000Y-167000000D01*
X280500000Y-171240000D02*
X279760000Y-170500000D01*
X280500000Y-176000000D02*
X280500000Y-171240000D01*
X296230000Y-169270000D02*
X295000000Y-170500000D01*
X311230000Y-169270000D02*
X296230000Y-169270000D01*
X317713599Y-179335011D02*
X353164989Y-179335011D01*
X311230000Y-172851412D02*
X317713599Y-179335011D01*
X311230000Y-169270000D02*
X311230000Y-172851412D01*
X356270000Y-176230000D02*
X356270000Y-171730000D01*
X353164989Y-179335011D02*
X356270000Y-176230000D01*
D22*
G36*
X499315001Y-179315000D02*
G01*
X354259801Y-179315000D01*
X356781004Y-176793798D01*
X356810001Y-176770001D01*
X356904974Y-176654276D01*
X356975546Y-176522247D01*
X357019003Y-176378986D01*
X357030000Y-176267333D01*
X357030000Y-176267325D01*
X357033676Y-176230000D01*
X357030000Y-176192675D01*
X357030000Y-174622285D01*
X361165000Y-174622285D01*
X361165000Y-175377715D01*
X361312377Y-176118628D01*
X361601467Y-176816554D01*
X362021161Y-177444670D01*
X362555330Y-177978839D01*
X363183446Y-178398533D01*
X363881372Y-178687623D01*
X364622285Y-178835000D01*
X365377715Y-178835000D01*
X366118628Y-178687623D01*
X366816554Y-178398533D01*
X367444670Y-177978839D01*
X367978839Y-177444670D01*
X368398533Y-176816554D01*
X368687623Y-176118628D01*
X368835000Y-175377715D01*
X368835000Y-174622285D01*
X491165000Y-174622285D01*
X491165000Y-175377715D01*
X491312377Y-176118628D01*
X491601467Y-176816554D01*
X492021161Y-177444670D01*
X492555330Y-177978839D01*
X493183446Y-178398533D01*
X493881372Y-178687623D01*
X494622285Y-178835000D01*
X495377715Y-178835000D01*
X496118628Y-178687623D01*
X496816554Y-178398533D01*
X497444670Y-177978839D01*
X497978839Y-177444670D01*
X498398533Y-176816554D01*
X498687623Y-176118628D01*
X498835000Y-175377715D01*
X498835000Y-174622285D01*
X498687623Y-173881372D01*
X498398533Y-173183446D01*
X497978839Y-172555330D01*
X497444670Y-172021161D01*
X496816554Y-171601467D01*
X496118628Y-171312377D01*
X495377715Y-171165000D01*
X494622285Y-171165000D01*
X493881372Y-171312377D01*
X493183446Y-171601467D01*
X492555330Y-172021161D01*
X492021161Y-172555330D01*
X491601467Y-173183446D01*
X491312377Y-173881372D01*
X491165000Y-174622285D01*
X368835000Y-174622285D01*
X368687623Y-173881372D01*
X368398533Y-173183446D01*
X367978839Y-172555330D01*
X367444670Y-172021161D01*
X366816554Y-171601467D01*
X366118628Y-171312377D01*
X365377715Y-171165000D01*
X364622285Y-171165000D01*
X363881372Y-171312377D01*
X363183446Y-171601467D01*
X362555330Y-172021161D01*
X362021161Y-172555330D01*
X361601467Y-173183446D01*
X361312377Y-173881372D01*
X361165000Y-174622285D01*
X357030000Y-174622285D01*
X357030000Y-172707506D01*
X357057267Y-172689287D01*
X357229287Y-172517267D01*
X357364443Y-172314992D01*
X357457540Y-172090236D01*
X357505000Y-171851637D01*
X357505000Y-171608363D01*
X357457540Y-171369764D01*
X357364443Y-171145008D01*
X357229287Y-170942733D01*
X357057267Y-170770713D01*
X356854992Y-170635557D01*
X356630236Y-170542460D01*
X356391637Y-170495000D01*
X356235000Y-170495000D01*
X356235000Y-170338363D01*
X356187540Y-170099764D01*
X356094443Y-169875008D01*
X355959287Y-169672733D01*
X355787267Y-169500713D01*
X355584992Y-169365557D01*
X355360236Y-169272460D01*
X355121637Y-169225000D01*
X354878363Y-169225000D01*
X354846199Y-169231398D01*
X352103804Y-166489003D01*
X352080001Y-166459999D01*
X351964276Y-166365026D01*
X351832247Y-166294454D01*
X351688986Y-166250997D01*
X351577333Y-166240000D01*
X351577322Y-166240000D01*
X351540000Y-166236324D01*
X351502678Y-166240000D01*
X350063148Y-166240000D01*
X350037537Y-166178169D01*
X349847663Y-165894002D01*
X349605998Y-165652337D01*
X349321831Y-165462463D01*
X349006081Y-165331675D01*
X348670883Y-165265000D01*
X348329117Y-165265000D01*
X347993919Y-165331675D01*
X347678169Y-165462463D01*
X347394002Y-165652337D01*
X347152337Y-165894002D01*
X346962463Y-166178169D01*
X346932351Y-166250865D01*
X346931014Y-166250997D01*
X346787753Y-166294454D01*
X346655724Y-166365026D01*
X346539999Y-166459999D01*
X346516201Y-166488997D01*
X342800986Y-170204213D01*
X342644419Y-170139361D01*
X342270581Y-170065000D01*
X341889419Y-170065000D01*
X341515581Y-170139361D01*
X341163434Y-170285225D01*
X340846509Y-170496987D01*
X340576987Y-170766509D01*
X340365225Y-171083434D01*
X340219361Y-171435581D01*
X340145000Y-171809419D01*
X340145000Y-172190581D01*
X340219361Y-172564419D01*
X340365225Y-172916566D01*
X340576987Y-173233491D01*
X340846509Y-173503013D01*
X341163434Y-173714775D01*
X341515581Y-173860639D01*
X341889419Y-173935000D01*
X342270581Y-173935000D01*
X342644419Y-173860639D01*
X342996566Y-173714775D01*
X343313491Y-173503013D01*
X343494823Y-173321681D01*
X353765087Y-173321681D01*
X353812554Y-173560263D01*
X353905654Y-173785000D01*
X354040809Y-173987256D01*
X354212826Y-174159258D01*
X354415093Y-174294396D01*
X354639838Y-174387477D01*
X354682391Y-174393462D01*
X354873000Y-174268731D01*
X354873000Y-173127000D01*
X353920006Y-173127000D01*
X353765087Y-173321681D01*
X343494823Y-173321681D01*
X343583013Y-173233491D01*
X343794775Y-172916566D01*
X343940639Y-172564419D01*
X344015000Y-172190581D01*
X344015000Y-171809419D01*
X343940639Y-171435581D01*
X343875787Y-171279014D01*
X347110867Y-168043934D01*
X347152337Y-168105998D01*
X347394002Y-168347663D01*
X347678169Y-168537537D01*
X347993919Y-168668325D01*
X348329117Y-168735000D01*
X348670883Y-168735000D01*
X349006081Y-168668325D01*
X349321831Y-168537537D01*
X349605998Y-168347663D01*
X349847663Y-168105998D01*
X350037537Y-167821831D01*
X350063148Y-167760000D01*
X351225199Y-167760000D01*
X353771398Y-170306199D01*
X353765000Y-170338363D01*
X353765000Y-170581637D01*
X353812460Y-170820236D01*
X353905557Y-171044992D01*
X354040713Y-171247267D01*
X354212733Y-171419287D01*
X354415008Y-171554443D01*
X354597529Y-171630046D01*
X354415093Y-171705604D01*
X354212826Y-171840742D01*
X354040809Y-172012744D01*
X353905654Y-172215000D01*
X353812554Y-172439737D01*
X353765087Y-172678319D01*
X353920006Y-172873000D01*
X354873000Y-172873000D01*
X354873000Y-172853000D01*
X355127000Y-172853000D01*
X355127000Y-172873000D01*
X355147000Y-172873000D01*
X355147000Y-173127000D01*
X355127000Y-173127000D01*
X355127000Y-174268731D01*
X355317609Y-174393462D01*
X355360162Y-174387477D01*
X355510000Y-174325420D01*
X355510000Y-175915198D01*
X352850188Y-178575011D01*
X350151641Y-178575011D01*
X350189502Y-178504180D01*
X350225812Y-178384482D01*
X350238072Y-178260000D01*
X350238072Y-176060000D01*
X350225812Y-175935518D01*
X350189502Y-175815820D01*
X350130537Y-175705506D01*
X350051185Y-175608815D01*
X349954494Y-175529463D01*
X349844180Y-175470498D01*
X349724482Y-175434188D01*
X349600000Y-175421928D01*
X347400000Y-175421928D01*
X347275518Y-175434188D01*
X347155820Y-175470498D01*
X347045506Y-175529463D01*
X346948815Y-175608815D01*
X346869463Y-175705506D01*
X346810498Y-175815820D01*
X346774188Y-175935518D01*
X346765375Y-176025000D01*
X342630132Y-176025000D01*
X338938072Y-172332941D01*
X338938072Y-170700000D01*
X338925812Y-170575518D01*
X338889502Y-170455820D01*
X338830537Y-170345506D01*
X338751185Y-170248815D01*
X338654494Y-170169463D01*
X338544180Y-170110498D01*
X338424482Y-170074188D01*
X338300000Y-170061928D01*
X338135000Y-170061928D01*
X338135000Y-170055741D01*
X338140490Y-169999999D01*
X338135000Y-169944257D01*
X338135000Y-169944248D01*
X338118577Y-169777501D01*
X338053676Y-169563553D01*
X337948284Y-169366377D01*
X337806449Y-169193551D01*
X337763141Y-169158009D01*
X333740131Y-165135000D01*
X355444249Y-165135000D01*
X355500000Y-165140491D01*
X355555751Y-165135000D01*
X372529869Y-165135000D01*
X378061928Y-170667060D01*
X378061928Y-172300000D01*
X378074188Y-172424482D01*
X378110498Y-172544180D01*
X378169463Y-172654494D01*
X378248815Y-172751185D01*
X378345506Y-172830537D01*
X378455820Y-172889502D01*
X378575518Y-172925812D01*
X378700000Y-172938072D01*
X381300000Y-172938072D01*
X381424482Y-172925812D01*
X381544180Y-172889502D01*
X381654494Y-172830537D01*
X381751185Y-172751185D01*
X381830537Y-172654494D01*
X381889502Y-172544180D01*
X381925812Y-172424482D01*
X381933224Y-172349224D01*
X383910381Y-172349224D01*
X384042317Y-172644312D01*
X384383045Y-172815159D01*
X384750557Y-172916250D01*
X385130729Y-172943701D01*
X385508951Y-172896457D01*
X385870690Y-172776333D01*
X386117683Y-172644312D01*
X386249619Y-172349224D01*
X385080000Y-171179605D01*
X383910381Y-172349224D01*
X381933224Y-172349224D01*
X381938072Y-172300000D01*
X381938072Y-171050729D01*
X383136299Y-171050729D01*
X383183543Y-171428951D01*
X383303667Y-171790690D01*
X383435688Y-172037683D01*
X383730776Y-172169619D01*
X384900395Y-171000000D01*
X385259605Y-171000000D01*
X386429224Y-172169619D01*
X386724312Y-172037683D01*
X386895159Y-171696955D01*
X386996250Y-171329443D01*
X387023701Y-170949271D01*
X386976457Y-170571049D01*
X386856333Y-170209310D01*
X386724312Y-169962317D01*
X386429224Y-169830381D01*
X385259605Y-171000000D01*
X384900395Y-171000000D01*
X383730776Y-169830381D01*
X383435688Y-169962317D01*
X383264841Y-170303045D01*
X383163750Y-170670557D01*
X383136299Y-171050729D01*
X381938072Y-171050729D01*
X381938072Y-169700000D01*
X381933225Y-169650776D01*
X383910381Y-169650776D01*
X385080000Y-170820395D01*
X386249619Y-169650776D01*
X386117683Y-169355688D01*
X385776955Y-169184841D01*
X385409443Y-169083750D01*
X385029271Y-169056299D01*
X384651049Y-169103543D01*
X384289310Y-169223667D01*
X384042317Y-169355688D01*
X383910381Y-169650776D01*
X381933225Y-169650776D01*
X381925812Y-169575518D01*
X381889502Y-169455820D01*
X381830537Y-169345506D01*
X381751185Y-169248815D01*
X381654494Y-169169463D01*
X381544180Y-169110498D01*
X381424482Y-169074188D01*
X381300000Y-169061928D01*
X379667060Y-169061928D01*
X375740131Y-165135000D01*
X445444249Y-165135000D01*
X445500000Y-165140491D01*
X445555751Y-165135000D01*
X445555752Y-165135000D01*
X445722499Y-165118577D01*
X445936447Y-165053676D01*
X446133623Y-164948284D01*
X446306449Y-164806449D01*
X446341996Y-164763135D01*
X452167060Y-158938072D01*
X453800000Y-158938072D01*
X453924482Y-158925812D01*
X454044180Y-158889502D01*
X454154494Y-158830537D01*
X454251185Y-158751185D01*
X454330537Y-158654494D01*
X454389502Y-158544180D01*
X454425812Y-158424482D01*
X454438072Y-158300000D01*
X454438072Y-155700000D01*
X454425812Y-155575518D01*
X454389502Y-155455820D01*
X454330537Y-155345506D01*
X454251185Y-155248815D01*
X454154494Y-155169463D01*
X454044180Y-155110498D01*
X453924482Y-155074188D01*
X453800000Y-155061928D01*
X451200000Y-155061928D01*
X451075518Y-155074188D01*
X450955820Y-155110498D01*
X450845506Y-155169463D01*
X450748815Y-155248815D01*
X450669463Y-155345506D01*
X450610498Y-155455820D01*
X450574188Y-155575518D01*
X450561928Y-155700000D01*
X450561928Y-157332940D01*
X445029869Y-162865000D01*
X373055751Y-162865000D01*
X373000000Y-162859509D01*
X372944249Y-162865000D01*
X358240131Y-162865000D01*
X362167060Y-158938072D01*
X363800000Y-158938072D01*
X363924482Y-158925812D01*
X364044180Y-158889502D01*
X364154494Y-158830537D01*
X364251185Y-158751185D01*
X364330537Y-158654494D01*
X364389502Y-158544180D01*
X364425812Y-158424482D01*
X364438072Y-158300000D01*
X364438072Y-155700000D01*
X364425812Y-155575518D01*
X364389502Y-155455820D01*
X364330537Y-155345506D01*
X364251185Y-155248815D01*
X364154494Y-155169463D01*
X364044180Y-155110498D01*
X363924482Y-155074188D01*
X363800000Y-155061928D01*
X361200000Y-155061928D01*
X361075518Y-155074188D01*
X360955820Y-155110498D01*
X360845506Y-155169463D01*
X360748815Y-155248815D01*
X360669463Y-155345506D01*
X360610498Y-155455820D01*
X360574188Y-155575518D01*
X360561928Y-155700000D01*
X360561928Y-157332940D01*
X355029869Y-162865000D01*
X331055751Y-162865000D01*
X331000000Y-162859509D01*
X330944249Y-162865000D01*
X323055751Y-162865000D01*
X323000000Y-162859509D01*
X322944249Y-162865000D01*
X309740131Y-162865000D01*
X313667060Y-158938072D01*
X315300000Y-158938072D01*
X315424482Y-158925812D01*
X315544180Y-158889502D01*
X315654494Y-158830537D01*
X315751185Y-158751185D01*
X315830537Y-158654494D01*
X315889502Y-158544180D01*
X315925812Y-158424482D01*
X315933224Y-158349224D01*
X356250381Y-158349224D01*
X356382317Y-158644312D01*
X356723045Y-158815159D01*
X357090557Y-158916250D01*
X357470729Y-158943701D01*
X357848951Y-158896457D01*
X358210690Y-158776333D01*
X358457683Y-158644312D01*
X358589619Y-158349224D01*
X357420000Y-157179605D01*
X356250381Y-158349224D01*
X315933224Y-158349224D01*
X315938072Y-158300000D01*
X315938072Y-157050729D01*
X355476299Y-157050729D01*
X355523543Y-157428951D01*
X355643667Y-157790690D01*
X355775688Y-158037683D01*
X356070776Y-158169619D01*
X357240395Y-157000000D01*
X357599605Y-157000000D01*
X358769224Y-158169619D01*
X359064312Y-158037683D01*
X359235159Y-157696955D01*
X359336250Y-157329443D01*
X359363701Y-156949271D01*
X359316457Y-156571049D01*
X359196333Y-156209310D01*
X359064312Y-155962317D01*
X358769224Y-155830381D01*
X357599605Y-157000000D01*
X357240395Y-157000000D01*
X356070776Y-155830381D01*
X355775688Y-155962317D01*
X355604841Y-156303045D01*
X355503750Y-156670557D01*
X355476299Y-157050729D01*
X315938072Y-157050729D01*
X315938072Y-155700000D01*
X315933225Y-155650776D01*
X356250381Y-155650776D01*
X357420000Y-156820395D01*
X358589619Y-155650776D01*
X358457683Y-155355688D01*
X358116955Y-155184841D01*
X357749443Y-155083750D01*
X357369271Y-155056299D01*
X356991049Y-155103543D01*
X356629310Y-155223667D01*
X356382317Y-155355688D01*
X356250381Y-155650776D01*
X315933225Y-155650776D01*
X315925812Y-155575518D01*
X315889502Y-155455820D01*
X315830537Y-155345506D01*
X315751185Y-155248815D01*
X315654494Y-155169463D01*
X315544180Y-155110498D01*
X315424482Y-155074188D01*
X315300000Y-155061928D01*
X312700000Y-155061928D01*
X312575518Y-155074188D01*
X312455820Y-155110498D01*
X312345506Y-155169463D01*
X312248815Y-155248815D01*
X312169463Y-155345506D01*
X312110498Y-155455820D01*
X312074188Y-155575518D01*
X312061928Y-155700000D01*
X312061928Y-157332940D01*
X306529869Y-162865000D01*
X268240131Y-162865000D01*
X272167060Y-158938072D01*
X273800000Y-158938072D01*
X273924482Y-158925812D01*
X274044180Y-158889502D01*
X274154494Y-158830537D01*
X274251185Y-158751185D01*
X274330537Y-158654494D01*
X274389502Y-158544180D01*
X274425812Y-158424482D01*
X274433224Y-158349224D01*
X307750381Y-158349224D01*
X307882317Y-158644312D01*
X308223045Y-158815159D01*
X308590557Y-158916250D01*
X308970729Y-158943701D01*
X309348951Y-158896457D01*
X309710690Y-158776333D01*
X309957683Y-158644312D01*
X310089619Y-158349224D01*
X308920000Y-157179605D01*
X307750381Y-158349224D01*
X274433224Y-158349224D01*
X274438072Y-158300000D01*
X274438072Y-157050729D01*
X306976299Y-157050729D01*
X307023543Y-157428951D01*
X307143667Y-157790690D01*
X307275688Y-158037683D01*
X307570776Y-158169619D01*
X308740395Y-157000000D01*
X309099605Y-157000000D01*
X310269224Y-158169619D01*
X310564312Y-158037683D01*
X310735159Y-157696955D01*
X310836250Y-157329443D01*
X310863701Y-156949271D01*
X310816457Y-156571049D01*
X310696333Y-156209310D01*
X310564312Y-155962317D01*
X310269224Y-155830381D01*
X309099605Y-157000000D01*
X308740395Y-157000000D01*
X307570776Y-155830381D01*
X307275688Y-155962317D01*
X307104841Y-156303045D01*
X307003750Y-156670557D01*
X306976299Y-157050729D01*
X274438072Y-157050729D01*
X274438072Y-155700000D01*
X274433225Y-155650776D01*
X307750381Y-155650776D01*
X308920000Y-156820395D01*
X310089619Y-155650776D01*
X309957683Y-155355688D01*
X309616955Y-155184841D01*
X309249443Y-155083750D01*
X308869271Y-155056299D01*
X308491049Y-155103543D01*
X308129310Y-155223667D01*
X307882317Y-155355688D01*
X307750381Y-155650776D01*
X274433225Y-155650776D01*
X274425812Y-155575518D01*
X274389502Y-155455820D01*
X274330537Y-155345506D01*
X274251185Y-155248815D01*
X274154494Y-155169463D01*
X274044180Y-155110498D01*
X273924482Y-155074188D01*
X273800000Y-155061928D01*
X271200000Y-155061928D01*
X271075518Y-155074188D01*
X270955820Y-155110498D01*
X270845506Y-155169463D01*
X270748815Y-155248815D01*
X270669463Y-155345506D01*
X270610498Y-155455820D01*
X270574188Y-155575518D01*
X270561928Y-155700000D01*
X270561928Y-157332940D01*
X265029869Y-162865000D01*
X178240131Y-162865000D01*
X182167060Y-158938072D01*
X183800000Y-158938072D01*
X183924482Y-158925812D01*
X184044180Y-158889502D01*
X184154494Y-158830537D01*
X184251185Y-158751185D01*
X184330537Y-158654494D01*
X184389502Y-158544180D01*
X184425812Y-158424482D01*
X184438072Y-158300000D01*
X184438072Y-155700000D01*
X184425812Y-155575518D01*
X184389502Y-155455820D01*
X184330537Y-155345506D01*
X184251185Y-155248815D01*
X184154494Y-155169463D01*
X184044180Y-155110498D01*
X183924482Y-155074188D01*
X183800000Y-155061928D01*
X181200000Y-155061928D01*
X181075518Y-155074188D01*
X180955820Y-155110498D01*
X180845506Y-155169463D01*
X180748815Y-155248815D01*
X180669463Y-155345506D01*
X180610498Y-155455820D01*
X180574188Y-155575518D01*
X180561928Y-155700000D01*
X180561928Y-157332940D01*
X175029869Y-162865000D01*
X123055752Y-162865000D01*
X123000000Y-162859509D01*
X122777501Y-162881423D01*
X122563553Y-162946324D01*
X122366377Y-163051716D01*
X122236856Y-163158011D01*
X122236855Y-163158012D01*
X122193551Y-163193551D01*
X122158013Y-163236854D01*
X119236860Y-166158009D01*
X119193552Y-166193551D01*
X119051717Y-166366377D01*
X119001675Y-166459999D01*
X118946324Y-166563554D01*
X118881423Y-166777502D01*
X118859509Y-167000000D01*
X118865001Y-167055761D01*
X118865000Y-169061928D01*
X118700000Y-169061928D01*
X118575518Y-169074188D01*
X118455820Y-169110498D01*
X118345506Y-169169463D01*
X118248815Y-169248815D01*
X118169463Y-169345506D01*
X118110498Y-169455820D01*
X118074188Y-169575518D01*
X118061928Y-169700000D01*
X118061928Y-172300000D01*
X118074188Y-172424482D01*
X118110498Y-172544180D01*
X118169463Y-172654494D01*
X118248815Y-172751185D01*
X118345506Y-172830537D01*
X118455820Y-172889502D01*
X118575518Y-172925812D01*
X118700000Y-172938072D01*
X121300000Y-172938072D01*
X121424482Y-172925812D01*
X121544180Y-172889502D01*
X121654494Y-172830537D01*
X121751185Y-172751185D01*
X121830537Y-172654494D01*
X121889502Y-172544180D01*
X121925812Y-172424482D01*
X121933224Y-172349224D01*
X123910381Y-172349224D01*
X124042317Y-172644312D01*
X124383045Y-172815159D01*
X124750557Y-172916250D01*
X125130729Y-172943701D01*
X125508951Y-172896457D01*
X125870690Y-172776333D01*
X126117683Y-172644312D01*
X126249619Y-172349224D01*
X125080000Y-171179605D01*
X123910381Y-172349224D01*
X121933224Y-172349224D01*
X121938072Y-172300000D01*
X121938072Y-171050729D01*
X123136299Y-171050729D01*
X123183543Y-171428951D01*
X123303667Y-171790690D01*
X123435688Y-172037683D01*
X123730776Y-172169619D01*
X124900395Y-171000000D01*
X125259605Y-171000000D01*
X126429224Y-172169619D01*
X126724312Y-172037683D01*
X126895159Y-171696955D01*
X126996250Y-171329443D01*
X127023701Y-170949271D01*
X126976457Y-170571049D01*
X126856333Y-170209310D01*
X126724312Y-169962317D01*
X126429224Y-169830381D01*
X125259605Y-171000000D01*
X124900395Y-171000000D01*
X123730776Y-169830381D01*
X123435688Y-169962317D01*
X123264841Y-170303045D01*
X123163750Y-170670557D01*
X123136299Y-171050729D01*
X121938072Y-171050729D01*
X121938072Y-169700000D01*
X121933225Y-169650776D01*
X123910381Y-169650776D01*
X125080000Y-170820395D01*
X126249619Y-169650776D01*
X126117683Y-169355688D01*
X125776955Y-169184841D01*
X125409443Y-169083750D01*
X125029271Y-169056299D01*
X124651049Y-169103543D01*
X124289310Y-169223667D01*
X124042317Y-169355688D01*
X123910381Y-169650776D01*
X121933225Y-169650776D01*
X121925812Y-169575518D01*
X121889502Y-169455820D01*
X121830537Y-169345506D01*
X121751185Y-169248815D01*
X121654494Y-169169463D01*
X121544180Y-169110498D01*
X121424482Y-169074188D01*
X121300000Y-169061928D01*
X121135000Y-169061928D01*
X121135000Y-167470131D01*
X123470133Y-165135000D01*
X175444249Y-165135000D01*
X175500000Y-165140491D01*
X175555751Y-165135000D01*
X265029869Y-165135000D01*
X266365001Y-166470133D01*
X266365000Y-170061928D01*
X266200000Y-170061928D01*
X266075518Y-170074188D01*
X265955820Y-170110498D01*
X265845506Y-170169463D01*
X265748815Y-170248815D01*
X265669463Y-170345506D01*
X265610498Y-170455820D01*
X265574188Y-170575518D01*
X265561928Y-170700000D01*
X265561928Y-173300000D01*
X265574188Y-173424482D01*
X265610498Y-173544180D01*
X265669463Y-173654494D01*
X265748815Y-173751185D01*
X265845506Y-173830537D01*
X265955820Y-173889502D01*
X266075518Y-173925812D01*
X266200000Y-173938072D01*
X268800000Y-173938072D01*
X268924482Y-173925812D01*
X269044180Y-173889502D01*
X269154494Y-173830537D01*
X269251185Y-173751185D01*
X269330537Y-173654494D01*
X269389502Y-173544180D01*
X269425812Y-173424482D01*
X269433224Y-173349224D01*
X271410381Y-173349224D01*
X271542317Y-173644312D01*
X271883045Y-173815159D01*
X272250557Y-173916250D01*
X272630729Y-173943701D01*
X273008951Y-173896457D01*
X273370690Y-173776333D01*
X273617683Y-173644312D01*
X273749619Y-173349224D01*
X272580000Y-172179605D01*
X271410381Y-173349224D01*
X269433224Y-173349224D01*
X269438072Y-173300000D01*
X269438072Y-172050729D01*
X270636299Y-172050729D01*
X270683543Y-172428951D01*
X270803667Y-172790690D01*
X270935688Y-173037683D01*
X271230776Y-173169619D01*
X272400395Y-172000000D01*
X272759605Y-172000000D01*
X273929224Y-173169619D01*
X274224312Y-173037683D01*
X274395159Y-172696955D01*
X274496250Y-172329443D01*
X274523701Y-171949271D01*
X274476457Y-171571049D01*
X274356333Y-171209310D01*
X274224312Y-170962317D01*
X273929224Y-170830381D01*
X272759605Y-172000000D01*
X272400395Y-172000000D01*
X271230776Y-170830381D01*
X270935688Y-170962317D01*
X270764841Y-171303045D01*
X270663750Y-171670557D01*
X270636299Y-172050729D01*
X269438072Y-172050729D01*
X269438072Y-170700000D01*
X269433225Y-170650776D01*
X271410381Y-170650776D01*
X272580000Y-171820395D01*
X273749619Y-170650776D01*
X273619015Y-170358665D01*
X278325000Y-170358665D01*
X278325000Y-170641335D01*
X278380147Y-170918574D01*
X278488320Y-171179727D01*
X278645363Y-171414759D01*
X278845241Y-171614637D01*
X279080273Y-171771680D01*
X279341426Y-171879853D01*
X279618665Y-171935000D01*
X279740001Y-171935000D01*
X279740000Y-174511928D01*
X279650000Y-174511928D01*
X279525518Y-174524188D01*
X279405820Y-174560498D01*
X279295506Y-174619463D01*
X279198815Y-174698815D01*
X279119463Y-174795506D01*
X279060498Y-174905820D01*
X279024188Y-175025518D01*
X279011928Y-175150000D01*
X279011928Y-176850000D01*
X279024188Y-176974482D01*
X279060498Y-177094180D01*
X279119463Y-177204494D01*
X279198815Y-177301185D01*
X279295506Y-177380537D01*
X279405820Y-177439502D01*
X279525518Y-177475812D01*
X279650000Y-177488072D01*
X281350000Y-177488072D01*
X281474482Y-177475812D01*
X281594180Y-177439502D01*
X281704494Y-177380537D01*
X281801185Y-177301185D01*
X281880537Y-177204494D01*
X281939502Y-177094180D01*
X281975812Y-176974482D01*
X281988072Y-176850000D01*
X281988072Y-175150000D01*
X281975812Y-175025518D01*
X281939502Y-174905820D01*
X281880537Y-174795506D01*
X281801185Y-174698815D01*
X281704494Y-174619463D01*
X281594180Y-174560498D01*
X281474482Y-174524188D01*
X281350000Y-174511928D01*
X281260000Y-174511928D01*
X281260000Y-171277322D01*
X281263676Y-171239999D01*
X281260000Y-171202676D01*
X281260000Y-171202667D01*
X281249003Y-171091014D01*
X281205546Y-170947753D01*
X281180147Y-170900236D01*
X281153440Y-170850270D01*
X281195000Y-170641335D01*
X281195000Y-170358665D01*
X281139853Y-170081426D01*
X281031680Y-169820273D01*
X280874637Y-169585241D01*
X280674759Y-169385363D01*
X280439727Y-169228320D01*
X280178574Y-169120147D01*
X279901335Y-169065000D01*
X279618665Y-169065000D01*
X279341426Y-169120147D01*
X279080273Y-169228320D01*
X278845241Y-169385363D01*
X278645363Y-169585241D01*
X278488320Y-169820273D01*
X278380147Y-170081426D01*
X278325000Y-170358665D01*
X273619015Y-170358665D01*
X273617683Y-170355688D01*
X273276955Y-170184841D01*
X272909443Y-170083750D01*
X272529271Y-170056299D01*
X272151049Y-170103543D01*
X271789310Y-170223667D01*
X271542317Y-170355688D01*
X271410381Y-170650776D01*
X269433225Y-170650776D01*
X269425812Y-170575518D01*
X269389502Y-170455820D01*
X269330537Y-170345506D01*
X269251185Y-170248815D01*
X269154494Y-170169463D01*
X269044180Y-170110498D01*
X268924482Y-170074188D01*
X268800000Y-170061928D01*
X268635000Y-170061928D01*
X268635000Y-167678319D01*
X311265087Y-167678319D01*
X311420006Y-167873000D01*
X312373000Y-167873000D01*
X312373000Y-166731269D01*
X312627000Y-166731269D01*
X312627000Y-167873000D01*
X313579994Y-167873000D01*
X313734913Y-167678319D01*
X313687446Y-167439737D01*
X313594346Y-167215000D01*
X313459191Y-167012744D01*
X313287174Y-166840742D01*
X313084907Y-166705604D01*
X312860162Y-166612523D01*
X312817609Y-166606538D01*
X312627000Y-166731269D01*
X312373000Y-166731269D01*
X312182391Y-166606538D01*
X312139838Y-166612523D01*
X311915093Y-166705604D01*
X311712826Y-166840742D01*
X311540809Y-167012744D01*
X311405654Y-167215000D01*
X311312554Y-167439737D01*
X311265087Y-167678319D01*
X268635000Y-167678319D01*
X268635000Y-166055751D01*
X268640491Y-165999999D01*
X268618577Y-165777500D01*
X268593111Y-165693551D01*
X268553676Y-165563553D01*
X268448284Y-165366377D01*
X268306449Y-165193551D01*
X268263141Y-165158009D01*
X268240132Y-165135000D01*
X306944249Y-165135000D01*
X307000000Y-165140491D01*
X307055751Y-165135000D01*
X322529869Y-165135000D01*
X324365001Y-166970133D01*
X324365000Y-170061928D01*
X324200000Y-170061928D01*
X324075518Y-170074188D01*
X323955820Y-170110498D01*
X323845506Y-170169463D01*
X323748815Y-170248815D01*
X323669463Y-170345506D01*
X323610498Y-170455820D01*
X323574188Y-170575518D01*
X323561928Y-170700000D01*
X323561928Y-172332940D01*
X320472941Y-175421928D01*
X318400000Y-175421928D01*
X318275518Y-175434188D01*
X318155820Y-175470498D01*
X318045506Y-175529463D01*
X317948815Y-175608815D01*
X317869463Y-175705506D01*
X317810498Y-175815820D01*
X317774188Y-175935518D01*
X317761928Y-176060000D01*
X317761928Y-177672128D01*
X313260000Y-173170201D01*
X313260000Y-171517506D01*
X313287267Y-171499287D01*
X313459287Y-171327267D01*
X313477506Y-171300000D01*
X315922678Y-171300000D01*
X315960000Y-171303676D01*
X315997322Y-171300000D01*
X315997333Y-171300000D01*
X316108986Y-171289003D01*
X316252247Y-171245546D01*
X316384276Y-171174974D01*
X316500001Y-171080001D01*
X316523804Y-171050997D01*
X318932088Y-168642714D01*
X318993919Y-168668325D01*
X319329117Y-168735000D01*
X319670883Y-168735000D01*
X320006081Y-168668325D01*
X320321831Y-168537537D01*
X320605998Y-168347663D01*
X320847663Y-168105998D01*
X321037537Y-167821831D01*
X321168325Y-167506081D01*
X321235000Y-167170883D01*
X321235000Y-166829117D01*
X321168325Y-166493919D01*
X321037537Y-166178169D01*
X320847663Y-165894002D01*
X320605998Y-165652337D01*
X320321831Y-165462463D01*
X320006081Y-165331675D01*
X319670883Y-165265000D01*
X319329117Y-165265000D01*
X318993919Y-165331675D01*
X318678169Y-165462463D01*
X318394002Y-165652337D01*
X318152337Y-165894002D01*
X317962463Y-166178169D01*
X317831675Y-166493919D01*
X317765000Y-166829117D01*
X317765000Y-167170883D01*
X317831675Y-167506081D01*
X317857286Y-167567912D01*
X315645199Y-169780000D01*
X313477506Y-169780000D01*
X313459287Y-169752733D01*
X313287267Y-169580713D01*
X313084992Y-169445557D01*
X312902471Y-169369954D01*
X313084907Y-169294396D01*
X313287174Y-169159258D01*
X313459191Y-168987256D01*
X313594346Y-168785000D01*
X313687446Y-168560263D01*
X313734913Y-168321681D01*
X313579994Y-168127000D01*
X312627000Y-168127000D01*
X312627000Y-168147000D01*
X312373000Y-168147000D01*
X312373000Y-168127000D01*
X311697765Y-168127000D01*
X311590236Y-168082460D01*
X311351637Y-168035000D01*
X311108363Y-168035000D01*
X310869764Y-168082460D01*
X310645008Y-168175557D01*
X310442733Y-168310713D01*
X310270713Y-168482733D01*
X310252494Y-168510000D01*
X296267325Y-168510000D01*
X296230000Y-168506324D01*
X296192675Y-168510000D01*
X296192667Y-168510000D01*
X296081014Y-168520997D01*
X295937753Y-168564454D01*
X295805724Y-168635026D01*
X295689999Y-168729999D01*
X295666201Y-168758997D01*
X295323886Y-169101312D01*
X295141335Y-169065000D01*
X294858665Y-169065000D01*
X294581426Y-169120147D01*
X294320273Y-169228320D01*
X294085241Y-169385363D01*
X293885363Y-169585241D01*
X293728320Y-169820273D01*
X293620147Y-170081426D01*
X293565000Y-170358665D01*
X293565000Y-170641335D01*
X293620147Y-170918574D01*
X293728320Y-171179727D01*
X293885363Y-171414759D01*
X294085241Y-171614637D01*
X294320273Y-171771680D01*
X294581426Y-171879853D01*
X294858665Y-171935000D01*
X295141335Y-171935000D01*
X295418574Y-171879853D01*
X295679727Y-171771680D01*
X295914759Y-171614637D01*
X296114637Y-171414759D01*
X296271680Y-171179727D01*
X296379853Y-170918574D01*
X296435000Y-170641335D01*
X296435000Y-170358665D01*
X296398688Y-170176114D01*
X296544802Y-170030000D01*
X310252494Y-170030000D01*
X310270713Y-170057267D01*
X310442733Y-170229287D01*
X310470000Y-170247506D01*
X310470001Y-172814080D01*
X310466324Y-172851412D01*
X310480998Y-173000397D01*
X310524454Y-173143658D01*
X310595026Y-173275688D01*
X310655376Y-173349224D01*
X310690000Y-173391413D01*
X310718998Y-173415211D01*
X316618786Y-179315000D01*
X100685000Y-179315000D01*
X100685000Y-174622285D01*
X101165000Y-174622285D01*
X101165000Y-175377715D01*
X101312377Y-176118628D01*
X101601467Y-176816554D01*
X102021161Y-177444670D01*
X102555330Y-177978839D01*
X103183446Y-178398533D01*
X103881372Y-178687623D01*
X104622285Y-178835000D01*
X105377715Y-178835000D01*
X106118628Y-178687623D01*
X106816554Y-178398533D01*
X107444670Y-177978839D01*
X107978839Y-177444670D01*
X108398533Y-176816554D01*
X108687623Y-176118628D01*
X108835000Y-175377715D01*
X108835000Y-174622285D01*
X231165000Y-174622285D01*
X231165000Y-175377715D01*
X231312377Y-176118628D01*
X231601467Y-176816554D01*
X232021161Y-177444670D01*
X232555330Y-177978839D01*
X233183446Y-178398533D01*
X233881372Y-178687623D01*
X234622285Y-178835000D01*
X235377715Y-178835000D01*
X236118628Y-178687623D01*
X236816554Y-178398533D01*
X237444670Y-177978839D01*
X237978839Y-177444670D01*
X238398533Y-176816554D01*
X238687623Y-176118628D01*
X238835000Y-175377715D01*
X238835000Y-174622285D01*
X238687623Y-173881372D01*
X238398533Y-173183446D01*
X237978839Y-172555330D01*
X237444670Y-172021161D01*
X236816554Y-171601467D01*
X236118628Y-171312377D01*
X235377715Y-171165000D01*
X234622285Y-171165000D01*
X233881372Y-171312377D01*
X233183446Y-171601467D01*
X232555330Y-172021161D01*
X232021161Y-172555330D01*
X231601467Y-173183446D01*
X231312377Y-173881372D01*
X231165000Y-174622285D01*
X108835000Y-174622285D01*
X108687623Y-173881372D01*
X108398533Y-173183446D01*
X107978839Y-172555330D01*
X107444670Y-172021161D01*
X106816554Y-171601467D01*
X106118628Y-171312377D01*
X105377715Y-171165000D01*
X104622285Y-171165000D01*
X103881372Y-171312377D01*
X103183446Y-171601467D01*
X102555330Y-172021161D01*
X102021161Y-172555330D01*
X101601467Y-173183446D01*
X101312377Y-173881372D01*
X101165000Y-174622285D01*
X100685000Y-174622285D01*
X100685000Y-154622285D01*
X101165000Y-154622285D01*
X101165000Y-155377715D01*
X101312377Y-156118628D01*
X101601467Y-156816554D01*
X102021161Y-157444670D01*
X102555330Y-157978839D01*
X103183446Y-158398533D01*
X103881372Y-158687623D01*
X104622285Y-158835000D01*
X105377715Y-158835000D01*
X106118628Y-158687623D01*
X106816554Y-158398533D01*
X106890350Y-158349224D01*
X176250381Y-158349224D01*
X176382317Y-158644312D01*
X176723045Y-158815159D01*
X177090557Y-158916250D01*
X177470729Y-158943701D01*
X177848951Y-158896457D01*
X178210690Y-158776333D01*
X178457683Y-158644312D01*
X178589619Y-158349224D01*
X177420000Y-157179605D01*
X176250381Y-158349224D01*
X106890350Y-158349224D01*
X107444670Y-157978839D01*
X107978839Y-157444670D01*
X108242062Y-157050729D01*
X175476299Y-157050729D01*
X175523543Y-157428951D01*
X175643667Y-157790690D01*
X175775688Y-158037683D01*
X176070776Y-158169619D01*
X177240395Y-157000000D01*
X177599605Y-157000000D01*
X178769224Y-158169619D01*
X179064312Y-158037683D01*
X179235159Y-157696955D01*
X179336250Y-157329443D01*
X179363701Y-156949271D01*
X179316457Y-156571049D01*
X179196333Y-156209310D01*
X179064312Y-155962317D01*
X178769224Y-155830381D01*
X177599605Y-157000000D01*
X177240395Y-157000000D01*
X176070776Y-155830381D01*
X175775688Y-155962317D01*
X175604841Y-156303045D01*
X175503750Y-156670557D01*
X175476299Y-157050729D01*
X108242062Y-157050729D01*
X108398533Y-156816554D01*
X108687623Y-156118628D01*
X108780684Y-155650776D01*
X176250381Y-155650776D01*
X177420000Y-156820395D01*
X178589619Y-155650776D01*
X178457683Y-155355688D01*
X178116955Y-155184841D01*
X177749443Y-155083750D01*
X177369271Y-155056299D01*
X176991049Y-155103543D01*
X176629310Y-155223667D01*
X176382317Y-155355688D01*
X176250381Y-155650776D01*
X108780684Y-155650776D01*
X108835000Y-155377715D01*
X108835000Y-154622285D01*
X243665000Y-154622285D01*
X243665000Y-155377715D01*
X243812377Y-156118628D01*
X244101467Y-156816554D01*
X244521161Y-157444670D01*
X245055330Y-157978839D01*
X245683446Y-158398533D01*
X246381372Y-158687623D01*
X247122285Y-158835000D01*
X247877715Y-158835000D01*
X248618628Y-158687623D01*
X249316554Y-158398533D01*
X249390350Y-158349224D01*
X266250381Y-158349224D01*
X266382317Y-158644312D01*
X266723045Y-158815159D01*
X267090557Y-158916250D01*
X267470729Y-158943701D01*
X267848951Y-158896457D01*
X268210690Y-158776333D01*
X268457683Y-158644312D01*
X268589619Y-158349224D01*
X267420000Y-157179605D01*
X266250381Y-158349224D01*
X249390350Y-158349224D01*
X249944670Y-157978839D01*
X250478839Y-157444670D01*
X250742062Y-157050729D01*
X265476299Y-157050729D01*
X265523543Y-157428951D01*
X265643667Y-157790690D01*
X265775688Y-158037683D01*
X266070776Y-158169619D01*
X267240395Y-157000000D01*
X267599605Y-157000000D01*
X268769224Y-158169619D01*
X269064312Y-158037683D01*
X269235159Y-157696955D01*
X269336250Y-157329443D01*
X269363701Y-156949271D01*
X269316457Y-156571049D01*
X269196333Y-156209310D01*
X269064312Y-155962317D01*
X268769224Y-155830381D01*
X267599605Y-157000000D01*
X267240395Y-157000000D01*
X266070776Y-155830381D01*
X265775688Y-155962317D01*
X265604841Y-156303045D01*
X265503750Y-156670557D01*
X265476299Y-157050729D01*
X250742062Y-157050729D01*
X250898533Y-156816554D01*
X251187623Y-156118628D01*
X251280684Y-155650776D01*
X266250381Y-155650776D01*
X267420000Y-156820395D01*
X268589619Y-155650776D01*
X268457683Y-155355688D01*
X268116955Y-155184841D01*
X267749443Y-155083750D01*
X267369271Y-155056299D01*
X266991049Y-155103543D01*
X266629310Y-155223667D01*
X266382317Y-155355688D01*
X266250381Y-155650776D01*
X251280684Y-155650776D01*
X251335000Y-155377715D01*
X251335000Y-154622285D01*
X369665000Y-154622285D01*
X369665000Y-155377715D01*
X369812377Y-156118628D01*
X370101467Y-156816554D01*
X370521161Y-157444670D01*
X371055330Y-157978839D01*
X371683446Y-158398533D01*
X372381372Y-158687623D01*
X373122285Y-158835000D01*
X373877715Y-158835000D01*
X374618628Y-158687623D01*
X375316554Y-158398533D01*
X375390350Y-158349224D01*
X446250381Y-158349224D01*
X446382317Y-158644312D01*
X446723045Y-158815159D01*
X447090557Y-158916250D01*
X447470729Y-158943701D01*
X447848951Y-158896457D01*
X448210690Y-158776333D01*
X448457683Y-158644312D01*
X448589619Y-158349224D01*
X447420000Y-157179605D01*
X446250381Y-158349224D01*
X375390350Y-158349224D01*
X375944670Y-157978839D01*
X376478839Y-157444670D01*
X376742062Y-157050729D01*
X445476299Y-157050729D01*
X445523543Y-157428951D01*
X445643667Y-157790690D01*
X445775688Y-158037683D01*
X446070776Y-158169619D01*
X447240395Y-157000000D01*
X447599605Y-157000000D01*
X448769224Y-158169619D01*
X449064312Y-158037683D01*
X449235159Y-157696955D01*
X449336250Y-157329443D01*
X449363701Y-156949271D01*
X449316457Y-156571049D01*
X449196333Y-156209310D01*
X449064312Y-155962317D01*
X448769224Y-155830381D01*
X447599605Y-157000000D01*
X447240395Y-157000000D01*
X446070776Y-155830381D01*
X445775688Y-155962317D01*
X445604841Y-156303045D01*
X445503750Y-156670557D01*
X445476299Y-157050729D01*
X376742062Y-157050729D01*
X376898533Y-156816554D01*
X377187623Y-156118628D01*
X377280684Y-155650776D01*
X446250381Y-155650776D01*
X447420000Y-156820395D01*
X448589619Y-155650776D01*
X448457683Y-155355688D01*
X448116955Y-155184841D01*
X447749443Y-155083750D01*
X447369271Y-155056299D01*
X446991049Y-155103543D01*
X446629310Y-155223667D01*
X446382317Y-155355688D01*
X446250381Y-155650776D01*
X377280684Y-155650776D01*
X377335000Y-155377715D01*
X377335000Y-154622285D01*
X491165000Y-154622285D01*
X491165000Y-155377715D01*
X491312377Y-156118628D01*
X491601467Y-156816554D01*
X492021161Y-157444670D01*
X492555330Y-157978839D01*
X493183446Y-158398533D01*
X493881372Y-158687623D01*
X494622285Y-158835000D01*
X495377715Y-158835000D01*
X496118628Y-158687623D01*
X496816554Y-158398533D01*
X497444670Y-157978839D01*
X497978839Y-157444670D01*
X498398533Y-156816554D01*
X498687623Y-156118628D01*
X498835000Y-155377715D01*
X498835000Y-154622285D01*
X498687623Y-153881372D01*
X498398533Y-153183446D01*
X497978839Y-152555330D01*
X497444670Y-152021161D01*
X496816554Y-151601467D01*
X496118628Y-151312377D01*
X495377715Y-151165000D01*
X494622285Y-151165000D01*
X493881372Y-151312377D01*
X493183446Y-151601467D01*
X492555330Y-152021161D01*
X492021161Y-152555330D01*
X491601467Y-153183446D01*
X491312377Y-153881372D01*
X491165000Y-154622285D01*
X377335000Y-154622285D01*
X377187623Y-153881372D01*
X376898533Y-153183446D01*
X376478839Y-152555330D01*
X375944670Y-152021161D01*
X375316554Y-151601467D01*
X374618628Y-151312377D01*
X373877715Y-151165000D01*
X373122285Y-151165000D01*
X372381372Y-151312377D01*
X371683446Y-151601467D01*
X371055330Y-152021161D01*
X370521161Y-152555330D01*
X370101467Y-153183446D01*
X369812377Y-153881372D01*
X369665000Y-154622285D01*
X251335000Y-154622285D01*
X251187623Y-153881372D01*
X250898533Y-153183446D01*
X250478839Y-152555330D01*
X249944670Y-152021161D01*
X249316554Y-151601467D01*
X248618628Y-151312377D01*
X247877715Y-151165000D01*
X247122285Y-151165000D01*
X246381372Y-151312377D01*
X245683446Y-151601467D01*
X245055330Y-152021161D01*
X244521161Y-152555330D01*
X244101467Y-153183446D01*
X243812377Y-153881372D01*
X243665000Y-154622285D01*
X108835000Y-154622285D01*
X108687623Y-153881372D01*
X108398533Y-153183446D01*
X107978839Y-152555330D01*
X107444670Y-152021161D01*
X106816554Y-151601467D01*
X106118628Y-151312377D01*
X105377715Y-151165000D01*
X104622285Y-151165000D01*
X103881372Y-151312377D01*
X103183446Y-151601467D01*
X102555330Y-152021161D01*
X102021161Y-152555330D01*
X101601467Y-153183446D01*
X101312377Y-153881372D01*
X101165000Y-154622285D01*
X100685000Y-154622285D01*
X100685000Y-150685000D01*
X499315000Y-150685000D01*
X499315001Y-179315000D01*
G37*
X499315001Y-179315000D02*
X354259801Y-179315000D01*
X356781004Y-176793798D01*
X356810001Y-176770001D01*
X356904974Y-176654276D01*
X356975546Y-176522247D01*
X357019003Y-176378986D01*
X357030000Y-176267333D01*
X357030000Y-176267325D01*
X357033676Y-176230000D01*
X357030000Y-176192675D01*
X357030000Y-174622285D01*
X361165000Y-174622285D01*
X361165000Y-175377715D01*
X361312377Y-176118628D01*
X361601467Y-176816554D01*
X362021161Y-177444670D01*
X362555330Y-177978839D01*
X363183446Y-178398533D01*
X363881372Y-178687623D01*
X364622285Y-178835000D01*
X365377715Y-178835000D01*
X366118628Y-178687623D01*
X366816554Y-178398533D01*
X367444670Y-177978839D01*
X367978839Y-177444670D01*
X368398533Y-176816554D01*
X368687623Y-176118628D01*
X368835000Y-175377715D01*
X368835000Y-174622285D01*
X491165000Y-174622285D01*
X491165000Y-175377715D01*
X491312377Y-176118628D01*
X491601467Y-176816554D01*
X492021161Y-177444670D01*
X492555330Y-177978839D01*
X493183446Y-178398533D01*
X493881372Y-178687623D01*
X494622285Y-178835000D01*
X495377715Y-178835000D01*
X496118628Y-178687623D01*
X496816554Y-178398533D01*
X497444670Y-177978839D01*
X497978839Y-177444670D01*
X498398533Y-176816554D01*
X498687623Y-176118628D01*
X498835000Y-175377715D01*
X498835000Y-174622285D01*
X498687623Y-173881372D01*
X498398533Y-173183446D01*
X497978839Y-172555330D01*
X497444670Y-172021161D01*
X496816554Y-171601467D01*
X496118628Y-171312377D01*
X495377715Y-171165000D01*
X494622285Y-171165000D01*
X493881372Y-171312377D01*
X493183446Y-171601467D01*
X492555330Y-172021161D01*
X492021161Y-172555330D01*
X491601467Y-173183446D01*
X491312377Y-173881372D01*
X491165000Y-174622285D01*
X368835000Y-174622285D01*
X368687623Y-173881372D01*
X368398533Y-173183446D01*
X367978839Y-172555330D01*
X367444670Y-172021161D01*
X366816554Y-171601467D01*
X366118628Y-171312377D01*
X365377715Y-171165000D01*
X364622285Y-171165000D01*
X363881372Y-171312377D01*
X363183446Y-171601467D01*
X362555330Y-172021161D01*
X362021161Y-172555330D01*
X361601467Y-173183446D01*
X361312377Y-173881372D01*
X361165000Y-174622285D01*
X357030000Y-174622285D01*
X357030000Y-172707506D01*
X357057267Y-172689287D01*
X357229287Y-172517267D01*
X357364443Y-172314992D01*
X357457540Y-172090236D01*
X357505000Y-171851637D01*
X357505000Y-171608363D01*
X357457540Y-171369764D01*
X357364443Y-171145008D01*
X357229287Y-170942733D01*
X357057267Y-170770713D01*
X356854992Y-170635557D01*
X356630236Y-170542460D01*
X356391637Y-170495000D01*
X356235000Y-170495000D01*
X356235000Y-170338363D01*
X356187540Y-170099764D01*
X356094443Y-169875008D01*
X355959287Y-169672733D01*
X355787267Y-169500713D01*
X355584992Y-169365557D01*
X355360236Y-169272460D01*
X355121637Y-169225000D01*
X354878363Y-169225000D01*
X354846199Y-169231398D01*
X352103804Y-166489003D01*
X352080001Y-166459999D01*
X351964276Y-166365026D01*
X351832247Y-166294454D01*
X351688986Y-166250997D01*
X351577333Y-166240000D01*
X351577322Y-166240000D01*
X351540000Y-166236324D01*
X351502678Y-166240000D01*
X350063148Y-166240000D01*
X350037537Y-166178169D01*
X349847663Y-165894002D01*
X349605998Y-165652337D01*
X349321831Y-165462463D01*
X349006081Y-165331675D01*
X348670883Y-165265000D01*
X348329117Y-165265000D01*
X347993919Y-165331675D01*
X347678169Y-165462463D01*
X347394002Y-165652337D01*
X347152337Y-165894002D01*
X346962463Y-166178169D01*
X346932351Y-166250865D01*
X346931014Y-166250997D01*
X346787753Y-166294454D01*
X346655724Y-166365026D01*
X346539999Y-166459999D01*
X346516201Y-166488997D01*
X342800986Y-170204213D01*
X342644419Y-170139361D01*
X342270581Y-170065000D01*
X341889419Y-170065000D01*
X341515581Y-170139361D01*
X341163434Y-170285225D01*
X340846509Y-170496987D01*
X340576987Y-170766509D01*
X340365225Y-171083434D01*
X340219361Y-171435581D01*
X340145000Y-171809419D01*
X340145000Y-172190581D01*
X340219361Y-172564419D01*
X340365225Y-172916566D01*
X340576987Y-173233491D01*
X340846509Y-173503013D01*
X341163434Y-173714775D01*
X341515581Y-173860639D01*
X341889419Y-173935000D01*
X342270581Y-173935000D01*
X342644419Y-173860639D01*
X342996566Y-173714775D01*
X343313491Y-173503013D01*
X343494823Y-173321681D01*
X353765087Y-173321681D01*
X353812554Y-173560263D01*
X353905654Y-173785000D01*
X354040809Y-173987256D01*
X354212826Y-174159258D01*
X354415093Y-174294396D01*
X354639838Y-174387477D01*
X354682391Y-174393462D01*
X354873000Y-174268731D01*
X354873000Y-173127000D01*
X353920006Y-173127000D01*
X353765087Y-173321681D01*
X343494823Y-173321681D01*
X343583013Y-173233491D01*
X343794775Y-172916566D01*
X343940639Y-172564419D01*
X344015000Y-172190581D01*
X344015000Y-171809419D01*
X343940639Y-171435581D01*
X343875787Y-171279014D01*
X347110867Y-168043934D01*
X347152337Y-168105998D01*
X347394002Y-168347663D01*
X347678169Y-168537537D01*
X347993919Y-168668325D01*
X348329117Y-168735000D01*
X348670883Y-168735000D01*
X349006081Y-168668325D01*
X349321831Y-168537537D01*
X349605998Y-168347663D01*
X349847663Y-168105998D01*
X350037537Y-167821831D01*
X350063148Y-167760000D01*
X351225199Y-167760000D01*
X353771398Y-170306199D01*
X353765000Y-170338363D01*
X353765000Y-170581637D01*
X353812460Y-170820236D01*
X353905557Y-171044992D01*
X354040713Y-171247267D01*
X354212733Y-171419287D01*
X354415008Y-171554443D01*
X354597529Y-171630046D01*
X354415093Y-171705604D01*
X354212826Y-171840742D01*
X354040809Y-172012744D01*
X353905654Y-172215000D01*
X353812554Y-172439737D01*
X353765087Y-172678319D01*
X353920006Y-172873000D01*
X354873000Y-172873000D01*
X354873000Y-172853000D01*
X355127000Y-172853000D01*
X355127000Y-172873000D01*
X355147000Y-172873000D01*
X355147000Y-173127000D01*
X355127000Y-173127000D01*
X355127000Y-174268731D01*
X355317609Y-174393462D01*
X355360162Y-174387477D01*
X355510000Y-174325420D01*
X355510000Y-175915198D01*
X352850188Y-178575011D01*
X350151641Y-178575011D01*
X350189502Y-178504180D01*
X350225812Y-178384482D01*
X350238072Y-178260000D01*
X350238072Y-176060000D01*
X350225812Y-175935518D01*
X350189502Y-175815820D01*
X350130537Y-175705506D01*
X350051185Y-175608815D01*
X349954494Y-175529463D01*
X349844180Y-175470498D01*
X349724482Y-175434188D01*
X349600000Y-175421928D01*
X347400000Y-175421928D01*
X347275518Y-175434188D01*
X347155820Y-175470498D01*
X347045506Y-175529463D01*
X346948815Y-175608815D01*
X346869463Y-175705506D01*
X346810498Y-175815820D01*
X346774188Y-175935518D01*
X346765375Y-176025000D01*
X342630132Y-176025000D01*
X338938072Y-172332941D01*
X338938072Y-170700000D01*
X338925812Y-170575518D01*
X338889502Y-170455820D01*
X338830537Y-170345506D01*
X338751185Y-170248815D01*
X338654494Y-170169463D01*
X338544180Y-170110498D01*
X338424482Y-170074188D01*
X338300000Y-170061928D01*
X338135000Y-170061928D01*
X338135000Y-170055741D01*
X338140490Y-169999999D01*
X338135000Y-169944257D01*
X338135000Y-169944248D01*
X338118577Y-169777501D01*
X338053676Y-169563553D01*
X337948284Y-169366377D01*
X337806449Y-169193551D01*
X337763141Y-169158009D01*
X333740131Y-165135000D01*
X355444249Y-165135000D01*
X355500000Y-165140491D01*
X355555751Y-165135000D01*
X372529869Y-165135000D01*
X378061928Y-170667060D01*
X378061928Y-172300000D01*
X378074188Y-172424482D01*
X378110498Y-172544180D01*
X378169463Y-172654494D01*
X378248815Y-172751185D01*
X378345506Y-172830537D01*
X378455820Y-172889502D01*
X378575518Y-172925812D01*
X378700000Y-172938072D01*
X381300000Y-172938072D01*
X381424482Y-172925812D01*
X381544180Y-172889502D01*
X381654494Y-172830537D01*
X381751185Y-172751185D01*
X381830537Y-172654494D01*
X381889502Y-172544180D01*
X381925812Y-172424482D01*
X381933224Y-172349224D01*
X383910381Y-172349224D01*
X384042317Y-172644312D01*
X384383045Y-172815159D01*
X384750557Y-172916250D01*
X385130729Y-172943701D01*
X385508951Y-172896457D01*
X385870690Y-172776333D01*
X386117683Y-172644312D01*
X386249619Y-172349224D01*
X385080000Y-171179605D01*
X383910381Y-172349224D01*
X381933224Y-172349224D01*
X381938072Y-172300000D01*
X381938072Y-171050729D01*
X383136299Y-171050729D01*
X383183543Y-171428951D01*
X383303667Y-171790690D01*
X383435688Y-172037683D01*
X383730776Y-172169619D01*
X384900395Y-171000000D01*
X385259605Y-171000000D01*
X386429224Y-172169619D01*
X386724312Y-172037683D01*
X386895159Y-171696955D01*
X386996250Y-171329443D01*
X387023701Y-170949271D01*
X386976457Y-170571049D01*
X386856333Y-170209310D01*
X386724312Y-169962317D01*
X386429224Y-169830381D01*
X385259605Y-171000000D01*
X384900395Y-171000000D01*
X383730776Y-169830381D01*
X383435688Y-169962317D01*
X383264841Y-170303045D01*
X383163750Y-170670557D01*
X383136299Y-171050729D01*
X381938072Y-171050729D01*
X381938072Y-169700000D01*
X381933225Y-169650776D01*
X383910381Y-169650776D01*
X385080000Y-170820395D01*
X386249619Y-169650776D01*
X386117683Y-169355688D01*
X385776955Y-169184841D01*
X385409443Y-169083750D01*
X385029271Y-169056299D01*
X384651049Y-169103543D01*
X384289310Y-169223667D01*
X384042317Y-169355688D01*
X383910381Y-169650776D01*
X381933225Y-169650776D01*
X381925812Y-169575518D01*
X381889502Y-169455820D01*
X381830537Y-169345506D01*
X381751185Y-169248815D01*
X381654494Y-169169463D01*
X381544180Y-169110498D01*
X381424482Y-169074188D01*
X381300000Y-169061928D01*
X379667060Y-169061928D01*
X375740131Y-165135000D01*
X445444249Y-165135000D01*
X445500000Y-165140491D01*
X445555751Y-165135000D01*
X445555752Y-165135000D01*
X445722499Y-165118577D01*
X445936447Y-165053676D01*
X446133623Y-164948284D01*
X446306449Y-164806449D01*
X446341996Y-164763135D01*
X452167060Y-158938072D01*
X453800000Y-158938072D01*
X453924482Y-158925812D01*
X454044180Y-158889502D01*
X454154494Y-158830537D01*
X454251185Y-158751185D01*
X454330537Y-158654494D01*
X454389502Y-158544180D01*
X454425812Y-158424482D01*
X454438072Y-158300000D01*
X454438072Y-155700000D01*
X454425812Y-155575518D01*
X454389502Y-155455820D01*
X454330537Y-155345506D01*
X454251185Y-155248815D01*
X454154494Y-155169463D01*
X454044180Y-155110498D01*
X453924482Y-155074188D01*
X453800000Y-155061928D01*
X451200000Y-155061928D01*
X451075518Y-155074188D01*
X450955820Y-155110498D01*
X450845506Y-155169463D01*
X450748815Y-155248815D01*
X450669463Y-155345506D01*
X450610498Y-155455820D01*
X450574188Y-155575518D01*
X450561928Y-155700000D01*
X450561928Y-157332940D01*
X445029869Y-162865000D01*
X373055751Y-162865000D01*
X373000000Y-162859509D01*
X372944249Y-162865000D01*
X358240131Y-162865000D01*
X362167060Y-158938072D01*
X363800000Y-158938072D01*
X363924482Y-158925812D01*
X364044180Y-158889502D01*
X364154494Y-158830537D01*
X364251185Y-158751185D01*
X364330537Y-158654494D01*
X364389502Y-158544180D01*
X364425812Y-158424482D01*
X364438072Y-158300000D01*
X364438072Y-155700000D01*
X364425812Y-155575518D01*
X364389502Y-155455820D01*
X364330537Y-155345506D01*
X364251185Y-155248815D01*
X364154494Y-155169463D01*
X364044180Y-155110498D01*
X363924482Y-155074188D01*
X363800000Y-155061928D01*
X361200000Y-155061928D01*
X361075518Y-155074188D01*
X360955820Y-155110498D01*
X360845506Y-155169463D01*
X360748815Y-155248815D01*
X360669463Y-155345506D01*
X360610498Y-155455820D01*
X360574188Y-155575518D01*
X360561928Y-155700000D01*
X360561928Y-157332940D01*
X355029869Y-162865000D01*
X331055751Y-162865000D01*
X331000000Y-162859509D01*
X330944249Y-162865000D01*
X323055751Y-162865000D01*
X323000000Y-162859509D01*
X322944249Y-162865000D01*
X309740131Y-162865000D01*
X313667060Y-158938072D01*
X315300000Y-158938072D01*
X315424482Y-158925812D01*
X315544180Y-158889502D01*
X315654494Y-158830537D01*
X315751185Y-158751185D01*
X315830537Y-158654494D01*
X315889502Y-158544180D01*
X315925812Y-158424482D01*
X315933224Y-158349224D01*
X356250381Y-158349224D01*
X356382317Y-158644312D01*
X356723045Y-158815159D01*
X357090557Y-158916250D01*
X357470729Y-158943701D01*
X357848951Y-158896457D01*
X358210690Y-158776333D01*
X358457683Y-158644312D01*
X358589619Y-158349224D01*
X357420000Y-157179605D01*
X356250381Y-158349224D01*
X315933224Y-158349224D01*
X315938072Y-158300000D01*
X315938072Y-157050729D01*
X355476299Y-157050729D01*
X355523543Y-157428951D01*
X355643667Y-157790690D01*
X355775688Y-158037683D01*
X356070776Y-158169619D01*
X357240395Y-157000000D01*
X357599605Y-157000000D01*
X358769224Y-158169619D01*
X359064312Y-158037683D01*
X359235159Y-157696955D01*
X359336250Y-157329443D01*
X359363701Y-156949271D01*
X359316457Y-156571049D01*
X359196333Y-156209310D01*
X359064312Y-155962317D01*
X358769224Y-155830381D01*
X357599605Y-157000000D01*
X357240395Y-157000000D01*
X356070776Y-155830381D01*
X355775688Y-155962317D01*
X355604841Y-156303045D01*
X355503750Y-156670557D01*
X355476299Y-157050729D01*
X315938072Y-157050729D01*
X315938072Y-155700000D01*
X315933225Y-155650776D01*
X356250381Y-155650776D01*
X357420000Y-156820395D01*
X358589619Y-155650776D01*
X358457683Y-155355688D01*
X358116955Y-155184841D01*
X357749443Y-155083750D01*
X357369271Y-155056299D01*
X356991049Y-155103543D01*
X356629310Y-155223667D01*
X356382317Y-155355688D01*
X356250381Y-155650776D01*
X315933225Y-155650776D01*
X315925812Y-155575518D01*
X315889502Y-155455820D01*
X315830537Y-155345506D01*
X315751185Y-155248815D01*
X315654494Y-155169463D01*
X315544180Y-155110498D01*
X315424482Y-155074188D01*
X315300000Y-155061928D01*
X312700000Y-155061928D01*
X312575518Y-155074188D01*
X312455820Y-155110498D01*
X312345506Y-155169463D01*
X312248815Y-155248815D01*
X312169463Y-155345506D01*
X312110498Y-155455820D01*
X312074188Y-155575518D01*
X312061928Y-155700000D01*
X312061928Y-157332940D01*
X306529869Y-162865000D01*
X268240131Y-162865000D01*
X272167060Y-158938072D01*
X273800000Y-158938072D01*
X273924482Y-158925812D01*
X274044180Y-158889502D01*
X274154494Y-158830537D01*
X274251185Y-158751185D01*
X274330537Y-158654494D01*
X274389502Y-158544180D01*
X274425812Y-158424482D01*
X274433224Y-158349224D01*
X307750381Y-158349224D01*
X307882317Y-158644312D01*
X308223045Y-158815159D01*
X308590557Y-158916250D01*
X308970729Y-158943701D01*
X309348951Y-158896457D01*
X309710690Y-158776333D01*
X309957683Y-158644312D01*
X310089619Y-158349224D01*
X308920000Y-157179605D01*
X307750381Y-158349224D01*
X274433224Y-158349224D01*
X274438072Y-158300000D01*
X274438072Y-157050729D01*
X306976299Y-157050729D01*
X307023543Y-157428951D01*
X307143667Y-157790690D01*
X307275688Y-158037683D01*
X307570776Y-158169619D01*
X308740395Y-157000000D01*
X309099605Y-157000000D01*
X310269224Y-158169619D01*
X310564312Y-158037683D01*
X310735159Y-157696955D01*
X310836250Y-157329443D01*
X310863701Y-156949271D01*
X310816457Y-156571049D01*
X310696333Y-156209310D01*
X310564312Y-155962317D01*
X310269224Y-155830381D01*
X309099605Y-157000000D01*
X308740395Y-157000000D01*
X307570776Y-155830381D01*
X307275688Y-155962317D01*
X307104841Y-156303045D01*
X307003750Y-156670557D01*
X306976299Y-157050729D01*
X274438072Y-157050729D01*
X274438072Y-155700000D01*
X274433225Y-155650776D01*
X307750381Y-155650776D01*
X308920000Y-156820395D01*
X310089619Y-155650776D01*
X309957683Y-155355688D01*
X309616955Y-155184841D01*
X309249443Y-155083750D01*
X308869271Y-155056299D01*
X308491049Y-155103543D01*
X308129310Y-155223667D01*
X307882317Y-155355688D01*
X307750381Y-155650776D01*
X274433225Y-155650776D01*
X274425812Y-155575518D01*
X274389502Y-155455820D01*
X274330537Y-155345506D01*
X274251185Y-155248815D01*
X274154494Y-155169463D01*
X274044180Y-155110498D01*
X273924482Y-155074188D01*
X273800000Y-155061928D01*
X271200000Y-155061928D01*
X271075518Y-155074188D01*
X270955820Y-155110498D01*
X270845506Y-155169463D01*
X270748815Y-155248815D01*
X270669463Y-155345506D01*
X270610498Y-155455820D01*
X270574188Y-155575518D01*
X270561928Y-155700000D01*
X270561928Y-157332940D01*
X265029869Y-162865000D01*
X178240131Y-162865000D01*
X182167060Y-158938072D01*
X183800000Y-158938072D01*
X183924482Y-158925812D01*
X184044180Y-158889502D01*
X184154494Y-158830537D01*
X184251185Y-158751185D01*
X184330537Y-158654494D01*
X184389502Y-158544180D01*
X184425812Y-158424482D01*
X184438072Y-158300000D01*
X184438072Y-155700000D01*
X184425812Y-155575518D01*
X184389502Y-155455820D01*
X184330537Y-155345506D01*
X184251185Y-155248815D01*
X184154494Y-155169463D01*
X184044180Y-155110498D01*
X183924482Y-155074188D01*
X183800000Y-155061928D01*
X181200000Y-155061928D01*
X181075518Y-155074188D01*
X180955820Y-155110498D01*
X180845506Y-155169463D01*
X180748815Y-155248815D01*
X180669463Y-155345506D01*
X180610498Y-155455820D01*
X180574188Y-155575518D01*
X180561928Y-155700000D01*
X180561928Y-157332940D01*
X175029869Y-162865000D01*
X123055752Y-162865000D01*
X123000000Y-162859509D01*
X122777501Y-162881423D01*
X122563553Y-162946324D01*
X122366377Y-163051716D01*
X122236856Y-163158011D01*
X122236855Y-163158012D01*
X122193551Y-163193551D01*
X122158013Y-163236854D01*
X119236860Y-166158009D01*
X119193552Y-166193551D01*
X119051717Y-166366377D01*
X119001675Y-166459999D01*
X118946324Y-166563554D01*
X118881423Y-166777502D01*
X118859509Y-167000000D01*
X118865001Y-167055761D01*
X118865000Y-169061928D01*
X118700000Y-169061928D01*
X118575518Y-169074188D01*
X118455820Y-169110498D01*
X118345506Y-169169463D01*
X118248815Y-169248815D01*
X118169463Y-169345506D01*
X118110498Y-169455820D01*
X118074188Y-169575518D01*
X118061928Y-169700000D01*
X118061928Y-172300000D01*
X118074188Y-172424482D01*
X118110498Y-172544180D01*
X118169463Y-172654494D01*
X118248815Y-172751185D01*
X118345506Y-172830537D01*
X118455820Y-172889502D01*
X118575518Y-172925812D01*
X118700000Y-172938072D01*
X121300000Y-172938072D01*
X121424482Y-172925812D01*
X121544180Y-172889502D01*
X121654494Y-172830537D01*
X121751185Y-172751185D01*
X121830537Y-172654494D01*
X121889502Y-172544180D01*
X121925812Y-172424482D01*
X121933224Y-172349224D01*
X123910381Y-172349224D01*
X124042317Y-172644312D01*
X124383045Y-172815159D01*
X124750557Y-172916250D01*
X125130729Y-172943701D01*
X125508951Y-172896457D01*
X125870690Y-172776333D01*
X126117683Y-172644312D01*
X126249619Y-172349224D01*
X125080000Y-171179605D01*
X123910381Y-172349224D01*
X121933224Y-172349224D01*
X121938072Y-172300000D01*
X121938072Y-171050729D01*
X123136299Y-171050729D01*
X123183543Y-171428951D01*
X123303667Y-171790690D01*
X123435688Y-172037683D01*
X123730776Y-172169619D01*
X124900395Y-171000000D01*
X125259605Y-171000000D01*
X126429224Y-172169619D01*
X126724312Y-172037683D01*
X126895159Y-171696955D01*
X126996250Y-171329443D01*
X127023701Y-170949271D01*
X126976457Y-170571049D01*
X126856333Y-170209310D01*
X126724312Y-169962317D01*
X126429224Y-169830381D01*
X125259605Y-171000000D01*
X124900395Y-171000000D01*
X123730776Y-169830381D01*
X123435688Y-169962317D01*
X123264841Y-170303045D01*
X123163750Y-170670557D01*
X123136299Y-171050729D01*
X121938072Y-171050729D01*
X121938072Y-169700000D01*
X121933225Y-169650776D01*
X123910381Y-169650776D01*
X125080000Y-170820395D01*
X126249619Y-169650776D01*
X126117683Y-169355688D01*
X125776955Y-169184841D01*
X125409443Y-169083750D01*
X125029271Y-169056299D01*
X124651049Y-169103543D01*
X124289310Y-169223667D01*
X124042317Y-169355688D01*
X123910381Y-169650776D01*
X121933225Y-169650776D01*
X121925812Y-169575518D01*
X121889502Y-169455820D01*
X121830537Y-169345506D01*
X121751185Y-169248815D01*
X121654494Y-169169463D01*
X121544180Y-169110498D01*
X121424482Y-169074188D01*
X121300000Y-169061928D01*
X121135000Y-169061928D01*
X121135000Y-167470131D01*
X123470133Y-165135000D01*
X175444249Y-165135000D01*
X175500000Y-165140491D01*
X175555751Y-165135000D01*
X265029869Y-165135000D01*
X266365001Y-166470133D01*
X266365000Y-170061928D01*
X266200000Y-170061928D01*
X266075518Y-170074188D01*
X265955820Y-170110498D01*
X265845506Y-170169463D01*
X265748815Y-170248815D01*
X265669463Y-170345506D01*
X265610498Y-170455820D01*
X265574188Y-170575518D01*
X265561928Y-170700000D01*
X265561928Y-173300000D01*
X265574188Y-173424482D01*
X265610498Y-173544180D01*
X265669463Y-173654494D01*
X265748815Y-173751185D01*
X265845506Y-173830537D01*
X265955820Y-173889502D01*
X266075518Y-173925812D01*
X266200000Y-173938072D01*
X268800000Y-173938072D01*
X268924482Y-173925812D01*
X269044180Y-173889502D01*
X269154494Y-173830537D01*
X269251185Y-173751185D01*
X269330537Y-173654494D01*
X269389502Y-173544180D01*
X269425812Y-173424482D01*
X269433224Y-173349224D01*
X271410381Y-173349224D01*
X271542317Y-173644312D01*
X271883045Y-173815159D01*
X272250557Y-173916250D01*
X272630729Y-173943701D01*
X273008951Y-173896457D01*
X273370690Y-173776333D01*
X273617683Y-173644312D01*
X273749619Y-173349224D01*
X272580000Y-172179605D01*
X271410381Y-173349224D01*
X269433224Y-173349224D01*
X269438072Y-173300000D01*
X269438072Y-172050729D01*
X270636299Y-172050729D01*
X270683543Y-172428951D01*
X270803667Y-172790690D01*
X270935688Y-173037683D01*
X271230776Y-173169619D01*
X272400395Y-172000000D01*
X272759605Y-172000000D01*
X273929224Y-173169619D01*
X274224312Y-173037683D01*
X274395159Y-172696955D01*
X274496250Y-172329443D01*
X274523701Y-171949271D01*
X274476457Y-171571049D01*
X274356333Y-171209310D01*
X274224312Y-170962317D01*
X273929224Y-170830381D01*
X272759605Y-172000000D01*
X272400395Y-172000000D01*
X271230776Y-170830381D01*
X270935688Y-170962317D01*
X270764841Y-171303045D01*
X270663750Y-171670557D01*
X270636299Y-172050729D01*
X269438072Y-172050729D01*
X269438072Y-170700000D01*
X269433225Y-170650776D01*
X271410381Y-170650776D01*
X272580000Y-171820395D01*
X273749619Y-170650776D01*
X273619015Y-170358665D01*
X278325000Y-170358665D01*
X278325000Y-170641335D01*
X278380147Y-170918574D01*
X278488320Y-171179727D01*
X278645363Y-171414759D01*
X278845241Y-171614637D01*
X279080273Y-171771680D01*
X279341426Y-171879853D01*
X279618665Y-171935000D01*
X279740001Y-171935000D01*
X279740000Y-174511928D01*
X279650000Y-174511928D01*
X279525518Y-174524188D01*
X279405820Y-174560498D01*
X279295506Y-174619463D01*
X279198815Y-174698815D01*
X279119463Y-174795506D01*
X279060498Y-174905820D01*
X279024188Y-175025518D01*
X279011928Y-175150000D01*
X279011928Y-176850000D01*
X279024188Y-176974482D01*
X279060498Y-177094180D01*
X279119463Y-177204494D01*
X279198815Y-177301185D01*
X279295506Y-177380537D01*
X279405820Y-177439502D01*
X279525518Y-177475812D01*
X279650000Y-177488072D01*
X281350000Y-177488072D01*
X281474482Y-177475812D01*
X281594180Y-177439502D01*
X281704494Y-177380537D01*
X281801185Y-177301185D01*
X281880537Y-177204494D01*
X281939502Y-177094180D01*
X281975812Y-176974482D01*
X281988072Y-176850000D01*
X281988072Y-175150000D01*
X281975812Y-175025518D01*
X281939502Y-174905820D01*
X281880537Y-174795506D01*
X281801185Y-174698815D01*
X281704494Y-174619463D01*
X281594180Y-174560498D01*
X281474482Y-174524188D01*
X281350000Y-174511928D01*
X281260000Y-174511928D01*
X281260000Y-171277322D01*
X281263676Y-171239999D01*
X281260000Y-171202676D01*
X281260000Y-171202667D01*
X281249003Y-171091014D01*
X281205546Y-170947753D01*
X281180147Y-170900236D01*
X281153440Y-170850270D01*
X281195000Y-170641335D01*
X281195000Y-170358665D01*
X281139853Y-170081426D01*
X281031680Y-169820273D01*
X280874637Y-169585241D01*
X280674759Y-169385363D01*
X280439727Y-169228320D01*
X280178574Y-169120147D01*
X279901335Y-169065000D01*
X279618665Y-169065000D01*
X279341426Y-169120147D01*
X279080273Y-169228320D01*
X278845241Y-169385363D01*
X278645363Y-169585241D01*
X278488320Y-169820273D01*
X278380147Y-170081426D01*
X278325000Y-170358665D01*
X273619015Y-170358665D01*
X273617683Y-170355688D01*
X273276955Y-170184841D01*
X272909443Y-170083750D01*
X272529271Y-170056299D01*
X272151049Y-170103543D01*
X271789310Y-170223667D01*
X271542317Y-170355688D01*
X271410381Y-170650776D01*
X269433225Y-170650776D01*
X269425812Y-170575518D01*
X269389502Y-170455820D01*
X269330537Y-170345506D01*
X269251185Y-170248815D01*
X269154494Y-170169463D01*
X269044180Y-170110498D01*
X268924482Y-170074188D01*
X268800000Y-170061928D01*
X268635000Y-170061928D01*
X268635000Y-167678319D01*
X311265087Y-167678319D01*
X311420006Y-167873000D01*
X312373000Y-167873000D01*
X312373000Y-166731269D01*
X312627000Y-166731269D01*
X312627000Y-167873000D01*
X313579994Y-167873000D01*
X313734913Y-167678319D01*
X313687446Y-167439737D01*
X313594346Y-167215000D01*
X313459191Y-167012744D01*
X313287174Y-166840742D01*
X313084907Y-166705604D01*
X312860162Y-166612523D01*
X312817609Y-166606538D01*
X312627000Y-166731269D01*
X312373000Y-166731269D01*
X312182391Y-166606538D01*
X312139838Y-166612523D01*
X311915093Y-166705604D01*
X311712826Y-166840742D01*
X311540809Y-167012744D01*
X311405654Y-167215000D01*
X311312554Y-167439737D01*
X311265087Y-167678319D01*
X268635000Y-167678319D01*
X268635000Y-166055751D01*
X268640491Y-165999999D01*
X268618577Y-165777500D01*
X268593111Y-165693551D01*
X268553676Y-165563553D01*
X268448284Y-165366377D01*
X268306449Y-165193551D01*
X268263141Y-165158009D01*
X268240132Y-165135000D01*
X306944249Y-165135000D01*
X307000000Y-165140491D01*
X307055751Y-165135000D01*
X322529869Y-165135000D01*
X324365001Y-166970133D01*
X324365000Y-170061928D01*
X324200000Y-170061928D01*
X324075518Y-170074188D01*
X323955820Y-170110498D01*
X323845506Y-170169463D01*
X323748815Y-170248815D01*
X323669463Y-170345506D01*
X323610498Y-170455820D01*
X323574188Y-170575518D01*
X323561928Y-170700000D01*
X323561928Y-172332940D01*
X320472941Y-175421928D01*
X318400000Y-175421928D01*
X318275518Y-175434188D01*
X318155820Y-175470498D01*
X318045506Y-175529463D01*
X317948815Y-175608815D01*
X317869463Y-175705506D01*
X317810498Y-175815820D01*
X317774188Y-175935518D01*
X317761928Y-176060000D01*
X317761928Y-177672128D01*
X313260000Y-173170201D01*
X313260000Y-171517506D01*
X313287267Y-171499287D01*
X313459287Y-171327267D01*
X313477506Y-171300000D01*
X315922678Y-171300000D01*
X315960000Y-171303676D01*
X315997322Y-171300000D01*
X315997333Y-171300000D01*
X316108986Y-171289003D01*
X316252247Y-171245546D01*
X316384276Y-171174974D01*
X316500001Y-171080001D01*
X316523804Y-171050997D01*
X318932088Y-168642714D01*
X318993919Y-168668325D01*
X319329117Y-168735000D01*
X319670883Y-168735000D01*
X320006081Y-168668325D01*
X320321831Y-168537537D01*
X320605998Y-168347663D01*
X320847663Y-168105998D01*
X321037537Y-167821831D01*
X321168325Y-167506081D01*
X321235000Y-167170883D01*
X321235000Y-166829117D01*
X321168325Y-166493919D01*
X321037537Y-166178169D01*
X320847663Y-165894002D01*
X320605998Y-165652337D01*
X320321831Y-165462463D01*
X320006081Y-165331675D01*
X319670883Y-165265000D01*
X319329117Y-165265000D01*
X318993919Y-165331675D01*
X318678169Y-165462463D01*
X318394002Y-165652337D01*
X318152337Y-165894002D01*
X317962463Y-166178169D01*
X317831675Y-166493919D01*
X317765000Y-166829117D01*
X317765000Y-167170883D01*
X317831675Y-167506081D01*
X317857286Y-167567912D01*
X315645199Y-169780000D01*
X313477506Y-169780000D01*
X313459287Y-169752733D01*
X313287267Y-169580713D01*
X313084992Y-169445557D01*
X312902471Y-169369954D01*
X313084907Y-169294396D01*
X313287174Y-169159258D01*
X313459191Y-168987256D01*
X313594346Y-168785000D01*
X313687446Y-168560263D01*
X313734913Y-168321681D01*
X313579994Y-168127000D01*
X312627000Y-168127000D01*
X312627000Y-168147000D01*
X312373000Y-168147000D01*
X312373000Y-168127000D01*
X311697765Y-168127000D01*
X311590236Y-168082460D01*
X311351637Y-168035000D01*
X311108363Y-168035000D01*
X310869764Y-168082460D01*
X310645008Y-168175557D01*
X310442733Y-168310713D01*
X310270713Y-168482733D01*
X310252494Y-168510000D01*
X296267325Y-168510000D01*
X296230000Y-168506324D01*
X296192675Y-168510000D01*
X296192667Y-168510000D01*
X296081014Y-168520997D01*
X295937753Y-168564454D01*
X295805724Y-168635026D01*
X295689999Y-168729999D01*
X295666201Y-168758997D01*
X295323886Y-169101312D01*
X295141335Y-169065000D01*
X294858665Y-169065000D01*
X294581426Y-169120147D01*
X294320273Y-169228320D01*
X294085241Y-169385363D01*
X293885363Y-169585241D01*
X293728320Y-169820273D01*
X293620147Y-170081426D01*
X293565000Y-170358665D01*
X293565000Y-170641335D01*
X293620147Y-170918574D01*
X293728320Y-171179727D01*
X293885363Y-171414759D01*
X294085241Y-171614637D01*
X294320273Y-171771680D01*
X294581426Y-171879853D01*
X294858665Y-171935000D01*
X295141335Y-171935000D01*
X295418574Y-171879853D01*
X295679727Y-171771680D01*
X295914759Y-171614637D01*
X296114637Y-171414759D01*
X296271680Y-171179727D01*
X296379853Y-170918574D01*
X296435000Y-170641335D01*
X296435000Y-170358665D01*
X296398688Y-170176114D01*
X296544802Y-170030000D01*
X310252494Y-170030000D01*
X310270713Y-170057267D01*
X310442733Y-170229287D01*
X310470000Y-170247506D01*
X310470001Y-172814080D01*
X310466324Y-172851412D01*
X310480998Y-173000397D01*
X310524454Y-173143658D01*
X310595026Y-173275688D01*
X310655376Y-173349224D01*
X310690000Y-173391413D01*
X310718998Y-173415211D01*
X316618786Y-179315000D01*
X100685000Y-179315000D01*
X100685000Y-174622285D01*
X101165000Y-174622285D01*
X101165000Y-175377715D01*
X101312377Y-176118628D01*
X101601467Y-176816554D01*
X102021161Y-177444670D01*
X102555330Y-177978839D01*
X103183446Y-178398533D01*
X103881372Y-178687623D01*
X104622285Y-178835000D01*
X105377715Y-178835000D01*
X106118628Y-178687623D01*
X106816554Y-178398533D01*
X107444670Y-177978839D01*
X107978839Y-177444670D01*
X108398533Y-176816554D01*
X108687623Y-176118628D01*
X108835000Y-175377715D01*
X108835000Y-174622285D01*
X231165000Y-174622285D01*
X231165000Y-175377715D01*
X231312377Y-176118628D01*
X231601467Y-176816554D01*
X232021161Y-177444670D01*
X232555330Y-177978839D01*
X233183446Y-178398533D01*
X233881372Y-178687623D01*
X234622285Y-178835000D01*
X235377715Y-178835000D01*
X236118628Y-178687623D01*
X236816554Y-178398533D01*
X237444670Y-177978839D01*
X237978839Y-177444670D01*
X238398533Y-176816554D01*
X238687623Y-176118628D01*
X238835000Y-175377715D01*
X238835000Y-174622285D01*
X238687623Y-173881372D01*
X238398533Y-173183446D01*
X237978839Y-172555330D01*
X237444670Y-172021161D01*
X236816554Y-171601467D01*
X236118628Y-171312377D01*
X235377715Y-171165000D01*
X234622285Y-171165000D01*
X233881372Y-171312377D01*
X233183446Y-171601467D01*
X232555330Y-172021161D01*
X232021161Y-172555330D01*
X231601467Y-173183446D01*
X231312377Y-173881372D01*
X231165000Y-174622285D01*
X108835000Y-174622285D01*
X108687623Y-173881372D01*
X108398533Y-173183446D01*
X107978839Y-172555330D01*
X107444670Y-172021161D01*
X106816554Y-171601467D01*
X106118628Y-171312377D01*
X105377715Y-171165000D01*
X104622285Y-171165000D01*
X103881372Y-171312377D01*
X103183446Y-171601467D01*
X102555330Y-172021161D01*
X102021161Y-172555330D01*
X101601467Y-173183446D01*
X101312377Y-173881372D01*
X101165000Y-174622285D01*
X100685000Y-174622285D01*
X100685000Y-154622285D01*
X101165000Y-154622285D01*
X101165000Y-155377715D01*
X101312377Y-156118628D01*
X101601467Y-156816554D01*
X102021161Y-157444670D01*
X102555330Y-157978839D01*
X103183446Y-158398533D01*
X103881372Y-158687623D01*
X104622285Y-158835000D01*
X105377715Y-158835000D01*
X106118628Y-158687623D01*
X106816554Y-158398533D01*
X106890350Y-158349224D01*
X176250381Y-158349224D01*
X176382317Y-158644312D01*
X176723045Y-158815159D01*
X177090557Y-158916250D01*
X177470729Y-158943701D01*
X177848951Y-158896457D01*
X178210690Y-158776333D01*
X178457683Y-158644312D01*
X178589619Y-158349224D01*
X177420000Y-157179605D01*
X176250381Y-158349224D01*
X106890350Y-158349224D01*
X107444670Y-157978839D01*
X107978839Y-157444670D01*
X108242062Y-157050729D01*
X175476299Y-157050729D01*
X175523543Y-157428951D01*
X175643667Y-157790690D01*
X175775688Y-158037683D01*
X176070776Y-158169619D01*
X177240395Y-157000000D01*
X177599605Y-157000000D01*
X178769224Y-158169619D01*
X179064312Y-158037683D01*
X179235159Y-157696955D01*
X179336250Y-157329443D01*
X179363701Y-156949271D01*
X179316457Y-156571049D01*
X179196333Y-156209310D01*
X179064312Y-155962317D01*
X178769224Y-155830381D01*
X177599605Y-157000000D01*
X177240395Y-157000000D01*
X176070776Y-155830381D01*
X175775688Y-155962317D01*
X175604841Y-156303045D01*
X175503750Y-156670557D01*
X175476299Y-157050729D01*
X108242062Y-157050729D01*
X108398533Y-156816554D01*
X108687623Y-156118628D01*
X108780684Y-155650776D01*
X176250381Y-155650776D01*
X177420000Y-156820395D01*
X178589619Y-155650776D01*
X178457683Y-155355688D01*
X178116955Y-155184841D01*
X177749443Y-155083750D01*
X177369271Y-155056299D01*
X176991049Y-155103543D01*
X176629310Y-155223667D01*
X176382317Y-155355688D01*
X176250381Y-155650776D01*
X108780684Y-155650776D01*
X108835000Y-155377715D01*
X108835000Y-154622285D01*
X243665000Y-154622285D01*
X243665000Y-155377715D01*
X243812377Y-156118628D01*
X244101467Y-156816554D01*
X244521161Y-157444670D01*
X245055330Y-157978839D01*
X245683446Y-158398533D01*
X246381372Y-158687623D01*
X247122285Y-158835000D01*
X247877715Y-158835000D01*
X248618628Y-158687623D01*
X249316554Y-158398533D01*
X249390350Y-158349224D01*
X266250381Y-158349224D01*
X266382317Y-158644312D01*
X266723045Y-158815159D01*
X267090557Y-158916250D01*
X267470729Y-158943701D01*
X267848951Y-158896457D01*
X268210690Y-158776333D01*
X268457683Y-158644312D01*
X268589619Y-158349224D01*
X267420000Y-157179605D01*
X266250381Y-158349224D01*
X249390350Y-158349224D01*
X249944670Y-157978839D01*
X250478839Y-157444670D01*
X250742062Y-157050729D01*
X265476299Y-157050729D01*
X265523543Y-157428951D01*
X265643667Y-157790690D01*
X265775688Y-158037683D01*
X266070776Y-158169619D01*
X267240395Y-157000000D01*
X267599605Y-157000000D01*
X268769224Y-158169619D01*
X269064312Y-158037683D01*
X269235159Y-157696955D01*
X269336250Y-157329443D01*
X269363701Y-156949271D01*
X269316457Y-156571049D01*
X269196333Y-156209310D01*
X269064312Y-155962317D01*
X268769224Y-155830381D01*
X267599605Y-157000000D01*
X267240395Y-157000000D01*
X266070776Y-155830381D01*
X265775688Y-155962317D01*
X265604841Y-156303045D01*
X265503750Y-156670557D01*
X265476299Y-157050729D01*
X250742062Y-157050729D01*
X250898533Y-156816554D01*
X251187623Y-156118628D01*
X251280684Y-155650776D01*
X266250381Y-155650776D01*
X267420000Y-156820395D01*
X268589619Y-155650776D01*
X268457683Y-155355688D01*
X268116955Y-155184841D01*
X267749443Y-155083750D01*
X267369271Y-155056299D01*
X266991049Y-155103543D01*
X266629310Y-155223667D01*
X266382317Y-155355688D01*
X266250381Y-155650776D01*
X251280684Y-155650776D01*
X251335000Y-155377715D01*
X251335000Y-154622285D01*
X369665000Y-154622285D01*
X369665000Y-155377715D01*
X369812377Y-156118628D01*
X370101467Y-156816554D01*
X370521161Y-157444670D01*
X371055330Y-157978839D01*
X371683446Y-158398533D01*
X372381372Y-158687623D01*
X373122285Y-158835000D01*
X373877715Y-158835000D01*
X374618628Y-158687623D01*
X375316554Y-158398533D01*
X375390350Y-158349224D01*
X446250381Y-158349224D01*
X446382317Y-158644312D01*
X446723045Y-158815159D01*
X447090557Y-158916250D01*
X447470729Y-158943701D01*
X447848951Y-158896457D01*
X448210690Y-158776333D01*
X448457683Y-158644312D01*
X448589619Y-158349224D01*
X447420000Y-157179605D01*
X446250381Y-158349224D01*
X375390350Y-158349224D01*
X375944670Y-157978839D01*
X376478839Y-157444670D01*
X376742062Y-157050729D01*
X445476299Y-157050729D01*
X445523543Y-157428951D01*
X445643667Y-157790690D01*
X445775688Y-158037683D01*
X446070776Y-158169619D01*
X447240395Y-157000000D01*
X447599605Y-157000000D01*
X448769224Y-158169619D01*
X449064312Y-158037683D01*
X449235159Y-157696955D01*
X449336250Y-157329443D01*
X449363701Y-156949271D01*
X449316457Y-156571049D01*
X449196333Y-156209310D01*
X449064312Y-155962317D01*
X448769224Y-155830381D01*
X447599605Y-157000000D01*
X447240395Y-157000000D01*
X446070776Y-155830381D01*
X445775688Y-155962317D01*
X445604841Y-156303045D01*
X445503750Y-156670557D01*
X445476299Y-157050729D01*
X376742062Y-157050729D01*
X376898533Y-156816554D01*
X377187623Y-156118628D01*
X377280684Y-155650776D01*
X446250381Y-155650776D01*
X447420000Y-156820395D01*
X448589619Y-155650776D01*
X448457683Y-155355688D01*
X448116955Y-155184841D01*
X447749443Y-155083750D01*
X447369271Y-155056299D01*
X446991049Y-155103543D01*
X446629310Y-155223667D01*
X446382317Y-155355688D01*
X446250381Y-155650776D01*
X377280684Y-155650776D01*
X377335000Y-155377715D01*
X377335000Y-154622285D01*
X491165000Y-154622285D01*
X491165000Y-155377715D01*
X491312377Y-156118628D01*
X491601467Y-156816554D01*
X492021161Y-157444670D01*
X492555330Y-157978839D01*
X493183446Y-158398533D01*
X493881372Y-158687623D01*
X494622285Y-158835000D01*
X495377715Y-158835000D01*
X496118628Y-158687623D01*
X496816554Y-158398533D01*
X497444670Y-157978839D01*
X497978839Y-157444670D01*
X498398533Y-156816554D01*
X498687623Y-156118628D01*
X498835000Y-155377715D01*
X498835000Y-154622285D01*
X498687623Y-153881372D01*
X498398533Y-153183446D01*
X497978839Y-152555330D01*
X497444670Y-152021161D01*
X496816554Y-151601467D01*
X496118628Y-151312377D01*
X495377715Y-151165000D01*
X494622285Y-151165000D01*
X493881372Y-151312377D01*
X493183446Y-151601467D01*
X492555330Y-152021161D01*
X492021161Y-152555330D01*
X491601467Y-153183446D01*
X491312377Y-153881372D01*
X491165000Y-154622285D01*
X377335000Y-154622285D01*
X377187623Y-153881372D01*
X376898533Y-153183446D01*
X376478839Y-152555330D01*
X375944670Y-152021161D01*
X375316554Y-151601467D01*
X374618628Y-151312377D01*
X373877715Y-151165000D01*
X373122285Y-151165000D01*
X372381372Y-151312377D01*
X371683446Y-151601467D01*
X371055330Y-152021161D01*
X370521161Y-152555330D01*
X370101467Y-153183446D01*
X369812377Y-153881372D01*
X369665000Y-154622285D01*
X251335000Y-154622285D01*
X251187623Y-153881372D01*
X250898533Y-153183446D01*
X250478839Y-152555330D01*
X249944670Y-152021161D01*
X249316554Y-151601467D01*
X248618628Y-151312377D01*
X247877715Y-151165000D01*
X247122285Y-151165000D01*
X246381372Y-151312377D01*
X245683446Y-151601467D01*
X245055330Y-152021161D01*
X244521161Y-152555330D01*
X244101467Y-153183446D01*
X243812377Y-153881372D01*
X243665000Y-154622285D01*
X108835000Y-154622285D01*
X108687623Y-153881372D01*
X108398533Y-153183446D01*
X107978839Y-152555330D01*
X107444670Y-152021161D01*
X106816554Y-151601467D01*
X106118628Y-151312377D01*
X105377715Y-151165000D01*
X104622285Y-151165000D01*
X103881372Y-151312377D01*
X103183446Y-151601467D01*
X102555330Y-152021161D01*
X102021161Y-152555330D01*
X101601467Y-153183446D01*
X101312377Y-153881372D01*
X101165000Y-154622285D01*
X100685000Y-154622285D01*
X100685000Y-150685000D01*
X499315000Y-150685000D01*
X499315001Y-179315000D01*
M02*
