%TF.GenerationSoftware,KiCad,Pcbnew,5.1.6+dfsg1-1*%
%TF.CreationDate,2021-04-08T11:29:05+02:00*%
%TF.ProjectId,gsm-rtc-board,67736d2d-7274-4632-9d62-6f6172642e6b,rev?*%
%TF.SameCoordinates,Original*%
%TF.FileFunction,Copper,L2,Bot*%
%TF.FilePolarity,Positive*%
%FSLAX46Y46*%
G04 Gerber Fmt 4.6, Leading zero omitted, Abs format (unit mm)*
G04 Created by KiCad (PCBNEW 5.1.6+dfsg1-1) date 2021-04-08 11:29:05*
%MOMM*%
%LPD*%
G01*
G04 APERTURE LIST*
%TA.AperFunction,ComponentPad*%
%ADD10O,1.700000X1.700000*%
%TD*%
%TA.AperFunction,ComponentPad*%
%ADD11R,1.700000X1.700000*%
%TD*%
%TA.AperFunction,ComponentPad*%
%ADD12C,6.400000*%
%TD*%
%TA.AperFunction,ComponentPad*%
%ADD13C,2.600000*%
%TD*%
%TA.AperFunction,ComponentPad*%
%ADD14R,2.600000X2.600000*%
%TD*%
%TA.AperFunction,ComponentPad*%
%ADD15O,2.200000X2.200000*%
%TD*%
%TA.AperFunction,ComponentPad*%
%ADD16R,2.200000X2.200000*%
%TD*%
%TA.AperFunction,ComponentPad*%
%ADD17C,1.600000*%
%TD*%
%TA.AperFunction,ComponentPad*%
%ADD18R,1.600000X1.600000*%
%TD*%
%TA.AperFunction,Conductor*%
%ADD19C,1.000000*%
%TD*%
%TA.AperFunction,Conductor*%
%ADD20C,0.254000*%
%TD*%
G04 APERTURE END LIST*
D10*
%TO.P,J4,4*%
%TO.N,GND*%
X77760000Y-108400000D03*
%TO.P,J4,3*%
%TO.N,+5V*%
X80300000Y-108400000D03*
%TO.P,J4,2*%
%TO.N,Net-(J3-Pad3)*%
X82840000Y-108400000D03*
D11*
%TO.P,J4,1*%
%TO.N,Net-(J3-Pad5)*%
X85380000Y-108400000D03*
%TD*%
D12*
%TO.P,REF\u002A\u002A,1*%
%TO.N,N/C*%
X74000000Y-146100000D03*
%TD*%
%TO.P,REF\u002A\u002A,1*%
%TO.N,N/C*%
X109000000Y-146100000D03*
%TD*%
%TO.P,REF\u002A\u002A,1*%
%TO.N,N/C*%
X109000000Y-68900000D03*
%TD*%
%TO.P,REF\u002A\u002A,1*%
%TO.N,N/C*%
X74000000Y-68900000D03*
%TD*%
D10*
%TO.P,REF\u002A\u002A,6*%
%TO.N,N/C*%
X99800000Y-90740000D03*
%TO.P,REF\u002A\u002A,5*%
X99800000Y-88200000D03*
%TO.P,REF\u002A\u002A,4*%
X99800000Y-85660000D03*
%TO.P,REF\u002A\u002A,3*%
X99800000Y-83120000D03*
%TO.P,REF\u002A\u002A,2*%
X99800000Y-80580000D03*
D11*
%TO.P,REF\u002A\u002A,1*%
X99800000Y-78040000D03*
%TD*%
D10*
%TO.P,J2,6*%
%TO.N,GND*%
X77800000Y-88200000D03*
%TO.P,J2,5*%
%TO.N,Net-(J2-Pad5)*%
X77800000Y-85660000D03*
%TO.P,J2,4*%
%TO.N,Net-(J2-Pad4)*%
X77800000Y-83120000D03*
%TO.P,J2,3*%
%TO.N,N/C*%
X77800000Y-80580000D03*
%TO.P,J2,2*%
%TO.N,Net-(C1-Pad1)*%
X77800000Y-78040000D03*
D11*
%TO.P,J2,1*%
%TO.N,N/C*%
X77800000Y-75500000D03*
%TD*%
D10*
%TO.P,J3,40*%
%TO.N,N/C*%
X109600000Y-129140000D03*
%TO.P,J3,39*%
%TO.N,GND*%
X107060000Y-129140000D03*
%TO.P,J3,38*%
%TO.N,N/C*%
X109600000Y-126600000D03*
%TO.P,J3,37*%
X107060000Y-126600000D03*
%TO.P,J3,36*%
X109600000Y-124060000D03*
%TO.P,J3,35*%
X107060000Y-124060000D03*
%TO.P,J3,34*%
%TO.N,GND*%
X109600000Y-121520000D03*
%TO.P,J3,33*%
%TO.N,N/C*%
X107060000Y-121520000D03*
%TO.P,J3,32*%
X109600000Y-118980000D03*
%TO.P,J3,31*%
X107060000Y-118980000D03*
%TO.P,J3,30*%
%TO.N,GND*%
X109600000Y-116440000D03*
%TO.P,J3,29*%
%TO.N,N/C*%
X107060000Y-116440000D03*
%TO.P,J3,28*%
X109600000Y-113900000D03*
%TO.P,J3,27*%
X107060000Y-113900000D03*
%TO.P,J3,26*%
X109600000Y-111360000D03*
%TO.P,J3,25*%
%TO.N,GND*%
X107060000Y-111360000D03*
%TO.P,J3,24*%
%TO.N,N/C*%
X109600000Y-108820000D03*
%TO.P,J3,23*%
X107060000Y-108820000D03*
%TO.P,J3,22*%
X109600000Y-106280000D03*
%TO.P,J3,21*%
X107060000Y-106280000D03*
%TO.P,J3,20*%
%TO.N,GND*%
X109600000Y-103740000D03*
%TO.P,J3,19*%
%TO.N,N/C*%
X107060000Y-103740000D03*
%TO.P,J3,18*%
X109600000Y-101200000D03*
%TO.P,J3,17*%
X107060000Y-101200000D03*
%TO.P,J3,16*%
X109600000Y-98660000D03*
%TO.P,J3,15*%
X107060000Y-98660000D03*
%TO.P,J3,14*%
%TO.N,GND*%
X109600000Y-96120000D03*
%TO.P,J3,13*%
%TO.N,N/C*%
X107060000Y-96120000D03*
%TO.P,J3,12*%
X109600000Y-93580000D03*
%TO.P,J3,11*%
X107060000Y-93580000D03*
%TO.P,J3,10*%
%TO.N,Net-(J2-Pad5)*%
X109600000Y-91040000D03*
%TO.P,J3,9*%
%TO.N,GND*%
X107060000Y-91040000D03*
%TO.P,J3,8*%
%TO.N,Net-(J2-Pad4)*%
X109600000Y-88500000D03*
%TO.P,J3,7*%
%TO.N,N/C*%
X107060000Y-88500000D03*
%TO.P,J3,6*%
%TO.N,GND*%
X109600000Y-85960000D03*
%TO.P,J3,5*%
%TO.N,Net-(J3-Pad5)*%
X107060000Y-85960000D03*
%TO.P,J3,4*%
%TO.N,+5V*%
X109600000Y-83420000D03*
%TO.P,J3,3*%
%TO.N,Net-(J3-Pad3)*%
X107060000Y-83420000D03*
%TO.P,J3,2*%
%TO.N,+5V*%
X109600000Y-80880000D03*
D11*
%TO.P,J3,1*%
%TO.N,N/C*%
X107060000Y-80880000D03*
%TD*%
D13*
%TO.P,J1,2*%
%TO.N,GND*%
X101380000Y-142400000D03*
D14*
%TO.P,J1,1*%
%TO.N,+5V*%
X96300000Y-142400000D03*
%TD*%
D15*
%TO.P,D1,2*%
%TO.N,+5V*%
X99960000Y-100500000D03*
D16*
%TO.P,D1,1*%
%TO.N,Net-(C1-Pad1)*%
X89800000Y-100500000D03*
%TD*%
D17*
%TO.P,C1,2*%
%TO.N,GND*%
X77700000Y-99800000D03*
D18*
%TO.P,C1,1*%
%TO.N,Net-(C1-Pad1)*%
X77700000Y-97300000D03*
%TD*%
D19*
%TO.N,Net-(C1-Pad1)*%
X86600000Y-97300000D02*
X89800000Y-100500000D01*
X77700000Y-97300000D02*
X86600000Y-97300000D01*
X77800000Y-78040000D02*
X75860000Y-78040000D01*
X75860000Y-78040000D02*
X73600000Y-80300000D01*
X73600000Y-93200000D02*
X77700000Y-97300000D01*
X73600000Y-80300000D02*
X73600000Y-93200000D01*
%TO.N,+5V*%
X96300000Y-124598002D02*
X92301998Y-120600000D01*
X96300000Y-142400000D02*
X96300000Y-124598002D01*
X92301998Y-120600000D02*
X81900000Y-120600000D01*
X80300000Y-119000000D02*
X80300000Y-108400000D01*
X81900000Y-120600000D02*
X80300000Y-119000000D01*
X99960000Y-120938002D02*
X96300000Y-124598002D01*
X99960000Y-100500000D02*
X99960000Y-120938002D01*
X109600000Y-80880000D02*
X109600000Y-78700000D01*
X109600000Y-78700000D02*
X108400000Y-77500000D01*
X108400000Y-77500000D02*
X104700000Y-77500000D01*
X104700000Y-77500000D02*
X103300000Y-78900000D01*
X103300000Y-97160000D02*
X99960000Y-100500000D01*
X103300000Y-78900000D02*
X103300000Y-97160000D01*
X109600000Y-83420000D02*
X109600000Y-80880000D01*
%TD*%
D20*
%TO.N,GND*%
G36*
X106555330Y-65921161D02*
G01*
X106021161Y-66455330D01*
X105601467Y-67083446D01*
X105312377Y-67781372D01*
X105165000Y-68522285D01*
X105165000Y-69277715D01*
X105312377Y-70018628D01*
X105601467Y-70716554D01*
X106021161Y-71344670D01*
X106555330Y-71878839D01*
X107183446Y-72298533D01*
X107881372Y-72587623D01*
X108622285Y-72735000D01*
X109377715Y-72735000D01*
X110118628Y-72587623D01*
X110816554Y-72298533D01*
X111444670Y-71878839D01*
X111978839Y-71344670D01*
X112340001Y-70804153D01*
X112340000Y-144195845D01*
X111978839Y-143655330D01*
X111444670Y-143121161D01*
X110816554Y-142701467D01*
X110118628Y-142412377D01*
X109377715Y-142265000D01*
X108622285Y-142265000D01*
X107881372Y-142412377D01*
X107183446Y-142701467D01*
X106555330Y-143121161D01*
X106021161Y-143655330D01*
X105601467Y-144283446D01*
X105312377Y-144981372D01*
X105165000Y-145722285D01*
X105165000Y-146477715D01*
X105312377Y-147218628D01*
X105601467Y-147916554D01*
X106021161Y-148544670D01*
X106555330Y-149078839D01*
X106946185Y-149340000D01*
X76053815Y-149340000D01*
X76444670Y-149078839D01*
X76978839Y-148544670D01*
X77398533Y-147916554D01*
X77687623Y-147218628D01*
X77835000Y-146477715D01*
X77835000Y-145722285D01*
X77687623Y-144981372D01*
X77398533Y-144283446D01*
X76978839Y-143655330D01*
X76444670Y-143121161D01*
X75816554Y-142701467D01*
X75118628Y-142412377D01*
X74377715Y-142265000D01*
X73622285Y-142265000D01*
X72881372Y-142412377D01*
X72183446Y-142701467D01*
X71555330Y-143121161D01*
X71021161Y-143655330D01*
X70660000Y-144195845D01*
X70660000Y-135686323D01*
X71130497Y-135686323D01*
X71130497Y-136113677D01*
X71213870Y-136532821D01*
X71377412Y-136927645D01*
X71614837Y-137282977D01*
X71917023Y-137585163D01*
X72272355Y-137822588D01*
X72667179Y-137986130D01*
X73086323Y-138069503D01*
X73513677Y-138069503D01*
X73932821Y-137986130D01*
X74327645Y-137822588D01*
X74682977Y-137585163D01*
X74985163Y-137282977D01*
X75222588Y-136927645D01*
X75386130Y-136532821D01*
X75469503Y-136113677D01*
X75469503Y-135686323D01*
X88130497Y-135686323D01*
X88130497Y-136113677D01*
X88213870Y-136532821D01*
X88377412Y-136927645D01*
X88614837Y-137282977D01*
X88917023Y-137585163D01*
X89272355Y-137822588D01*
X89667179Y-137986130D01*
X90086323Y-138069503D01*
X90513677Y-138069503D01*
X90932821Y-137986130D01*
X91327645Y-137822588D01*
X91682977Y-137585163D01*
X91985163Y-137282977D01*
X92222588Y-136927645D01*
X92386130Y-136532821D01*
X92469503Y-136113677D01*
X92469503Y-135686323D01*
X92386130Y-135267179D01*
X92222588Y-134872355D01*
X91985163Y-134517023D01*
X91682977Y-134214837D01*
X91327645Y-133977412D01*
X90932821Y-133813870D01*
X90513677Y-133730497D01*
X90086323Y-133730497D01*
X89667179Y-133813870D01*
X89272355Y-133977412D01*
X88917023Y-134214837D01*
X88614837Y-134517023D01*
X88377412Y-134872355D01*
X88213870Y-135267179D01*
X88130497Y-135686323D01*
X75469503Y-135686323D01*
X75386130Y-135267179D01*
X75222588Y-134872355D01*
X74985163Y-134517023D01*
X74682977Y-134214837D01*
X74327645Y-133977412D01*
X73932821Y-133813870D01*
X73513677Y-133730497D01*
X73086323Y-133730497D01*
X72667179Y-133813870D01*
X72272355Y-133977412D01*
X71917023Y-134214837D01*
X71614837Y-134517023D01*
X71377412Y-134872355D01*
X71213870Y-135267179D01*
X71130497Y-135686323D01*
X70660000Y-135686323D01*
X70660000Y-108756891D01*
X76318519Y-108756891D01*
X76415843Y-109031252D01*
X76564822Y-109281355D01*
X76759731Y-109497588D01*
X76993080Y-109671641D01*
X77255901Y-109796825D01*
X77403110Y-109841476D01*
X77633000Y-109720155D01*
X77633000Y-108527000D01*
X76439186Y-108527000D01*
X76318519Y-108756891D01*
X70660000Y-108756891D01*
X70660000Y-108043109D01*
X76318519Y-108043109D01*
X76439186Y-108273000D01*
X77633000Y-108273000D01*
X77633000Y-107079845D01*
X77887000Y-107079845D01*
X77887000Y-108273000D01*
X77907000Y-108273000D01*
X77907000Y-108527000D01*
X77887000Y-108527000D01*
X77887000Y-109720155D01*
X78116890Y-109841476D01*
X78264099Y-109796825D01*
X78526920Y-109671641D01*
X78760269Y-109497588D01*
X78955178Y-109281355D01*
X79024805Y-109164466D01*
X79146525Y-109346632D01*
X79165001Y-109365108D01*
X79165000Y-118944248D01*
X79159509Y-119000000D01*
X79165000Y-119055751D01*
X79181423Y-119222498D01*
X79246324Y-119436446D01*
X79351716Y-119633623D01*
X79493551Y-119806449D01*
X79536864Y-119841995D01*
X81058013Y-121363146D01*
X81093551Y-121406449D01*
X81136854Y-121441987D01*
X81136856Y-121441989D01*
X81266377Y-121548284D01*
X81463553Y-121653676D01*
X81677501Y-121718577D01*
X81900000Y-121740491D01*
X81955752Y-121735000D01*
X91831867Y-121735000D01*
X95165001Y-125068136D01*
X95165000Y-140461928D01*
X95000000Y-140461928D01*
X94875518Y-140474188D01*
X94755820Y-140510498D01*
X94645506Y-140569463D01*
X94548815Y-140648815D01*
X94469463Y-140745506D01*
X94410498Y-140855820D01*
X94374188Y-140975518D01*
X94361928Y-141100000D01*
X94361928Y-143700000D01*
X94374188Y-143824482D01*
X94410498Y-143944180D01*
X94469463Y-144054494D01*
X94548815Y-144151185D01*
X94645506Y-144230537D01*
X94755820Y-144289502D01*
X94875518Y-144325812D01*
X95000000Y-144338072D01*
X97600000Y-144338072D01*
X97724482Y-144325812D01*
X97844180Y-144289502D01*
X97954494Y-144230537D01*
X98051185Y-144151185D01*
X98130537Y-144054494D01*
X98189502Y-143944180D01*
X98225812Y-143824482D01*
X98233224Y-143749224D01*
X100210381Y-143749224D01*
X100342317Y-144044312D01*
X100683045Y-144215159D01*
X101050557Y-144316250D01*
X101430729Y-144343701D01*
X101808951Y-144296457D01*
X102170690Y-144176333D01*
X102417683Y-144044312D01*
X102549619Y-143749224D01*
X101380000Y-142579605D01*
X100210381Y-143749224D01*
X98233224Y-143749224D01*
X98238072Y-143700000D01*
X98238072Y-142450729D01*
X99436299Y-142450729D01*
X99483543Y-142828951D01*
X99603667Y-143190690D01*
X99735688Y-143437683D01*
X100030776Y-143569619D01*
X101200395Y-142400000D01*
X101559605Y-142400000D01*
X102729224Y-143569619D01*
X103024312Y-143437683D01*
X103195159Y-143096955D01*
X103296250Y-142729443D01*
X103323701Y-142349271D01*
X103276457Y-141971049D01*
X103156333Y-141609310D01*
X103024312Y-141362317D01*
X102729224Y-141230381D01*
X101559605Y-142400000D01*
X101200395Y-142400000D01*
X100030776Y-141230381D01*
X99735688Y-141362317D01*
X99564841Y-141703045D01*
X99463750Y-142070557D01*
X99436299Y-142450729D01*
X98238072Y-142450729D01*
X98238072Y-141100000D01*
X98233225Y-141050776D01*
X100210381Y-141050776D01*
X101380000Y-142220395D01*
X102549619Y-141050776D01*
X102417683Y-140755688D01*
X102076955Y-140584841D01*
X101709443Y-140483750D01*
X101329271Y-140456299D01*
X100951049Y-140503543D01*
X100589310Y-140623667D01*
X100342317Y-140755688D01*
X100210381Y-141050776D01*
X98233225Y-141050776D01*
X98225812Y-140975518D01*
X98189502Y-140855820D01*
X98130537Y-140745506D01*
X98051185Y-140648815D01*
X97954494Y-140569463D01*
X97844180Y-140510498D01*
X97724482Y-140474188D01*
X97600000Y-140461928D01*
X97435000Y-140461928D01*
X97435000Y-129496890D01*
X105618524Y-129496890D01*
X105663175Y-129644099D01*
X105788359Y-129906920D01*
X105962412Y-130140269D01*
X106178645Y-130335178D01*
X106428748Y-130484157D01*
X106703109Y-130581481D01*
X106933000Y-130460814D01*
X106933000Y-129267000D01*
X105739845Y-129267000D01*
X105618524Y-129496890D01*
X97435000Y-129496890D01*
X97435000Y-125068133D01*
X100723146Y-121779989D01*
X100766449Y-121744451D01*
X100840947Y-121653676D01*
X100908284Y-121571625D01*
X101013676Y-121374449D01*
X101078577Y-121160501D01*
X101100491Y-120938002D01*
X101095000Y-120882250D01*
X101095000Y-101818661D01*
X101307663Y-101605998D01*
X101497537Y-101321831D01*
X101628325Y-101006081D01*
X101695000Y-100670883D01*
X101695000Y-100370131D01*
X104063141Y-98001991D01*
X104106449Y-97966449D01*
X104248284Y-97793623D01*
X104353676Y-97596447D01*
X104418577Y-97382499D01*
X104435000Y-97215752D01*
X104435000Y-97215743D01*
X104440490Y-97160001D01*
X104435000Y-97104259D01*
X104435000Y-79370131D01*
X105170132Y-78635000D01*
X107929869Y-78635000D01*
X108465001Y-79170132D01*
X108465001Y-79721273D01*
X108440537Y-79675506D01*
X108361185Y-79578815D01*
X108264494Y-79499463D01*
X108154180Y-79440498D01*
X108034482Y-79404188D01*
X107910000Y-79391928D01*
X106210000Y-79391928D01*
X106085518Y-79404188D01*
X105965820Y-79440498D01*
X105855506Y-79499463D01*
X105758815Y-79578815D01*
X105679463Y-79675506D01*
X105620498Y-79785820D01*
X105584188Y-79905518D01*
X105571928Y-80030000D01*
X105571928Y-81730000D01*
X105584188Y-81854482D01*
X105620498Y-81974180D01*
X105679463Y-82084494D01*
X105758815Y-82181185D01*
X105855506Y-82260537D01*
X105965820Y-82319502D01*
X106038380Y-82341513D01*
X105906525Y-82473368D01*
X105744010Y-82716589D01*
X105632068Y-82986842D01*
X105575000Y-83273740D01*
X105575000Y-83566260D01*
X105632068Y-83853158D01*
X105744010Y-84123411D01*
X105906525Y-84366632D01*
X106113368Y-84573475D01*
X106287760Y-84690000D01*
X106113368Y-84806525D01*
X105906525Y-85013368D01*
X105744010Y-85256589D01*
X105632068Y-85526842D01*
X105575000Y-85813740D01*
X105575000Y-86106260D01*
X105632068Y-86393158D01*
X105744010Y-86663411D01*
X105906525Y-86906632D01*
X106113368Y-87113475D01*
X106287760Y-87230000D01*
X106113368Y-87346525D01*
X105906525Y-87553368D01*
X105744010Y-87796589D01*
X105632068Y-88066842D01*
X105575000Y-88353740D01*
X105575000Y-88646260D01*
X105632068Y-88933158D01*
X105744010Y-89203411D01*
X105906525Y-89446632D01*
X106113368Y-89653475D01*
X106295534Y-89775195D01*
X106178645Y-89844822D01*
X105962412Y-90039731D01*
X105788359Y-90273080D01*
X105663175Y-90535901D01*
X105618524Y-90683110D01*
X105739845Y-90913000D01*
X106933000Y-90913000D01*
X106933000Y-90893000D01*
X107187000Y-90893000D01*
X107187000Y-90913000D01*
X107207000Y-90913000D01*
X107207000Y-91167000D01*
X107187000Y-91167000D01*
X107187000Y-91187000D01*
X106933000Y-91187000D01*
X106933000Y-91167000D01*
X105739845Y-91167000D01*
X105618524Y-91396890D01*
X105663175Y-91544099D01*
X105788359Y-91806920D01*
X105962412Y-92040269D01*
X106178645Y-92235178D01*
X106295534Y-92304805D01*
X106113368Y-92426525D01*
X105906525Y-92633368D01*
X105744010Y-92876589D01*
X105632068Y-93146842D01*
X105575000Y-93433740D01*
X105575000Y-93726260D01*
X105632068Y-94013158D01*
X105744010Y-94283411D01*
X105906525Y-94526632D01*
X106113368Y-94733475D01*
X106287760Y-94850000D01*
X106113368Y-94966525D01*
X105906525Y-95173368D01*
X105744010Y-95416589D01*
X105632068Y-95686842D01*
X105575000Y-95973740D01*
X105575000Y-96266260D01*
X105632068Y-96553158D01*
X105744010Y-96823411D01*
X105906525Y-97066632D01*
X106113368Y-97273475D01*
X106287760Y-97390000D01*
X106113368Y-97506525D01*
X105906525Y-97713368D01*
X105744010Y-97956589D01*
X105632068Y-98226842D01*
X105575000Y-98513740D01*
X105575000Y-98806260D01*
X105632068Y-99093158D01*
X105744010Y-99363411D01*
X105906525Y-99606632D01*
X106113368Y-99813475D01*
X106287760Y-99930000D01*
X106113368Y-100046525D01*
X105906525Y-100253368D01*
X105744010Y-100496589D01*
X105632068Y-100766842D01*
X105575000Y-101053740D01*
X105575000Y-101346260D01*
X105632068Y-101633158D01*
X105744010Y-101903411D01*
X105906525Y-102146632D01*
X106113368Y-102353475D01*
X106287760Y-102470000D01*
X106113368Y-102586525D01*
X105906525Y-102793368D01*
X105744010Y-103036589D01*
X105632068Y-103306842D01*
X105575000Y-103593740D01*
X105575000Y-103886260D01*
X105632068Y-104173158D01*
X105744010Y-104443411D01*
X105906525Y-104686632D01*
X106113368Y-104893475D01*
X106287760Y-105010000D01*
X106113368Y-105126525D01*
X105906525Y-105333368D01*
X105744010Y-105576589D01*
X105632068Y-105846842D01*
X105575000Y-106133740D01*
X105575000Y-106426260D01*
X105632068Y-106713158D01*
X105744010Y-106983411D01*
X105906525Y-107226632D01*
X106113368Y-107433475D01*
X106287760Y-107550000D01*
X106113368Y-107666525D01*
X105906525Y-107873368D01*
X105744010Y-108116589D01*
X105632068Y-108386842D01*
X105575000Y-108673740D01*
X105575000Y-108966260D01*
X105632068Y-109253158D01*
X105744010Y-109523411D01*
X105906525Y-109766632D01*
X106113368Y-109973475D01*
X106295534Y-110095195D01*
X106178645Y-110164822D01*
X105962412Y-110359731D01*
X105788359Y-110593080D01*
X105663175Y-110855901D01*
X105618524Y-111003110D01*
X105739845Y-111233000D01*
X106933000Y-111233000D01*
X106933000Y-111213000D01*
X107187000Y-111213000D01*
X107187000Y-111233000D01*
X107207000Y-111233000D01*
X107207000Y-111487000D01*
X107187000Y-111487000D01*
X107187000Y-111507000D01*
X106933000Y-111507000D01*
X106933000Y-111487000D01*
X105739845Y-111487000D01*
X105618524Y-111716890D01*
X105663175Y-111864099D01*
X105788359Y-112126920D01*
X105962412Y-112360269D01*
X106178645Y-112555178D01*
X106295534Y-112624805D01*
X106113368Y-112746525D01*
X105906525Y-112953368D01*
X105744010Y-113196589D01*
X105632068Y-113466842D01*
X105575000Y-113753740D01*
X105575000Y-114046260D01*
X105632068Y-114333158D01*
X105744010Y-114603411D01*
X105906525Y-114846632D01*
X106113368Y-115053475D01*
X106287760Y-115170000D01*
X106113368Y-115286525D01*
X105906525Y-115493368D01*
X105744010Y-115736589D01*
X105632068Y-116006842D01*
X105575000Y-116293740D01*
X105575000Y-116586260D01*
X105632068Y-116873158D01*
X105744010Y-117143411D01*
X105906525Y-117386632D01*
X106113368Y-117593475D01*
X106287760Y-117710000D01*
X106113368Y-117826525D01*
X105906525Y-118033368D01*
X105744010Y-118276589D01*
X105632068Y-118546842D01*
X105575000Y-118833740D01*
X105575000Y-119126260D01*
X105632068Y-119413158D01*
X105744010Y-119683411D01*
X105906525Y-119926632D01*
X106113368Y-120133475D01*
X106287760Y-120250000D01*
X106113368Y-120366525D01*
X105906525Y-120573368D01*
X105744010Y-120816589D01*
X105632068Y-121086842D01*
X105575000Y-121373740D01*
X105575000Y-121666260D01*
X105632068Y-121953158D01*
X105744010Y-122223411D01*
X105906525Y-122466632D01*
X106113368Y-122673475D01*
X106287760Y-122790000D01*
X106113368Y-122906525D01*
X105906525Y-123113368D01*
X105744010Y-123356589D01*
X105632068Y-123626842D01*
X105575000Y-123913740D01*
X105575000Y-124206260D01*
X105632068Y-124493158D01*
X105744010Y-124763411D01*
X105906525Y-125006632D01*
X106113368Y-125213475D01*
X106287760Y-125330000D01*
X106113368Y-125446525D01*
X105906525Y-125653368D01*
X105744010Y-125896589D01*
X105632068Y-126166842D01*
X105575000Y-126453740D01*
X105575000Y-126746260D01*
X105632068Y-127033158D01*
X105744010Y-127303411D01*
X105906525Y-127546632D01*
X106113368Y-127753475D01*
X106295534Y-127875195D01*
X106178645Y-127944822D01*
X105962412Y-128139731D01*
X105788359Y-128373080D01*
X105663175Y-128635901D01*
X105618524Y-128783110D01*
X105739845Y-129013000D01*
X106933000Y-129013000D01*
X106933000Y-128993000D01*
X107187000Y-128993000D01*
X107187000Y-129013000D01*
X107207000Y-129013000D01*
X107207000Y-129267000D01*
X107187000Y-129267000D01*
X107187000Y-130460814D01*
X107416891Y-130581481D01*
X107691252Y-130484157D01*
X107941355Y-130335178D01*
X108157588Y-130140269D01*
X108328900Y-129910594D01*
X108446525Y-130086632D01*
X108653368Y-130293475D01*
X108896589Y-130455990D01*
X109166842Y-130567932D01*
X109453740Y-130625000D01*
X109746260Y-130625000D01*
X110033158Y-130567932D01*
X110303411Y-130455990D01*
X110546632Y-130293475D01*
X110753475Y-130086632D01*
X110915990Y-129843411D01*
X111027932Y-129573158D01*
X111085000Y-129286260D01*
X111085000Y-128993740D01*
X111027932Y-128706842D01*
X110915990Y-128436589D01*
X110753475Y-128193368D01*
X110546632Y-127986525D01*
X110372240Y-127870000D01*
X110546632Y-127753475D01*
X110753475Y-127546632D01*
X110915990Y-127303411D01*
X111027932Y-127033158D01*
X111085000Y-126746260D01*
X111085000Y-126453740D01*
X111027932Y-126166842D01*
X110915990Y-125896589D01*
X110753475Y-125653368D01*
X110546632Y-125446525D01*
X110372240Y-125330000D01*
X110546632Y-125213475D01*
X110753475Y-125006632D01*
X110915990Y-124763411D01*
X111027932Y-124493158D01*
X111085000Y-124206260D01*
X111085000Y-123913740D01*
X111027932Y-123626842D01*
X110915990Y-123356589D01*
X110753475Y-123113368D01*
X110546632Y-122906525D01*
X110364466Y-122784805D01*
X110481355Y-122715178D01*
X110697588Y-122520269D01*
X110871641Y-122286920D01*
X110996825Y-122024099D01*
X111041476Y-121876890D01*
X110920155Y-121647000D01*
X109727000Y-121647000D01*
X109727000Y-121667000D01*
X109473000Y-121667000D01*
X109473000Y-121647000D01*
X109453000Y-121647000D01*
X109453000Y-121393000D01*
X109473000Y-121393000D01*
X109473000Y-121373000D01*
X109727000Y-121373000D01*
X109727000Y-121393000D01*
X110920155Y-121393000D01*
X111041476Y-121163110D01*
X110996825Y-121015901D01*
X110871641Y-120753080D01*
X110697588Y-120519731D01*
X110481355Y-120324822D01*
X110364466Y-120255195D01*
X110546632Y-120133475D01*
X110753475Y-119926632D01*
X110915990Y-119683411D01*
X111027932Y-119413158D01*
X111085000Y-119126260D01*
X111085000Y-118833740D01*
X111027932Y-118546842D01*
X110915990Y-118276589D01*
X110753475Y-118033368D01*
X110546632Y-117826525D01*
X110364466Y-117704805D01*
X110481355Y-117635178D01*
X110697588Y-117440269D01*
X110871641Y-117206920D01*
X110996825Y-116944099D01*
X111041476Y-116796890D01*
X110920155Y-116567000D01*
X109727000Y-116567000D01*
X109727000Y-116587000D01*
X109473000Y-116587000D01*
X109473000Y-116567000D01*
X109453000Y-116567000D01*
X109453000Y-116313000D01*
X109473000Y-116313000D01*
X109473000Y-116293000D01*
X109727000Y-116293000D01*
X109727000Y-116313000D01*
X110920155Y-116313000D01*
X111041476Y-116083110D01*
X110996825Y-115935901D01*
X110871641Y-115673080D01*
X110697588Y-115439731D01*
X110481355Y-115244822D01*
X110364466Y-115175195D01*
X110546632Y-115053475D01*
X110753475Y-114846632D01*
X110915990Y-114603411D01*
X111027932Y-114333158D01*
X111085000Y-114046260D01*
X111085000Y-113753740D01*
X111027932Y-113466842D01*
X110915990Y-113196589D01*
X110753475Y-112953368D01*
X110546632Y-112746525D01*
X110372240Y-112630000D01*
X110546632Y-112513475D01*
X110753475Y-112306632D01*
X110915990Y-112063411D01*
X111027932Y-111793158D01*
X111085000Y-111506260D01*
X111085000Y-111213740D01*
X111027932Y-110926842D01*
X110915990Y-110656589D01*
X110753475Y-110413368D01*
X110546632Y-110206525D01*
X110372240Y-110090000D01*
X110546632Y-109973475D01*
X110753475Y-109766632D01*
X110915990Y-109523411D01*
X111027932Y-109253158D01*
X111085000Y-108966260D01*
X111085000Y-108673740D01*
X111027932Y-108386842D01*
X110915990Y-108116589D01*
X110753475Y-107873368D01*
X110546632Y-107666525D01*
X110372240Y-107550000D01*
X110546632Y-107433475D01*
X110753475Y-107226632D01*
X110915990Y-106983411D01*
X111027932Y-106713158D01*
X111085000Y-106426260D01*
X111085000Y-106133740D01*
X111027932Y-105846842D01*
X110915990Y-105576589D01*
X110753475Y-105333368D01*
X110546632Y-105126525D01*
X110364466Y-105004805D01*
X110481355Y-104935178D01*
X110697588Y-104740269D01*
X110871641Y-104506920D01*
X110996825Y-104244099D01*
X111041476Y-104096890D01*
X110920155Y-103867000D01*
X109727000Y-103867000D01*
X109727000Y-103887000D01*
X109473000Y-103887000D01*
X109473000Y-103867000D01*
X109453000Y-103867000D01*
X109453000Y-103613000D01*
X109473000Y-103613000D01*
X109473000Y-103593000D01*
X109727000Y-103593000D01*
X109727000Y-103613000D01*
X110920155Y-103613000D01*
X111041476Y-103383110D01*
X110996825Y-103235901D01*
X110871641Y-102973080D01*
X110697588Y-102739731D01*
X110481355Y-102544822D01*
X110364466Y-102475195D01*
X110546632Y-102353475D01*
X110753475Y-102146632D01*
X110915990Y-101903411D01*
X111027932Y-101633158D01*
X111085000Y-101346260D01*
X111085000Y-101053740D01*
X111027932Y-100766842D01*
X110915990Y-100496589D01*
X110753475Y-100253368D01*
X110546632Y-100046525D01*
X110372240Y-99930000D01*
X110546632Y-99813475D01*
X110753475Y-99606632D01*
X110915990Y-99363411D01*
X111027932Y-99093158D01*
X111085000Y-98806260D01*
X111085000Y-98513740D01*
X111027932Y-98226842D01*
X110915990Y-97956589D01*
X110753475Y-97713368D01*
X110546632Y-97506525D01*
X110364466Y-97384805D01*
X110481355Y-97315178D01*
X110697588Y-97120269D01*
X110871641Y-96886920D01*
X110996825Y-96624099D01*
X111041476Y-96476890D01*
X110920155Y-96247000D01*
X109727000Y-96247000D01*
X109727000Y-96267000D01*
X109473000Y-96267000D01*
X109473000Y-96247000D01*
X109453000Y-96247000D01*
X109453000Y-95993000D01*
X109473000Y-95993000D01*
X109473000Y-95973000D01*
X109727000Y-95973000D01*
X109727000Y-95993000D01*
X110920155Y-95993000D01*
X111041476Y-95763110D01*
X110996825Y-95615901D01*
X110871641Y-95353080D01*
X110697588Y-95119731D01*
X110481355Y-94924822D01*
X110364466Y-94855195D01*
X110546632Y-94733475D01*
X110753475Y-94526632D01*
X110915990Y-94283411D01*
X111027932Y-94013158D01*
X111085000Y-93726260D01*
X111085000Y-93433740D01*
X111027932Y-93146842D01*
X110915990Y-92876589D01*
X110753475Y-92633368D01*
X110546632Y-92426525D01*
X110372240Y-92310000D01*
X110546632Y-92193475D01*
X110753475Y-91986632D01*
X110915990Y-91743411D01*
X111027932Y-91473158D01*
X111085000Y-91186260D01*
X111085000Y-90893740D01*
X111027932Y-90606842D01*
X110915990Y-90336589D01*
X110753475Y-90093368D01*
X110546632Y-89886525D01*
X110372240Y-89770000D01*
X110546632Y-89653475D01*
X110753475Y-89446632D01*
X110915990Y-89203411D01*
X111027932Y-88933158D01*
X111085000Y-88646260D01*
X111085000Y-88353740D01*
X111027932Y-88066842D01*
X110915990Y-87796589D01*
X110753475Y-87553368D01*
X110546632Y-87346525D01*
X110364466Y-87224805D01*
X110481355Y-87155178D01*
X110697588Y-86960269D01*
X110871641Y-86726920D01*
X110996825Y-86464099D01*
X111041476Y-86316890D01*
X110920155Y-86087000D01*
X109727000Y-86087000D01*
X109727000Y-86107000D01*
X109473000Y-86107000D01*
X109473000Y-86087000D01*
X109453000Y-86087000D01*
X109453000Y-85833000D01*
X109473000Y-85833000D01*
X109473000Y-85813000D01*
X109727000Y-85813000D01*
X109727000Y-85833000D01*
X110920155Y-85833000D01*
X111041476Y-85603110D01*
X110996825Y-85455901D01*
X110871641Y-85193080D01*
X110697588Y-84959731D01*
X110481355Y-84764822D01*
X110364466Y-84695195D01*
X110546632Y-84573475D01*
X110753475Y-84366632D01*
X110915990Y-84123411D01*
X111027932Y-83853158D01*
X111085000Y-83566260D01*
X111085000Y-83273740D01*
X111027932Y-82986842D01*
X110915990Y-82716589D01*
X110753475Y-82473368D01*
X110735000Y-82454893D01*
X110735000Y-81845107D01*
X110753475Y-81826632D01*
X110915990Y-81583411D01*
X111027932Y-81313158D01*
X111085000Y-81026260D01*
X111085000Y-80733740D01*
X111027932Y-80446842D01*
X110915990Y-80176589D01*
X110753475Y-79933368D01*
X110735000Y-79914893D01*
X110735000Y-78755741D01*
X110740490Y-78699999D01*
X110735000Y-78644257D01*
X110735000Y-78644248D01*
X110718577Y-78477501D01*
X110653676Y-78263553D01*
X110548284Y-78066377D01*
X110406449Y-77893551D01*
X110363140Y-77858008D01*
X109241996Y-76736865D01*
X109206449Y-76693551D01*
X109033623Y-76551716D01*
X108836447Y-76446324D01*
X108622499Y-76381423D01*
X108455752Y-76365000D01*
X108455751Y-76365000D01*
X108400000Y-76359509D01*
X108344249Y-76365000D01*
X104755751Y-76365000D01*
X104700000Y-76359509D01*
X104644248Y-76365000D01*
X104477501Y-76381423D01*
X104263553Y-76446324D01*
X104066377Y-76551716D01*
X103893551Y-76693551D01*
X103858008Y-76736860D01*
X102536865Y-78058004D01*
X102493551Y-78093551D01*
X102351716Y-78266377D01*
X102254486Y-78448284D01*
X102246324Y-78463554D01*
X102181423Y-78677502D01*
X102159509Y-78900000D01*
X102165000Y-78955751D01*
X102165001Y-96689867D01*
X100089869Y-98765000D01*
X99789117Y-98765000D01*
X99453919Y-98831675D01*
X99138169Y-98962463D01*
X98854002Y-99152337D01*
X98612337Y-99394002D01*
X98422463Y-99678169D01*
X98291675Y-99993919D01*
X98225000Y-100329117D01*
X98225000Y-100670883D01*
X98291675Y-101006081D01*
X98422463Y-101321831D01*
X98612337Y-101605998D01*
X98825000Y-101818661D01*
X98825001Y-120467868D01*
X96300001Y-122992870D01*
X93143994Y-119836865D01*
X93108447Y-119793551D01*
X92935621Y-119651716D01*
X92738445Y-119546324D01*
X92524497Y-119481423D01*
X92357750Y-119465000D01*
X92357749Y-119465000D01*
X92301998Y-119459509D01*
X92246247Y-119465000D01*
X82370133Y-119465000D01*
X81435000Y-118529869D01*
X81435000Y-110686323D01*
X88130497Y-110686323D01*
X88130497Y-111113677D01*
X88213870Y-111532821D01*
X88377412Y-111927645D01*
X88614837Y-112282977D01*
X88917023Y-112585163D01*
X89272355Y-112822588D01*
X89667179Y-112986130D01*
X90086323Y-113069503D01*
X90513677Y-113069503D01*
X90932821Y-112986130D01*
X91327645Y-112822588D01*
X91682977Y-112585163D01*
X91985163Y-112282977D01*
X92222588Y-111927645D01*
X92386130Y-111532821D01*
X92469503Y-111113677D01*
X92469503Y-110686323D01*
X92386130Y-110267179D01*
X92222588Y-109872355D01*
X91985163Y-109517023D01*
X91682977Y-109214837D01*
X91327645Y-108977412D01*
X90932821Y-108813870D01*
X90513677Y-108730497D01*
X90086323Y-108730497D01*
X89667179Y-108813870D01*
X89272355Y-108977412D01*
X88917023Y-109214837D01*
X88614837Y-109517023D01*
X88377412Y-109872355D01*
X88213870Y-110267179D01*
X88130497Y-110686323D01*
X81435000Y-110686323D01*
X81435000Y-109365107D01*
X81453475Y-109346632D01*
X81570000Y-109172240D01*
X81686525Y-109346632D01*
X81893368Y-109553475D01*
X82136589Y-109715990D01*
X82406842Y-109827932D01*
X82693740Y-109885000D01*
X82986260Y-109885000D01*
X83273158Y-109827932D01*
X83543411Y-109715990D01*
X83786632Y-109553475D01*
X83918487Y-109421620D01*
X83940498Y-109494180D01*
X83999463Y-109604494D01*
X84078815Y-109701185D01*
X84175506Y-109780537D01*
X84285820Y-109839502D01*
X84405518Y-109875812D01*
X84530000Y-109888072D01*
X86230000Y-109888072D01*
X86354482Y-109875812D01*
X86474180Y-109839502D01*
X86584494Y-109780537D01*
X86681185Y-109701185D01*
X86760537Y-109604494D01*
X86819502Y-109494180D01*
X86855812Y-109374482D01*
X86868072Y-109250000D01*
X86868072Y-107550000D01*
X86855812Y-107425518D01*
X86819502Y-107305820D01*
X86760537Y-107195506D01*
X86681185Y-107098815D01*
X86584494Y-107019463D01*
X86474180Y-106960498D01*
X86354482Y-106924188D01*
X86230000Y-106911928D01*
X84530000Y-106911928D01*
X84405518Y-106924188D01*
X84285820Y-106960498D01*
X84175506Y-107019463D01*
X84078815Y-107098815D01*
X83999463Y-107195506D01*
X83940498Y-107305820D01*
X83918487Y-107378380D01*
X83786632Y-107246525D01*
X83543411Y-107084010D01*
X83273158Y-106972068D01*
X82986260Y-106915000D01*
X82693740Y-106915000D01*
X82406842Y-106972068D01*
X82136589Y-107084010D01*
X81893368Y-107246525D01*
X81686525Y-107453368D01*
X81570000Y-107627760D01*
X81453475Y-107453368D01*
X81246632Y-107246525D01*
X81003411Y-107084010D01*
X80733158Y-106972068D01*
X80446260Y-106915000D01*
X80153740Y-106915000D01*
X79866842Y-106972068D01*
X79596589Y-107084010D01*
X79353368Y-107246525D01*
X79146525Y-107453368D01*
X79024805Y-107635534D01*
X78955178Y-107518645D01*
X78760269Y-107302412D01*
X78526920Y-107128359D01*
X78264099Y-107003175D01*
X78116890Y-106958524D01*
X77887000Y-107079845D01*
X77633000Y-107079845D01*
X77403110Y-106958524D01*
X77255901Y-107003175D01*
X76993080Y-107128359D01*
X76759731Y-107302412D01*
X76564822Y-107518645D01*
X76415843Y-107768748D01*
X76318519Y-108043109D01*
X70660000Y-108043109D01*
X70660000Y-100792702D01*
X76886903Y-100792702D01*
X76958486Y-101036671D01*
X77213996Y-101157571D01*
X77488184Y-101226300D01*
X77770512Y-101240217D01*
X78050130Y-101198787D01*
X78316292Y-101103603D01*
X78441514Y-101036671D01*
X78513097Y-100792702D01*
X77700000Y-99979605D01*
X76886903Y-100792702D01*
X70660000Y-100792702D01*
X70660000Y-99870512D01*
X76259783Y-99870512D01*
X76301213Y-100150130D01*
X76396397Y-100416292D01*
X76463329Y-100541514D01*
X76707298Y-100613097D01*
X77520395Y-99800000D01*
X77879605Y-99800000D01*
X78692702Y-100613097D01*
X78936671Y-100541514D01*
X79057571Y-100286004D01*
X79126300Y-100011816D01*
X79140217Y-99729488D01*
X79098787Y-99449870D01*
X79003603Y-99183708D01*
X78936671Y-99058486D01*
X78692702Y-98986903D01*
X77879605Y-99800000D01*
X77520395Y-99800000D01*
X76707298Y-98986903D01*
X76463329Y-99058486D01*
X76342429Y-99313996D01*
X76273700Y-99588184D01*
X76259783Y-99870512D01*
X70660000Y-99870512D01*
X70660000Y-80300000D01*
X72459509Y-80300000D01*
X72465000Y-80355752D01*
X72465001Y-93144239D01*
X72459509Y-93200000D01*
X72481423Y-93422498D01*
X72546324Y-93636446D01*
X72546325Y-93636447D01*
X72651717Y-93833623D01*
X72793552Y-94006449D01*
X72836860Y-94041991D01*
X76261928Y-97467061D01*
X76261928Y-98100000D01*
X76274188Y-98224482D01*
X76310498Y-98344180D01*
X76369463Y-98454494D01*
X76448815Y-98551185D01*
X76545506Y-98630537D01*
X76655820Y-98689502D01*
X76775518Y-98725812D01*
X76900000Y-98738072D01*
X76907215Y-98738072D01*
X76886903Y-98807298D01*
X77700000Y-99620395D01*
X78513097Y-98807298D01*
X78492785Y-98738072D01*
X78500000Y-98738072D01*
X78624482Y-98725812D01*
X78744180Y-98689502D01*
X78854494Y-98630537D01*
X78951185Y-98551185D01*
X79030537Y-98454494D01*
X79040957Y-98435000D01*
X86129869Y-98435000D01*
X88061928Y-100367060D01*
X88061928Y-101600000D01*
X88074188Y-101724482D01*
X88110498Y-101844180D01*
X88169463Y-101954494D01*
X88248815Y-102051185D01*
X88345506Y-102130537D01*
X88455820Y-102189502D01*
X88575518Y-102225812D01*
X88700000Y-102238072D01*
X90900000Y-102238072D01*
X91024482Y-102225812D01*
X91144180Y-102189502D01*
X91254494Y-102130537D01*
X91351185Y-102051185D01*
X91430537Y-101954494D01*
X91489502Y-101844180D01*
X91525812Y-101724482D01*
X91538072Y-101600000D01*
X91538072Y-99400000D01*
X91525812Y-99275518D01*
X91489502Y-99155820D01*
X91430537Y-99045506D01*
X91351185Y-98948815D01*
X91254494Y-98869463D01*
X91144180Y-98810498D01*
X91024482Y-98774188D01*
X90900000Y-98761928D01*
X89667060Y-98761928D01*
X87441996Y-96536865D01*
X87406449Y-96493551D01*
X87233623Y-96351716D01*
X87036447Y-96246324D01*
X86822499Y-96181423D01*
X86655752Y-96165000D01*
X86655751Y-96165000D01*
X86600000Y-96159509D01*
X86544249Y-96165000D01*
X79040957Y-96165000D01*
X79030537Y-96145506D01*
X78951185Y-96048815D01*
X78854494Y-95969463D01*
X78744180Y-95910498D01*
X78624482Y-95874188D01*
X78500000Y-95861928D01*
X77867061Y-95861928D01*
X74735000Y-92729869D01*
X74735000Y-88556890D01*
X76358524Y-88556890D01*
X76403175Y-88704099D01*
X76528359Y-88966920D01*
X76702412Y-89200269D01*
X76918645Y-89395178D01*
X77168748Y-89544157D01*
X77443109Y-89641481D01*
X77673000Y-89520814D01*
X77673000Y-88327000D01*
X77927000Y-88327000D01*
X77927000Y-89520814D01*
X78156891Y-89641481D01*
X78431252Y-89544157D01*
X78681355Y-89395178D01*
X78897588Y-89200269D01*
X79071641Y-88966920D01*
X79196825Y-88704099D01*
X79241476Y-88556890D01*
X79120155Y-88327000D01*
X77927000Y-88327000D01*
X77673000Y-88327000D01*
X76479845Y-88327000D01*
X76358524Y-88556890D01*
X74735000Y-88556890D01*
X74735000Y-80770131D01*
X76330133Y-79175000D01*
X76834893Y-79175000D01*
X76853368Y-79193475D01*
X77027760Y-79310000D01*
X76853368Y-79426525D01*
X76646525Y-79633368D01*
X76484010Y-79876589D01*
X76372068Y-80146842D01*
X76315000Y-80433740D01*
X76315000Y-80726260D01*
X76372068Y-81013158D01*
X76484010Y-81283411D01*
X76646525Y-81526632D01*
X76853368Y-81733475D01*
X77027760Y-81850000D01*
X76853368Y-81966525D01*
X76646525Y-82173368D01*
X76484010Y-82416589D01*
X76372068Y-82686842D01*
X76315000Y-82973740D01*
X76315000Y-83266260D01*
X76372068Y-83553158D01*
X76484010Y-83823411D01*
X76646525Y-84066632D01*
X76853368Y-84273475D01*
X77027760Y-84390000D01*
X76853368Y-84506525D01*
X76646525Y-84713368D01*
X76484010Y-84956589D01*
X76372068Y-85226842D01*
X76315000Y-85513740D01*
X76315000Y-85806260D01*
X76372068Y-86093158D01*
X76484010Y-86363411D01*
X76646525Y-86606632D01*
X76853368Y-86813475D01*
X77035534Y-86935195D01*
X76918645Y-87004822D01*
X76702412Y-87199731D01*
X76528359Y-87433080D01*
X76403175Y-87695901D01*
X76358524Y-87843110D01*
X76479845Y-88073000D01*
X77673000Y-88073000D01*
X77673000Y-88053000D01*
X77927000Y-88053000D01*
X77927000Y-88073000D01*
X79120155Y-88073000D01*
X79241476Y-87843110D01*
X79196825Y-87695901D01*
X79071641Y-87433080D01*
X78897588Y-87199731D01*
X78681355Y-87004822D01*
X78564466Y-86935195D01*
X78746632Y-86813475D01*
X78953475Y-86606632D01*
X79115990Y-86363411D01*
X79227932Y-86093158D01*
X79285000Y-85806260D01*
X79285000Y-85513740D01*
X79227932Y-85226842D01*
X79115990Y-84956589D01*
X78953475Y-84713368D01*
X78746632Y-84506525D01*
X78572240Y-84390000D01*
X78746632Y-84273475D01*
X78953475Y-84066632D01*
X79115990Y-83823411D01*
X79227932Y-83553158D01*
X79285000Y-83266260D01*
X79285000Y-82973740D01*
X79227932Y-82686842D01*
X79115990Y-82416589D01*
X78953475Y-82173368D01*
X78746632Y-81966525D01*
X78572240Y-81850000D01*
X78746632Y-81733475D01*
X78953475Y-81526632D01*
X79115990Y-81283411D01*
X79227932Y-81013158D01*
X79285000Y-80726260D01*
X79285000Y-80433740D01*
X79227932Y-80146842D01*
X79115990Y-79876589D01*
X78953475Y-79633368D01*
X78746632Y-79426525D01*
X78572240Y-79310000D01*
X78746632Y-79193475D01*
X78953475Y-78986632D01*
X79115990Y-78743411D01*
X79227932Y-78473158D01*
X79285000Y-78186260D01*
X79285000Y-77893740D01*
X79227932Y-77606842D01*
X79115990Y-77336589D01*
X79018043Y-77190000D01*
X98311928Y-77190000D01*
X98311928Y-78890000D01*
X98324188Y-79014482D01*
X98360498Y-79134180D01*
X98419463Y-79244494D01*
X98498815Y-79341185D01*
X98595506Y-79420537D01*
X98705820Y-79479502D01*
X98778380Y-79501513D01*
X98646525Y-79633368D01*
X98484010Y-79876589D01*
X98372068Y-80146842D01*
X98315000Y-80433740D01*
X98315000Y-80726260D01*
X98372068Y-81013158D01*
X98484010Y-81283411D01*
X98646525Y-81526632D01*
X98853368Y-81733475D01*
X99027760Y-81850000D01*
X98853368Y-81966525D01*
X98646525Y-82173368D01*
X98484010Y-82416589D01*
X98372068Y-82686842D01*
X98315000Y-82973740D01*
X98315000Y-83266260D01*
X98372068Y-83553158D01*
X98484010Y-83823411D01*
X98646525Y-84066632D01*
X98853368Y-84273475D01*
X99027760Y-84390000D01*
X98853368Y-84506525D01*
X98646525Y-84713368D01*
X98484010Y-84956589D01*
X98372068Y-85226842D01*
X98315000Y-85513740D01*
X98315000Y-85806260D01*
X98372068Y-86093158D01*
X98484010Y-86363411D01*
X98646525Y-86606632D01*
X98853368Y-86813475D01*
X99027760Y-86930000D01*
X98853368Y-87046525D01*
X98646525Y-87253368D01*
X98484010Y-87496589D01*
X98372068Y-87766842D01*
X98315000Y-88053740D01*
X98315000Y-88346260D01*
X98372068Y-88633158D01*
X98484010Y-88903411D01*
X98646525Y-89146632D01*
X98853368Y-89353475D01*
X99027760Y-89470000D01*
X98853368Y-89586525D01*
X98646525Y-89793368D01*
X98484010Y-90036589D01*
X98372068Y-90306842D01*
X98315000Y-90593740D01*
X98315000Y-90886260D01*
X98372068Y-91173158D01*
X98484010Y-91443411D01*
X98646525Y-91686632D01*
X98853368Y-91893475D01*
X99096589Y-92055990D01*
X99366842Y-92167932D01*
X99653740Y-92225000D01*
X99946260Y-92225000D01*
X100233158Y-92167932D01*
X100503411Y-92055990D01*
X100746632Y-91893475D01*
X100953475Y-91686632D01*
X101115990Y-91443411D01*
X101227932Y-91173158D01*
X101285000Y-90886260D01*
X101285000Y-90593740D01*
X101227932Y-90306842D01*
X101115990Y-90036589D01*
X100953475Y-89793368D01*
X100746632Y-89586525D01*
X100572240Y-89470000D01*
X100746632Y-89353475D01*
X100953475Y-89146632D01*
X101115990Y-88903411D01*
X101227932Y-88633158D01*
X101285000Y-88346260D01*
X101285000Y-88053740D01*
X101227932Y-87766842D01*
X101115990Y-87496589D01*
X100953475Y-87253368D01*
X100746632Y-87046525D01*
X100572240Y-86930000D01*
X100746632Y-86813475D01*
X100953475Y-86606632D01*
X101115990Y-86363411D01*
X101227932Y-86093158D01*
X101285000Y-85806260D01*
X101285000Y-85513740D01*
X101227932Y-85226842D01*
X101115990Y-84956589D01*
X100953475Y-84713368D01*
X100746632Y-84506525D01*
X100572240Y-84390000D01*
X100746632Y-84273475D01*
X100953475Y-84066632D01*
X101115990Y-83823411D01*
X101227932Y-83553158D01*
X101285000Y-83266260D01*
X101285000Y-82973740D01*
X101227932Y-82686842D01*
X101115990Y-82416589D01*
X100953475Y-82173368D01*
X100746632Y-81966525D01*
X100572240Y-81850000D01*
X100746632Y-81733475D01*
X100953475Y-81526632D01*
X101115990Y-81283411D01*
X101227932Y-81013158D01*
X101285000Y-80726260D01*
X101285000Y-80433740D01*
X101227932Y-80146842D01*
X101115990Y-79876589D01*
X100953475Y-79633368D01*
X100821620Y-79501513D01*
X100894180Y-79479502D01*
X101004494Y-79420537D01*
X101101185Y-79341185D01*
X101180537Y-79244494D01*
X101239502Y-79134180D01*
X101275812Y-79014482D01*
X101288072Y-78890000D01*
X101288072Y-77190000D01*
X101275812Y-77065518D01*
X101239502Y-76945820D01*
X101180537Y-76835506D01*
X101101185Y-76738815D01*
X101004494Y-76659463D01*
X100894180Y-76600498D01*
X100774482Y-76564188D01*
X100650000Y-76551928D01*
X98950000Y-76551928D01*
X98825518Y-76564188D01*
X98705820Y-76600498D01*
X98595506Y-76659463D01*
X98498815Y-76738815D01*
X98419463Y-76835506D01*
X98360498Y-76945820D01*
X98324188Y-77065518D01*
X98311928Y-77190000D01*
X79018043Y-77190000D01*
X78953475Y-77093368D01*
X78821620Y-76961513D01*
X78894180Y-76939502D01*
X79004494Y-76880537D01*
X79101185Y-76801185D01*
X79180537Y-76704494D01*
X79239502Y-76594180D01*
X79275812Y-76474482D01*
X79288072Y-76350000D01*
X79288072Y-74650000D01*
X79275812Y-74525518D01*
X79239502Y-74405820D01*
X79180537Y-74295506D01*
X79101185Y-74198815D01*
X79004494Y-74119463D01*
X78894180Y-74060498D01*
X78774482Y-74024188D01*
X78650000Y-74011928D01*
X76950000Y-74011928D01*
X76825518Y-74024188D01*
X76705820Y-74060498D01*
X76595506Y-74119463D01*
X76498815Y-74198815D01*
X76419463Y-74295506D01*
X76360498Y-74405820D01*
X76324188Y-74525518D01*
X76311928Y-74650000D01*
X76311928Y-76350000D01*
X76324188Y-76474482D01*
X76360498Y-76594180D01*
X76419463Y-76704494D01*
X76498815Y-76801185D01*
X76595506Y-76880537D01*
X76641272Y-76905000D01*
X75915752Y-76905000D01*
X75860000Y-76899509D01*
X75637501Y-76921423D01*
X75423553Y-76986324D01*
X75226377Y-77091716D01*
X75096856Y-77198011D01*
X75096854Y-77198013D01*
X75053551Y-77233551D01*
X75018013Y-77276854D01*
X72836864Y-79458004D01*
X72793551Y-79493551D01*
X72651716Y-79666377D01*
X72546325Y-79863553D01*
X72546324Y-79863554D01*
X72481423Y-80077502D01*
X72459509Y-80300000D01*
X70660000Y-80300000D01*
X70660000Y-70804155D01*
X71021161Y-71344670D01*
X71555330Y-71878839D01*
X72183446Y-72298533D01*
X72881372Y-72587623D01*
X73622285Y-72735000D01*
X74377715Y-72735000D01*
X75118628Y-72587623D01*
X75816554Y-72298533D01*
X76444670Y-71878839D01*
X76978839Y-71344670D01*
X77398533Y-70716554D01*
X77687623Y-70018628D01*
X77835000Y-69277715D01*
X77835000Y-68522285D01*
X77687623Y-67781372D01*
X77398533Y-67083446D01*
X76978839Y-66455330D01*
X76444670Y-65921161D01*
X76053815Y-65660000D01*
X106946185Y-65660000D01*
X106555330Y-65921161D01*
G37*
X106555330Y-65921161D02*
X106021161Y-66455330D01*
X105601467Y-67083446D01*
X105312377Y-67781372D01*
X105165000Y-68522285D01*
X105165000Y-69277715D01*
X105312377Y-70018628D01*
X105601467Y-70716554D01*
X106021161Y-71344670D01*
X106555330Y-71878839D01*
X107183446Y-72298533D01*
X107881372Y-72587623D01*
X108622285Y-72735000D01*
X109377715Y-72735000D01*
X110118628Y-72587623D01*
X110816554Y-72298533D01*
X111444670Y-71878839D01*
X111978839Y-71344670D01*
X112340001Y-70804153D01*
X112340000Y-144195845D01*
X111978839Y-143655330D01*
X111444670Y-143121161D01*
X110816554Y-142701467D01*
X110118628Y-142412377D01*
X109377715Y-142265000D01*
X108622285Y-142265000D01*
X107881372Y-142412377D01*
X107183446Y-142701467D01*
X106555330Y-143121161D01*
X106021161Y-143655330D01*
X105601467Y-144283446D01*
X105312377Y-144981372D01*
X105165000Y-145722285D01*
X105165000Y-146477715D01*
X105312377Y-147218628D01*
X105601467Y-147916554D01*
X106021161Y-148544670D01*
X106555330Y-149078839D01*
X106946185Y-149340000D01*
X76053815Y-149340000D01*
X76444670Y-149078839D01*
X76978839Y-148544670D01*
X77398533Y-147916554D01*
X77687623Y-147218628D01*
X77835000Y-146477715D01*
X77835000Y-145722285D01*
X77687623Y-144981372D01*
X77398533Y-144283446D01*
X76978839Y-143655330D01*
X76444670Y-143121161D01*
X75816554Y-142701467D01*
X75118628Y-142412377D01*
X74377715Y-142265000D01*
X73622285Y-142265000D01*
X72881372Y-142412377D01*
X72183446Y-142701467D01*
X71555330Y-143121161D01*
X71021161Y-143655330D01*
X70660000Y-144195845D01*
X70660000Y-135686323D01*
X71130497Y-135686323D01*
X71130497Y-136113677D01*
X71213870Y-136532821D01*
X71377412Y-136927645D01*
X71614837Y-137282977D01*
X71917023Y-137585163D01*
X72272355Y-137822588D01*
X72667179Y-137986130D01*
X73086323Y-138069503D01*
X73513677Y-138069503D01*
X73932821Y-137986130D01*
X74327645Y-137822588D01*
X74682977Y-137585163D01*
X74985163Y-137282977D01*
X75222588Y-136927645D01*
X75386130Y-136532821D01*
X75469503Y-136113677D01*
X75469503Y-135686323D01*
X88130497Y-135686323D01*
X88130497Y-136113677D01*
X88213870Y-136532821D01*
X88377412Y-136927645D01*
X88614837Y-137282977D01*
X88917023Y-137585163D01*
X89272355Y-137822588D01*
X89667179Y-137986130D01*
X90086323Y-138069503D01*
X90513677Y-138069503D01*
X90932821Y-137986130D01*
X91327645Y-137822588D01*
X91682977Y-137585163D01*
X91985163Y-137282977D01*
X92222588Y-136927645D01*
X92386130Y-136532821D01*
X92469503Y-136113677D01*
X92469503Y-135686323D01*
X92386130Y-135267179D01*
X92222588Y-134872355D01*
X91985163Y-134517023D01*
X91682977Y-134214837D01*
X91327645Y-133977412D01*
X90932821Y-133813870D01*
X90513677Y-133730497D01*
X90086323Y-133730497D01*
X89667179Y-133813870D01*
X89272355Y-133977412D01*
X88917023Y-134214837D01*
X88614837Y-134517023D01*
X88377412Y-134872355D01*
X88213870Y-135267179D01*
X88130497Y-135686323D01*
X75469503Y-135686323D01*
X75386130Y-135267179D01*
X75222588Y-134872355D01*
X74985163Y-134517023D01*
X74682977Y-134214837D01*
X74327645Y-133977412D01*
X73932821Y-133813870D01*
X73513677Y-133730497D01*
X73086323Y-133730497D01*
X72667179Y-133813870D01*
X72272355Y-133977412D01*
X71917023Y-134214837D01*
X71614837Y-134517023D01*
X71377412Y-134872355D01*
X71213870Y-135267179D01*
X71130497Y-135686323D01*
X70660000Y-135686323D01*
X70660000Y-108756891D01*
X76318519Y-108756891D01*
X76415843Y-109031252D01*
X76564822Y-109281355D01*
X76759731Y-109497588D01*
X76993080Y-109671641D01*
X77255901Y-109796825D01*
X77403110Y-109841476D01*
X77633000Y-109720155D01*
X77633000Y-108527000D01*
X76439186Y-108527000D01*
X76318519Y-108756891D01*
X70660000Y-108756891D01*
X70660000Y-108043109D01*
X76318519Y-108043109D01*
X76439186Y-108273000D01*
X77633000Y-108273000D01*
X77633000Y-107079845D01*
X77887000Y-107079845D01*
X77887000Y-108273000D01*
X77907000Y-108273000D01*
X77907000Y-108527000D01*
X77887000Y-108527000D01*
X77887000Y-109720155D01*
X78116890Y-109841476D01*
X78264099Y-109796825D01*
X78526920Y-109671641D01*
X78760269Y-109497588D01*
X78955178Y-109281355D01*
X79024805Y-109164466D01*
X79146525Y-109346632D01*
X79165001Y-109365108D01*
X79165000Y-118944248D01*
X79159509Y-119000000D01*
X79165000Y-119055751D01*
X79181423Y-119222498D01*
X79246324Y-119436446D01*
X79351716Y-119633623D01*
X79493551Y-119806449D01*
X79536864Y-119841995D01*
X81058013Y-121363146D01*
X81093551Y-121406449D01*
X81136854Y-121441987D01*
X81136856Y-121441989D01*
X81266377Y-121548284D01*
X81463553Y-121653676D01*
X81677501Y-121718577D01*
X81900000Y-121740491D01*
X81955752Y-121735000D01*
X91831867Y-121735000D01*
X95165001Y-125068136D01*
X95165000Y-140461928D01*
X95000000Y-140461928D01*
X94875518Y-140474188D01*
X94755820Y-140510498D01*
X94645506Y-140569463D01*
X94548815Y-140648815D01*
X94469463Y-140745506D01*
X94410498Y-140855820D01*
X94374188Y-140975518D01*
X94361928Y-141100000D01*
X94361928Y-143700000D01*
X94374188Y-143824482D01*
X94410498Y-143944180D01*
X94469463Y-144054494D01*
X94548815Y-144151185D01*
X94645506Y-144230537D01*
X94755820Y-144289502D01*
X94875518Y-144325812D01*
X95000000Y-144338072D01*
X97600000Y-144338072D01*
X97724482Y-144325812D01*
X97844180Y-144289502D01*
X97954494Y-144230537D01*
X98051185Y-144151185D01*
X98130537Y-144054494D01*
X98189502Y-143944180D01*
X98225812Y-143824482D01*
X98233224Y-143749224D01*
X100210381Y-143749224D01*
X100342317Y-144044312D01*
X100683045Y-144215159D01*
X101050557Y-144316250D01*
X101430729Y-144343701D01*
X101808951Y-144296457D01*
X102170690Y-144176333D01*
X102417683Y-144044312D01*
X102549619Y-143749224D01*
X101380000Y-142579605D01*
X100210381Y-143749224D01*
X98233224Y-143749224D01*
X98238072Y-143700000D01*
X98238072Y-142450729D01*
X99436299Y-142450729D01*
X99483543Y-142828951D01*
X99603667Y-143190690D01*
X99735688Y-143437683D01*
X100030776Y-143569619D01*
X101200395Y-142400000D01*
X101559605Y-142400000D01*
X102729224Y-143569619D01*
X103024312Y-143437683D01*
X103195159Y-143096955D01*
X103296250Y-142729443D01*
X103323701Y-142349271D01*
X103276457Y-141971049D01*
X103156333Y-141609310D01*
X103024312Y-141362317D01*
X102729224Y-141230381D01*
X101559605Y-142400000D01*
X101200395Y-142400000D01*
X100030776Y-141230381D01*
X99735688Y-141362317D01*
X99564841Y-141703045D01*
X99463750Y-142070557D01*
X99436299Y-142450729D01*
X98238072Y-142450729D01*
X98238072Y-141100000D01*
X98233225Y-141050776D01*
X100210381Y-141050776D01*
X101380000Y-142220395D01*
X102549619Y-141050776D01*
X102417683Y-140755688D01*
X102076955Y-140584841D01*
X101709443Y-140483750D01*
X101329271Y-140456299D01*
X100951049Y-140503543D01*
X100589310Y-140623667D01*
X100342317Y-140755688D01*
X100210381Y-141050776D01*
X98233225Y-141050776D01*
X98225812Y-140975518D01*
X98189502Y-140855820D01*
X98130537Y-140745506D01*
X98051185Y-140648815D01*
X97954494Y-140569463D01*
X97844180Y-140510498D01*
X97724482Y-140474188D01*
X97600000Y-140461928D01*
X97435000Y-140461928D01*
X97435000Y-129496890D01*
X105618524Y-129496890D01*
X105663175Y-129644099D01*
X105788359Y-129906920D01*
X105962412Y-130140269D01*
X106178645Y-130335178D01*
X106428748Y-130484157D01*
X106703109Y-130581481D01*
X106933000Y-130460814D01*
X106933000Y-129267000D01*
X105739845Y-129267000D01*
X105618524Y-129496890D01*
X97435000Y-129496890D01*
X97435000Y-125068133D01*
X100723146Y-121779989D01*
X100766449Y-121744451D01*
X100840947Y-121653676D01*
X100908284Y-121571625D01*
X101013676Y-121374449D01*
X101078577Y-121160501D01*
X101100491Y-120938002D01*
X101095000Y-120882250D01*
X101095000Y-101818661D01*
X101307663Y-101605998D01*
X101497537Y-101321831D01*
X101628325Y-101006081D01*
X101695000Y-100670883D01*
X101695000Y-100370131D01*
X104063141Y-98001991D01*
X104106449Y-97966449D01*
X104248284Y-97793623D01*
X104353676Y-97596447D01*
X104418577Y-97382499D01*
X104435000Y-97215752D01*
X104435000Y-97215743D01*
X104440490Y-97160001D01*
X104435000Y-97104259D01*
X104435000Y-79370131D01*
X105170132Y-78635000D01*
X107929869Y-78635000D01*
X108465001Y-79170132D01*
X108465001Y-79721273D01*
X108440537Y-79675506D01*
X108361185Y-79578815D01*
X108264494Y-79499463D01*
X108154180Y-79440498D01*
X108034482Y-79404188D01*
X107910000Y-79391928D01*
X106210000Y-79391928D01*
X106085518Y-79404188D01*
X105965820Y-79440498D01*
X105855506Y-79499463D01*
X105758815Y-79578815D01*
X105679463Y-79675506D01*
X105620498Y-79785820D01*
X105584188Y-79905518D01*
X105571928Y-80030000D01*
X105571928Y-81730000D01*
X105584188Y-81854482D01*
X105620498Y-81974180D01*
X105679463Y-82084494D01*
X105758815Y-82181185D01*
X105855506Y-82260537D01*
X105965820Y-82319502D01*
X106038380Y-82341513D01*
X105906525Y-82473368D01*
X105744010Y-82716589D01*
X105632068Y-82986842D01*
X105575000Y-83273740D01*
X105575000Y-83566260D01*
X105632068Y-83853158D01*
X105744010Y-84123411D01*
X105906525Y-84366632D01*
X106113368Y-84573475D01*
X106287760Y-84690000D01*
X106113368Y-84806525D01*
X105906525Y-85013368D01*
X105744010Y-85256589D01*
X105632068Y-85526842D01*
X105575000Y-85813740D01*
X105575000Y-86106260D01*
X105632068Y-86393158D01*
X105744010Y-86663411D01*
X105906525Y-86906632D01*
X106113368Y-87113475D01*
X106287760Y-87230000D01*
X106113368Y-87346525D01*
X105906525Y-87553368D01*
X105744010Y-87796589D01*
X105632068Y-88066842D01*
X105575000Y-88353740D01*
X105575000Y-88646260D01*
X105632068Y-88933158D01*
X105744010Y-89203411D01*
X105906525Y-89446632D01*
X106113368Y-89653475D01*
X106295534Y-89775195D01*
X106178645Y-89844822D01*
X105962412Y-90039731D01*
X105788359Y-90273080D01*
X105663175Y-90535901D01*
X105618524Y-90683110D01*
X105739845Y-90913000D01*
X106933000Y-90913000D01*
X106933000Y-90893000D01*
X107187000Y-90893000D01*
X107187000Y-90913000D01*
X107207000Y-90913000D01*
X107207000Y-91167000D01*
X107187000Y-91167000D01*
X107187000Y-91187000D01*
X106933000Y-91187000D01*
X106933000Y-91167000D01*
X105739845Y-91167000D01*
X105618524Y-91396890D01*
X105663175Y-91544099D01*
X105788359Y-91806920D01*
X105962412Y-92040269D01*
X106178645Y-92235178D01*
X106295534Y-92304805D01*
X106113368Y-92426525D01*
X105906525Y-92633368D01*
X105744010Y-92876589D01*
X105632068Y-93146842D01*
X105575000Y-93433740D01*
X105575000Y-93726260D01*
X105632068Y-94013158D01*
X105744010Y-94283411D01*
X105906525Y-94526632D01*
X106113368Y-94733475D01*
X106287760Y-94850000D01*
X106113368Y-94966525D01*
X105906525Y-95173368D01*
X105744010Y-95416589D01*
X105632068Y-95686842D01*
X105575000Y-95973740D01*
X105575000Y-96266260D01*
X105632068Y-96553158D01*
X105744010Y-96823411D01*
X105906525Y-97066632D01*
X106113368Y-97273475D01*
X106287760Y-97390000D01*
X106113368Y-97506525D01*
X105906525Y-97713368D01*
X105744010Y-97956589D01*
X105632068Y-98226842D01*
X105575000Y-98513740D01*
X105575000Y-98806260D01*
X105632068Y-99093158D01*
X105744010Y-99363411D01*
X105906525Y-99606632D01*
X106113368Y-99813475D01*
X106287760Y-99930000D01*
X106113368Y-100046525D01*
X105906525Y-100253368D01*
X105744010Y-100496589D01*
X105632068Y-100766842D01*
X105575000Y-101053740D01*
X105575000Y-101346260D01*
X105632068Y-101633158D01*
X105744010Y-101903411D01*
X105906525Y-102146632D01*
X106113368Y-102353475D01*
X106287760Y-102470000D01*
X106113368Y-102586525D01*
X105906525Y-102793368D01*
X105744010Y-103036589D01*
X105632068Y-103306842D01*
X105575000Y-103593740D01*
X105575000Y-103886260D01*
X105632068Y-104173158D01*
X105744010Y-104443411D01*
X105906525Y-104686632D01*
X106113368Y-104893475D01*
X106287760Y-105010000D01*
X106113368Y-105126525D01*
X105906525Y-105333368D01*
X105744010Y-105576589D01*
X105632068Y-105846842D01*
X105575000Y-106133740D01*
X105575000Y-106426260D01*
X105632068Y-106713158D01*
X105744010Y-106983411D01*
X105906525Y-107226632D01*
X106113368Y-107433475D01*
X106287760Y-107550000D01*
X106113368Y-107666525D01*
X105906525Y-107873368D01*
X105744010Y-108116589D01*
X105632068Y-108386842D01*
X105575000Y-108673740D01*
X105575000Y-108966260D01*
X105632068Y-109253158D01*
X105744010Y-109523411D01*
X105906525Y-109766632D01*
X106113368Y-109973475D01*
X106295534Y-110095195D01*
X106178645Y-110164822D01*
X105962412Y-110359731D01*
X105788359Y-110593080D01*
X105663175Y-110855901D01*
X105618524Y-111003110D01*
X105739845Y-111233000D01*
X106933000Y-111233000D01*
X106933000Y-111213000D01*
X107187000Y-111213000D01*
X107187000Y-111233000D01*
X107207000Y-111233000D01*
X107207000Y-111487000D01*
X107187000Y-111487000D01*
X107187000Y-111507000D01*
X106933000Y-111507000D01*
X106933000Y-111487000D01*
X105739845Y-111487000D01*
X105618524Y-111716890D01*
X105663175Y-111864099D01*
X105788359Y-112126920D01*
X105962412Y-112360269D01*
X106178645Y-112555178D01*
X106295534Y-112624805D01*
X106113368Y-112746525D01*
X105906525Y-112953368D01*
X105744010Y-113196589D01*
X105632068Y-113466842D01*
X105575000Y-113753740D01*
X105575000Y-114046260D01*
X105632068Y-114333158D01*
X105744010Y-114603411D01*
X105906525Y-114846632D01*
X106113368Y-115053475D01*
X106287760Y-115170000D01*
X106113368Y-115286525D01*
X105906525Y-115493368D01*
X105744010Y-115736589D01*
X105632068Y-116006842D01*
X105575000Y-116293740D01*
X105575000Y-116586260D01*
X105632068Y-116873158D01*
X105744010Y-117143411D01*
X105906525Y-117386632D01*
X106113368Y-117593475D01*
X106287760Y-117710000D01*
X106113368Y-117826525D01*
X105906525Y-118033368D01*
X105744010Y-118276589D01*
X105632068Y-118546842D01*
X105575000Y-118833740D01*
X105575000Y-119126260D01*
X105632068Y-119413158D01*
X105744010Y-119683411D01*
X105906525Y-119926632D01*
X106113368Y-120133475D01*
X106287760Y-120250000D01*
X106113368Y-120366525D01*
X105906525Y-120573368D01*
X105744010Y-120816589D01*
X105632068Y-121086842D01*
X105575000Y-121373740D01*
X105575000Y-121666260D01*
X105632068Y-121953158D01*
X105744010Y-122223411D01*
X105906525Y-122466632D01*
X106113368Y-122673475D01*
X106287760Y-122790000D01*
X106113368Y-122906525D01*
X105906525Y-123113368D01*
X105744010Y-123356589D01*
X105632068Y-123626842D01*
X105575000Y-123913740D01*
X105575000Y-124206260D01*
X105632068Y-124493158D01*
X105744010Y-124763411D01*
X105906525Y-125006632D01*
X106113368Y-125213475D01*
X106287760Y-125330000D01*
X106113368Y-125446525D01*
X105906525Y-125653368D01*
X105744010Y-125896589D01*
X105632068Y-126166842D01*
X105575000Y-126453740D01*
X105575000Y-126746260D01*
X105632068Y-127033158D01*
X105744010Y-127303411D01*
X105906525Y-127546632D01*
X106113368Y-127753475D01*
X106295534Y-127875195D01*
X106178645Y-127944822D01*
X105962412Y-128139731D01*
X105788359Y-128373080D01*
X105663175Y-128635901D01*
X105618524Y-128783110D01*
X105739845Y-129013000D01*
X106933000Y-129013000D01*
X106933000Y-128993000D01*
X107187000Y-128993000D01*
X107187000Y-129013000D01*
X107207000Y-129013000D01*
X107207000Y-129267000D01*
X107187000Y-129267000D01*
X107187000Y-130460814D01*
X107416891Y-130581481D01*
X107691252Y-130484157D01*
X107941355Y-130335178D01*
X108157588Y-130140269D01*
X108328900Y-129910594D01*
X108446525Y-130086632D01*
X108653368Y-130293475D01*
X108896589Y-130455990D01*
X109166842Y-130567932D01*
X109453740Y-130625000D01*
X109746260Y-130625000D01*
X110033158Y-130567932D01*
X110303411Y-130455990D01*
X110546632Y-130293475D01*
X110753475Y-130086632D01*
X110915990Y-129843411D01*
X111027932Y-129573158D01*
X111085000Y-129286260D01*
X111085000Y-128993740D01*
X111027932Y-128706842D01*
X110915990Y-128436589D01*
X110753475Y-128193368D01*
X110546632Y-127986525D01*
X110372240Y-127870000D01*
X110546632Y-127753475D01*
X110753475Y-127546632D01*
X110915990Y-127303411D01*
X111027932Y-127033158D01*
X111085000Y-126746260D01*
X111085000Y-126453740D01*
X111027932Y-126166842D01*
X110915990Y-125896589D01*
X110753475Y-125653368D01*
X110546632Y-125446525D01*
X110372240Y-125330000D01*
X110546632Y-125213475D01*
X110753475Y-125006632D01*
X110915990Y-124763411D01*
X111027932Y-124493158D01*
X111085000Y-124206260D01*
X111085000Y-123913740D01*
X111027932Y-123626842D01*
X110915990Y-123356589D01*
X110753475Y-123113368D01*
X110546632Y-122906525D01*
X110364466Y-122784805D01*
X110481355Y-122715178D01*
X110697588Y-122520269D01*
X110871641Y-122286920D01*
X110996825Y-122024099D01*
X111041476Y-121876890D01*
X110920155Y-121647000D01*
X109727000Y-121647000D01*
X109727000Y-121667000D01*
X109473000Y-121667000D01*
X109473000Y-121647000D01*
X109453000Y-121647000D01*
X109453000Y-121393000D01*
X109473000Y-121393000D01*
X109473000Y-121373000D01*
X109727000Y-121373000D01*
X109727000Y-121393000D01*
X110920155Y-121393000D01*
X111041476Y-121163110D01*
X110996825Y-121015901D01*
X110871641Y-120753080D01*
X110697588Y-120519731D01*
X110481355Y-120324822D01*
X110364466Y-120255195D01*
X110546632Y-120133475D01*
X110753475Y-119926632D01*
X110915990Y-119683411D01*
X111027932Y-119413158D01*
X111085000Y-119126260D01*
X111085000Y-118833740D01*
X111027932Y-118546842D01*
X110915990Y-118276589D01*
X110753475Y-118033368D01*
X110546632Y-117826525D01*
X110364466Y-117704805D01*
X110481355Y-117635178D01*
X110697588Y-117440269D01*
X110871641Y-117206920D01*
X110996825Y-116944099D01*
X111041476Y-116796890D01*
X110920155Y-116567000D01*
X109727000Y-116567000D01*
X109727000Y-116587000D01*
X109473000Y-116587000D01*
X109473000Y-116567000D01*
X109453000Y-116567000D01*
X109453000Y-116313000D01*
X109473000Y-116313000D01*
X109473000Y-116293000D01*
X109727000Y-116293000D01*
X109727000Y-116313000D01*
X110920155Y-116313000D01*
X111041476Y-116083110D01*
X110996825Y-115935901D01*
X110871641Y-115673080D01*
X110697588Y-115439731D01*
X110481355Y-115244822D01*
X110364466Y-115175195D01*
X110546632Y-115053475D01*
X110753475Y-114846632D01*
X110915990Y-114603411D01*
X111027932Y-114333158D01*
X111085000Y-114046260D01*
X111085000Y-113753740D01*
X111027932Y-113466842D01*
X110915990Y-113196589D01*
X110753475Y-112953368D01*
X110546632Y-112746525D01*
X110372240Y-112630000D01*
X110546632Y-112513475D01*
X110753475Y-112306632D01*
X110915990Y-112063411D01*
X111027932Y-111793158D01*
X111085000Y-111506260D01*
X111085000Y-111213740D01*
X111027932Y-110926842D01*
X110915990Y-110656589D01*
X110753475Y-110413368D01*
X110546632Y-110206525D01*
X110372240Y-110090000D01*
X110546632Y-109973475D01*
X110753475Y-109766632D01*
X110915990Y-109523411D01*
X111027932Y-109253158D01*
X111085000Y-108966260D01*
X111085000Y-108673740D01*
X111027932Y-108386842D01*
X110915990Y-108116589D01*
X110753475Y-107873368D01*
X110546632Y-107666525D01*
X110372240Y-107550000D01*
X110546632Y-107433475D01*
X110753475Y-107226632D01*
X110915990Y-106983411D01*
X111027932Y-106713158D01*
X111085000Y-106426260D01*
X111085000Y-106133740D01*
X111027932Y-105846842D01*
X110915990Y-105576589D01*
X110753475Y-105333368D01*
X110546632Y-105126525D01*
X110364466Y-105004805D01*
X110481355Y-104935178D01*
X110697588Y-104740269D01*
X110871641Y-104506920D01*
X110996825Y-104244099D01*
X111041476Y-104096890D01*
X110920155Y-103867000D01*
X109727000Y-103867000D01*
X109727000Y-103887000D01*
X109473000Y-103887000D01*
X109473000Y-103867000D01*
X109453000Y-103867000D01*
X109453000Y-103613000D01*
X109473000Y-103613000D01*
X109473000Y-103593000D01*
X109727000Y-103593000D01*
X109727000Y-103613000D01*
X110920155Y-103613000D01*
X111041476Y-103383110D01*
X110996825Y-103235901D01*
X110871641Y-102973080D01*
X110697588Y-102739731D01*
X110481355Y-102544822D01*
X110364466Y-102475195D01*
X110546632Y-102353475D01*
X110753475Y-102146632D01*
X110915990Y-101903411D01*
X111027932Y-101633158D01*
X111085000Y-101346260D01*
X111085000Y-101053740D01*
X111027932Y-100766842D01*
X110915990Y-100496589D01*
X110753475Y-100253368D01*
X110546632Y-100046525D01*
X110372240Y-99930000D01*
X110546632Y-99813475D01*
X110753475Y-99606632D01*
X110915990Y-99363411D01*
X111027932Y-99093158D01*
X111085000Y-98806260D01*
X111085000Y-98513740D01*
X111027932Y-98226842D01*
X110915990Y-97956589D01*
X110753475Y-97713368D01*
X110546632Y-97506525D01*
X110364466Y-97384805D01*
X110481355Y-97315178D01*
X110697588Y-97120269D01*
X110871641Y-96886920D01*
X110996825Y-96624099D01*
X111041476Y-96476890D01*
X110920155Y-96247000D01*
X109727000Y-96247000D01*
X109727000Y-96267000D01*
X109473000Y-96267000D01*
X109473000Y-96247000D01*
X109453000Y-96247000D01*
X109453000Y-95993000D01*
X109473000Y-95993000D01*
X109473000Y-95973000D01*
X109727000Y-95973000D01*
X109727000Y-95993000D01*
X110920155Y-95993000D01*
X111041476Y-95763110D01*
X110996825Y-95615901D01*
X110871641Y-95353080D01*
X110697588Y-95119731D01*
X110481355Y-94924822D01*
X110364466Y-94855195D01*
X110546632Y-94733475D01*
X110753475Y-94526632D01*
X110915990Y-94283411D01*
X111027932Y-94013158D01*
X111085000Y-93726260D01*
X111085000Y-93433740D01*
X111027932Y-93146842D01*
X110915990Y-92876589D01*
X110753475Y-92633368D01*
X110546632Y-92426525D01*
X110372240Y-92310000D01*
X110546632Y-92193475D01*
X110753475Y-91986632D01*
X110915990Y-91743411D01*
X111027932Y-91473158D01*
X111085000Y-91186260D01*
X111085000Y-90893740D01*
X111027932Y-90606842D01*
X110915990Y-90336589D01*
X110753475Y-90093368D01*
X110546632Y-89886525D01*
X110372240Y-89770000D01*
X110546632Y-89653475D01*
X110753475Y-89446632D01*
X110915990Y-89203411D01*
X111027932Y-88933158D01*
X111085000Y-88646260D01*
X111085000Y-88353740D01*
X111027932Y-88066842D01*
X110915990Y-87796589D01*
X110753475Y-87553368D01*
X110546632Y-87346525D01*
X110364466Y-87224805D01*
X110481355Y-87155178D01*
X110697588Y-86960269D01*
X110871641Y-86726920D01*
X110996825Y-86464099D01*
X111041476Y-86316890D01*
X110920155Y-86087000D01*
X109727000Y-86087000D01*
X109727000Y-86107000D01*
X109473000Y-86107000D01*
X109473000Y-86087000D01*
X109453000Y-86087000D01*
X109453000Y-85833000D01*
X109473000Y-85833000D01*
X109473000Y-85813000D01*
X109727000Y-85813000D01*
X109727000Y-85833000D01*
X110920155Y-85833000D01*
X111041476Y-85603110D01*
X110996825Y-85455901D01*
X110871641Y-85193080D01*
X110697588Y-84959731D01*
X110481355Y-84764822D01*
X110364466Y-84695195D01*
X110546632Y-84573475D01*
X110753475Y-84366632D01*
X110915990Y-84123411D01*
X111027932Y-83853158D01*
X111085000Y-83566260D01*
X111085000Y-83273740D01*
X111027932Y-82986842D01*
X110915990Y-82716589D01*
X110753475Y-82473368D01*
X110735000Y-82454893D01*
X110735000Y-81845107D01*
X110753475Y-81826632D01*
X110915990Y-81583411D01*
X111027932Y-81313158D01*
X111085000Y-81026260D01*
X111085000Y-80733740D01*
X111027932Y-80446842D01*
X110915990Y-80176589D01*
X110753475Y-79933368D01*
X110735000Y-79914893D01*
X110735000Y-78755741D01*
X110740490Y-78699999D01*
X110735000Y-78644257D01*
X110735000Y-78644248D01*
X110718577Y-78477501D01*
X110653676Y-78263553D01*
X110548284Y-78066377D01*
X110406449Y-77893551D01*
X110363140Y-77858008D01*
X109241996Y-76736865D01*
X109206449Y-76693551D01*
X109033623Y-76551716D01*
X108836447Y-76446324D01*
X108622499Y-76381423D01*
X108455752Y-76365000D01*
X108455751Y-76365000D01*
X108400000Y-76359509D01*
X108344249Y-76365000D01*
X104755751Y-76365000D01*
X104700000Y-76359509D01*
X104644248Y-76365000D01*
X104477501Y-76381423D01*
X104263553Y-76446324D01*
X104066377Y-76551716D01*
X103893551Y-76693551D01*
X103858008Y-76736860D01*
X102536865Y-78058004D01*
X102493551Y-78093551D01*
X102351716Y-78266377D01*
X102254486Y-78448284D01*
X102246324Y-78463554D01*
X102181423Y-78677502D01*
X102159509Y-78900000D01*
X102165000Y-78955751D01*
X102165001Y-96689867D01*
X100089869Y-98765000D01*
X99789117Y-98765000D01*
X99453919Y-98831675D01*
X99138169Y-98962463D01*
X98854002Y-99152337D01*
X98612337Y-99394002D01*
X98422463Y-99678169D01*
X98291675Y-99993919D01*
X98225000Y-100329117D01*
X98225000Y-100670883D01*
X98291675Y-101006081D01*
X98422463Y-101321831D01*
X98612337Y-101605998D01*
X98825000Y-101818661D01*
X98825001Y-120467868D01*
X96300001Y-122992870D01*
X93143994Y-119836865D01*
X93108447Y-119793551D01*
X92935621Y-119651716D01*
X92738445Y-119546324D01*
X92524497Y-119481423D01*
X92357750Y-119465000D01*
X92357749Y-119465000D01*
X92301998Y-119459509D01*
X92246247Y-119465000D01*
X82370133Y-119465000D01*
X81435000Y-118529869D01*
X81435000Y-110686323D01*
X88130497Y-110686323D01*
X88130497Y-111113677D01*
X88213870Y-111532821D01*
X88377412Y-111927645D01*
X88614837Y-112282977D01*
X88917023Y-112585163D01*
X89272355Y-112822588D01*
X89667179Y-112986130D01*
X90086323Y-113069503D01*
X90513677Y-113069503D01*
X90932821Y-112986130D01*
X91327645Y-112822588D01*
X91682977Y-112585163D01*
X91985163Y-112282977D01*
X92222588Y-111927645D01*
X92386130Y-111532821D01*
X92469503Y-111113677D01*
X92469503Y-110686323D01*
X92386130Y-110267179D01*
X92222588Y-109872355D01*
X91985163Y-109517023D01*
X91682977Y-109214837D01*
X91327645Y-108977412D01*
X90932821Y-108813870D01*
X90513677Y-108730497D01*
X90086323Y-108730497D01*
X89667179Y-108813870D01*
X89272355Y-108977412D01*
X88917023Y-109214837D01*
X88614837Y-109517023D01*
X88377412Y-109872355D01*
X88213870Y-110267179D01*
X88130497Y-110686323D01*
X81435000Y-110686323D01*
X81435000Y-109365107D01*
X81453475Y-109346632D01*
X81570000Y-109172240D01*
X81686525Y-109346632D01*
X81893368Y-109553475D01*
X82136589Y-109715990D01*
X82406842Y-109827932D01*
X82693740Y-109885000D01*
X82986260Y-109885000D01*
X83273158Y-109827932D01*
X83543411Y-109715990D01*
X83786632Y-109553475D01*
X83918487Y-109421620D01*
X83940498Y-109494180D01*
X83999463Y-109604494D01*
X84078815Y-109701185D01*
X84175506Y-109780537D01*
X84285820Y-109839502D01*
X84405518Y-109875812D01*
X84530000Y-109888072D01*
X86230000Y-109888072D01*
X86354482Y-109875812D01*
X86474180Y-109839502D01*
X86584494Y-109780537D01*
X86681185Y-109701185D01*
X86760537Y-109604494D01*
X86819502Y-109494180D01*
X86855812Y-109374482D01*
X86868072Y-109250000D01*
X86868072Y-107550000D01*
X86855812Y-107425518D01*
X86819502Y-107305820D01*
X86760537Y-107195506D01*
X86681185Y-107098815D01*
X86584494Y-107019463D01*
X86474180Y-106960498D01*
X86354482Y-106924188D01*
X86230000Y-106911928D01*
X84530000Y-106911928D01*
X84405518Y-106924188D01*
X84285820Y-106960498D01*
X84175506Y-107019463D01*
X84078815Y-107098815D01*
X83999463Y-107195506D01*
X83940498Y-107305820D01*
X83918487Y-107378380D01*
X83786632Y-107246525D01*
X83543411Y-107084010D01*
X83273158Y-106972068D01*
X82986260Y-106915000D01*
X82693740Y-106915000D01*
X82406842Y-106972068D01*
X82136589Y-107084010D01*
X81893368Y-107246525D01*
X81686525Y-107453368D01*
X81570000Y-107627760D01*
X81453475Y-107453368D01*
X81246632Y-107246525D01*
X81003411Y-107084010D01*
X80733158Y-106972068D01*
X80446260Y-106915000D01*
X80153740Y-106915000D01*
X79866842Y-106972068D01*
X79596589Y-107084010D01*
X79353368Y-107246525D01*
X79146525Y-107453368D01*
X79024805Y-107635534D01*
X78955178Y-107518645D01*
X78760269Y-107302412D01*
X78526920Y-107128359D01*
X78264099Y-107003175D01*
X78116890Y-106958524D01*
X77887000Y-107079845D01*
X77633000Y-107079845D01*
X77403110Y-106958524D01*
X77255901Y-107003175D01*
X76993080Y-107128359D01*
X76759731Y-107302412D01*
X76564822Y-107518645D01*
X76415843Y-107768748D01*
X76318519Y-108043109D01*
X70660000Y-108043109D01*
X70660000Y-100792702D01*
X76886903Y-100792702D01*
X76958486Y-101036671D01*
X77213996Y-101157571D01*
X77488184Y-101226300D01*
X77770512Y-101240217D01*
X78050130Y-101198787D01*
X78316292Y-101103603D01*
X78441514Y-101036671D01*
X78513097Y-100792702D01*
X77700000Y-99979605D01*
X76886903Y-100792702D01*
X70660000Y-100792702D01*
X70660000Y-99870512D01*
X76259783Y-99870512D01*
X76301213Y-100150130D01*
X76396397Y-100416292D01*
X76463329Y-100541514D01*
X76707298Y-100613097D01*
X77520395Y-99800000D01*
X77879605Y-99800000D01*
X78692702Y-100613097D01*
X78936671Y-100541514D01*
X79057571Y-100286004D01*
X79126300Y-100011816D01*
X79140217Y-99729488D01*
X79098787Y-99449870D01*
X79003603Y-99183708D01*
X78936671Y-99058486D01*
X78692702Y-98986903D01*
X77879605Y-99800000D01*
X77520395Y-99800000D01*
X76707298Y-98986903D01*
X76463329Y-99058486D01*
X76342429Y-99313996D01*
X76273700Y-99588184D01*
X76259783Y-99870512D01*
X70660000Y-99870512D01*
X70660000Y-80300000D01*
X72459509Y-80300000D01*
X72465000Y-80355752D01*
X72465001Y-93144239D01*
X72459509Y-93200000D01*
X72481423Y-93422498D01*
X72546324Y-93636446D01*
X72546325Y-93636447D01*
X72651717Y-93833623D01*
X72793552Y-94006449D01*
X72836860Y-94041991D01*
X76261928Y-97467061D01*
X76261928Y-98100000D01*
X76274188Y-98224482D01*
X76310498Y-98344180D01*
X76369463Y-98454494D01*
X76448815Y-98551185D01*
X76545506Y-98630537D01*
X76655820Y-98689502D01*
X76775518Y-98725812D01*
X76900000Y-98738072D01*
X76907215Y-98738072D01*
X76886903Y-98807298D01*
X77700000Y-99620395D01*
X78513097Y-98807298D01*
X78492785Y-98738072D01*
X78500000Y-98738072D01*
X78624482Y-98725812D01*
X78744180Y-98689502D01*
X78854494Y-98630537D01*
X78951185Y-98551185D01*
X79030537Y-98454494D01*
X79040957Y-98435000D01*
X86129869Y-98435000D01*
X88061928Y-100367060D01*
X88061928Y-101600000D01*
X88074188Y-101724482D01*
X88110498Y-101844180D01*
X88169463Y-101954494D01*
X88248815Y-102051185D01*
X88345506Y-102130537D01*
X88455820Y-102189502D01*
X88575518Y-102225812D01*
X88700000Y-102238072D01*
X90900000Y-102238072D01*
X91024482Y-102225812D01*
X91144180Y-102189502D01*
X91254494Y-102130537D01*
X91351185Y-102051185D01*
X91430537Y-101954494D01*
X91489502Y-101844180D01*
X91525812Y-101724482D01*
X91538072Y-101600000D01*
X91538072Y-99400000D01*
X91525812Y-99275518D01*
X91489502Y-99155820D01*
X91430537Y-99045506D01*
X91351185Y-98948815D01*
X91254494Y-98869463D01*
X91144180Y-98810498D01*
X91024482Y-98774188D01*
X90900000Y-98761928D01*
X89667060Y-98761928D01*
X87441996Y-96536865D01*
X87406449Y-96493551D01*
X87233623Y-96351716D01*
X87036447Y-96246324D01*
X86822499Y-96181423D01*
X86655752Y-96165000D01*
X86655751Y-96165000D01*
X86600000Y-96159509D01*
X86544249Y-96165000D01*
X79040957Y-96165000D01*
X79030537Y-96145506D01*
X78951185Y-96048815D01*
X78854494Y-95969463D01*
X78744180Y-95910498D01*
X78624482Y-95874188D01*
X78500000Y-95861928D01*
X77867061Y-95861928D01*
X74735000Y-92729869D01*
X74735000Y-88556890D01*
X76358524Y-88556890D01*
X76403175Y-88704099D01*
X76528359Y-88966920D01*
X76702412Y-89200269D01*
X76918645Y-89395178D01*
X77168748Y-89544157D01*
X77443109Y-89641481D01*
X77673000Y-89520814D01*
X77673000Y-88327000D01*
X77927000Y-88327000D01*
X77927000Y-89520814D01*
X78156891Y-89641481D01*
X78431252Y-89544157D01*
X78681355Y-89395178D01*
X78897588Y-89200269D01*
X79071641Y-88966920D01*
X79196825Y-88704099D01*
X79241476Y-88556890D01*
X79120155Y-88327000D01*
X77927000Y-88327000D01*
X77673000Y-88327000D01*
X76479845Y-88327000D01*
X76358524Y-88556890D01*
X74735000Y-88556890D01*
X74735000Y-80770131D01*
X76330133Y-79175000D01*
X76834893Y-79175000D01*
X76853368Y-79193475D01*
X77027760Y-79310000D01*
X76853368Y-79426525D01*
X76646525Y-79633368D01*
X76484010Y-79876589D01*
X76372068Y-80146842D01*
X76315000Y-80433740D01*
X76315000Y-80726260D01*
X76372068Y-81013158D01*
X76484010Y-81283411D01*
X76646525Y-81526632D01*
X76853368Y-81733475D01*
X77027760Y-81850000D01*
X76853368Y-81966525D01*
X76646525Y-82173368D01*
X76484010Y-82416589D01*
X76372068Y-82686842D01*
X76315000Y-82973740D01*
X76315000Y-83266260D01*
X76372068Y-83553158D01*
X76484010Y-83823411D01*
X76646525Y-84066632D01*
X76853368Y-84273475D01*
X77027760Y-84390000D01*
X76853368Y-84506525D01*
X76646525Y-84713368D01*
X76484010Y-84956589D01*
X76372068Y-85226842D01*
X76315000Y-85513740D01*
X76315000Y-85806260D01*
X76372068Y-86093158D01*
X76484010Y-86363411D01*
X76646525Y-86606632D01*
X76853368Y-86813475D01*
X77035534Y-86935195D01*
X76918645Y-87004822D01*
X76702412Y-87199731D01*
X76528359Y-87433080D01*
X76403175Y-87695901D01*
X76358524Y-87843110D01*
X76479845Y-88073000D01*
X77673000Y-88073000D01*
X77673000Y-88053000D01*
X77927000Y-88053000D01*
X77927000Y-88073000D01*
X79120155Y-88073000D01*
X79241476Y-87843110D01*
X79196825Y-87695901D01*
X79071641Y-87433080D01*
X78897588Y-87199731D01*
X78681355Y-87004822D01*
X78564466Y-86935195D01*
X78746632Y-86813475D01*
X78953475Y-86606632D01*
X79115990Y-86363411D01*
X79227932Y-86093158D01*
X79285000Y-85806260D01*
X79285000Y-85513740D01*
X79227932Y-85226842D01*
X79115990Y-84956589D01*
X78953475Y-84713368D01*
X78746632Y-84506525D01*
X78572240Y-84390000D01*
X78746632Y-84273475D01*
X78953475Y-84066632D01*
X79115990Y-83823411D01*
X79227932Y-83553158D01*
X79285000Y-83266260D01*
X79285000Y-82973740D01*
X79227932Y-82686842D01*
X79115990Y-82416589D01*
X78953475Y-82173368D01*
X78746632Y-81966525D01*
X78572240Y-81850000D01*
X78746632Y-81733475D01*
X78953475Y-81526632D01*
X79115990Y-81283411D01*
X79227932Y-81013158D01*
X79285000Y-80726260D01*
X79285000Y-80433740D01*
X79227932Y-80146842D01*
X79115990Y-79876589D01*
X78953475Y-79633368D01*
X78746632Y-79426525D01*
X78572240Y-79310000D01*
X78746632Y-79193475D01*
X78953475Y-78986632D01*
X79115990Y-78743411D01*
X79227932Y-78473158D01*
X79285000Y-78186260D01*
X79285000Y-77893740D01*
X79227932Y-77606842D01*
X79115990Y-77336589D01*
X79018043Y-77190000D01*
X98311928Y-77190000D01*
X98311928Y-78890000D01*
X98324188Y-79014482D01*
X98360498Y-79134180D01*
X98419463Y-79244494D01*
X98498815Y-79341185D01*
X98595506Y-79420537D01*
X98705820Y-79479502D01*
X98778380Y-79501513D01*
X98646525Y-79633368D01*
X98484010Y-79876589D01*
X98372068Y-80146842D01*
X98315000Y-80433740D01*
X98315000Y-80726260D01*
X98372068Y-81013158D01*
X98484010Y-81283411D01*
X98646525Y-81526632D01*
X98853368Y-81733475D01*
X99027760Y-81850000D01*
X98853368Y-81966525D01*
X98646525Y-82173368D01*
X98484010Y-82416589D01*
X98372068Y-82686842D01*
X98315000Y-82973740D01*
X98315000Y-83266260D01*
X98372068Y-83553158D01*
X98484010Y-83823411D01*
X98646525Y-84066632D01*
X98853368Y-84273475D01*
X99027760Y-84390000D01*
X98853368Y-84506525D01*
X98646525Y-84713368D01*
X98484010Y-84956589D01*
X98372068Y-85226842D01*
X98315000Y-85513740D01*
X98315000Y-85806260D01*
X98372068Y-86093158D01*
X98484010Y-86363411D01*
X98646525Y-86606632D01*
X98853368Y-86813475D01*
X99027760Y-86930000D01*
X98853368Y-87046525D01*
X98646525Y-87253368D01*
X98484010Y-87496589D01*
X98372068Y-87766842D01*
X98315000Y-88053740D01*
X98315000Y-88346260D01*
X98372068Y-88633158D01*
X98484010Y-88903411D01*
X98646525Y-89146632D01*
X98853368Y-89353475D01*
X99027760Y-89470000D01*
X98853368Y-89586525D01*
X98646525Y-89793368D01*
X98484010Y-90036589D01*
X98372068Y-90306842D01*
X98315000Y-90593740D01*
X98315000Y-90886260D01*
X98372068Y-91173158D01*
X98484010Y-91443411D01*
X98646525Y-91686632D01*
X98853368Y-91893475D01*
X99096589Y-92055990D01*
X99366842Y-92167932D01*
X99653740Y-92225000D01*
X99946260Y-92225000D01*
X100233158Y-92167932D01*
X100503411Y-92055990D01*
X100746632Y-91893475D01*
X100953475Y-91686632D01*
X101115990Y-91443411D01*
X101227932Y-91173158D01*
X101285000Y-90886260D01*
X101285000Y-90593740D01*
X101227932Y-90306842D01*
X101115990Y-90036589D01*
X100953475Y-89793368D01*
X100746632Y-89586525D01*
X100572240Y-89470000D01*
X100746632Y-89353475D01*
X100953475Y-89146632D01*
X101115990Y-88903411D01*
X101227932Y-88633158D01*
X101285000Y-88346260D01*
X101285000Y-88053740D01*
X101227932Y-87766842D01*
X101115990Y-87496589D01*
X100953475Y-87253368D01*
X100746632Y-87046525D01*
X100572240Y-86930000D01*
X100746632Y-86813475D01*
X100953475Y-86606632D01*
X101115990Y-86363411D01*
X101227932Y-86093158D01*
X101285000Y-85806260D01*
X101285000Y-85513740D01*
X101227932Y-85226842D01*
X101115990Y-84956589D01*
X100953475Y-84713368D01*
X100746632Y-84506525D01*
X100572240Y-84390000D01*
X100746632Y-84273475D01*
X100953475Y-84066632D01*
X101115990Y-83823411D01*
X101227932Y-83553158D01*
X101285000Y-83266260D01*
X101285000Y-82973740D01*
X101227932Y-82686842D01*
X101115990Y-82416589D01*
X100953475Y-82173368D01*
X100746632Y-81966525D01*
X100572240Y-81850000D01*
X100746632Y-81733475D01*
X100953475Y-81526632D01*
X101115990Y-81283411D01*
X101227932Y-81013158D01*
X101285000Y-80726260D01*
X101285000Y-80433740D01*
X101227932Y-80146842D01*
X101115990Y-79876589D01*
X100953475Y-79633368D01*
X100821620Y-79501513D01*
X100894180Y-79479502D01*
X101004494Y-79420537D01*
X101101185Y-79341185D01*
X101180537Y-79244494D01*
X101239502Y-79134180D01*
X101275812Y-79014482D01*
X101288072Y-78890000D01*
X101288072Y-77190000D01*
X101275812Y-77065518D01*
X101239502Y-76945820D01*
X101180537Y-76835506D01*
X101101185Y-76738815D01*
X101004494Y-76659463D01*
X100894180Y-76600498D01*
X100774482Y-76564188D01*
X100650000Y-76551928D01*
X98950000Y-76551928D01*
X98825518Y-76564188D01*
X98705820Y-76600498D01*
X98595506Y-76659463D01*
X98498815Y-76738815D01*
X98419463Y-76835506D01*
X98360498Y-76945820D01*
X98324188Y-77065518D01*
X98311928Y-77190000D01*
X79018043Y-77190000D01*
X78953475Y-77093368D01*
X78821620Y-76961513D01*
X78894180Y-76939502D01*
X79004494Y-76880537D01*
X79101185Y-76801185D01*
X79180537Y-76704494D01*
X79239502Y-76594180D01*
X79275812Y-76474482D01*
X79288072Y-76350000D01*
X79288072Y-74650000D01*
X79275812Y-74525518D01*
X79239502Y-74405820D01*
X79180537Y-74295506D01*
X79101185Y-74198815D01*
X79004494Y-74119463D01*
X78894180Y-74060498D01*
X78774482Y-74024188D01*
X78650000Y-74011928D01*
X76950000Y-74011928D01*
X76825518Y-74024188D01*
X76705820Y-74060498D01*
X76595506Y-74119463D01*
X76498815Y-74198815D01*
X76419463Y-74295506D01*
X76360498Y-74405820D01*
X76324188Y-74525518D01*
X76311928Y-74650000D01*
X76311928Y-76350000D01*
X76324188Y-76474482D01*
X76360498Y-76594180D01*
X76419463Y-76704494D01*
X76498815Y-76801185D01*
X76595506Y-76880537D01*
X76641272Y-76905000D01*
X75915752Y-76905000D01*
X75860000Y-76899509D01*
X75637501Y-76921423D01*
X75423553Y-76986324D01*
X75226377Y-77091716D01*
X75096856Y-77198011D01*
X75096854Y-77198013D01*
X75053551Y-77233551D01*
X75018013Y-77276854D01*
X72836864Y-79458004D01*
X72793551Y-79493551D01*
X72651716Y-79666377D01*
X72546325Y-79863553D01*
X72546324Y-79863554D01*
X72481423Y-80077502D01*
X72459509Y-80300000D01*
X70660000Y-80300000D01*
X70660000Y-70804155D01*
X71021161Y-71344670D01*
X71555330Y-71878839D01*
X72183446Y-72298533D01*
X72881372Y-72587623D01*
X73622285Y-72735000D01*
X74377715Y-72735000D01*
X75118628Y-72587623D01*
X75816554Y-72298533D01*
X76444670Y-71878839D01*
X76978839Y-71344670D01*
X77398533Y-70716554D01*
X77687623Y-70018628D01*
X77835000Y-69277715D01*
X77835000Y-68522285D01*
X77687623Y-67781372D01*
X77398533Y-67083446D01*
X76978839Y-66455330D01*
X76444670Y-65921161D01*
X76053815Y-65660000D01*
X106946185Y-65660000D01*
X106555330Y-65921161D01*
%TD*%
M02*
