M48
INCH,TZ
T1C0.0315
T2C0.0394
T3C0.0433
T4C0.0512
T5C0.1260
%
G90
G05
T1
X30591Y-38307
X30591Y-39291
T2
X39055Y-30709
X39055Y-31709
X39055Y-32709
X39055Y-33709
X39055Y-34709
X39055Y-35709
X30630Y-29724
X30630Y-30724
X30630Y-31724
X30630Y-32724
X30630Y-33724
X30630Y-34724
X42150Y-31843
X42150Y-32843
X42150Y-33843
X42150Y-34843
X42150Y-35843
X42150Y-36843
X42150Y-37843
X42150Y-38843
X42150Y-39843
X42150Y-40843
X42150Y-41843
X42150Y-42843
X42150Y-43843
X42150Y-44843
X42150Y-45843
X42150Y-46843
X42150Y-47843
X42150Y-48843
X42150Y-49843
X42150Y-50843
X43150Y-31843
X43150Y-32843
X43150Y-33843
X43150Y-34843
X43150Y-35843
X43150Y-36843
X43150Y-37843
X43150Y-38843
X43150Y-39843
X43150Y-40843
X43150Y-41843
X43150Y-42843
X43150Y-43843
X43150Y-44843
X43150Y-45843
X43150Y-46843
X43150Y-47843
X43150Y-48843
X43150Y-49843
X43150Y-50843
X30614Y-42677
X31614Y-42677
X32614Y-42677
X33614Y-42677
T3
X35354Y-39567
X39354Y-39567
T4
X38429Y-56059
X40429Y-56059
T5
X42913Y-27126
X42913Y-57520
X29134Y-57520
X29134Y-27126
T0
M30
