G04 #@! TF.GenerationSoftware,KiCad,Pcbnew,5.1.6+dfsg1-1*
G04 #@! TF.CreationDate,2021-04-08T12:45:13+02:00*
G04 #@! TF.ProjectId,gsm-rtc-board,67736d2d-7274-4632-9d62-6f6172642e6b,rev?*
G04 #@! TF.SameCoordinates,Original*
G04 #@! TF.FileFunction,Copper,L2,Bot*
G04 #@! TF.FilePolarity,Positive*
%FSLAX46Y46*%
G04 Gerber Fmt 4.6, Leading zero omitted, Abs format (unit mm)*
G04 Created by KiCad (PCBNEW 5.1.6+dfsg1-1) date 2021-04-08 12:45:13*
%MOMM*%
%LPD*%
G01*
G04 APERTURE LIST*
G04 #@! TA.AperFunction,ComponentPad*
%ADD10O,1.700000X1.700000*%
G04 #@! TD*
G04 #@! TA.AperFunction,ComponentPad*
%ADD11R,1.700000X1.700000*%
G04 #@! TD*
G04 #@! TA.AperFunction,ComponentPad*
%ADD12C,6.400000*%
G04 #@! TD*
G04 #@! TA.AperFunction,ComponentPad*
%ADD13C,2.600000*%
G04 #@! TD*
G04 #@! TA.AperFunction,ComponentPad*
%ADD14R,2.600000X2.600000*%
G04 #@! TD*
G04 #@! TA.AperFunction,ComponentPad*
%ADD15O,2.200000X2.200000*%
G04 #@! TD*
G04 #@! TA.AperFunction,ComponentPad*
%ADD16R,2.200000X2.200000*%
G04 #@! TD*
G04 #@! TA.AperFunction,ComponentPad*
%ADD17C,1.600000*%
G04 #@! TD*
G04 #@! TA.AperFunction,ComponentPad*
%ADD18R,1.600000X1.600000*%
G04 #@! TD*
G04 #@! TA.AperFunction,Conductor*
%ADD19C,1.000000*%
G04 #@! TD*
G04 #@! TA.AperFunction,Conductor*
%ADD20C,0.254000*%
G04 #@! TD*
G04 APERTURE END LIST*
D10*
X77760000Y-108400000D03*
X80300000Y-108400000D03*
X82840000Y-108400000D03*
D11*
X85380000Y-108400000D03*
D12*
X74000000Y-146100000D03*
X109000000Y-146100000D03*
X109000000Y-68900000D03*
X74000000Y-68900000D03*
D10*
X100500000Y-90700000D03*
X100500000Y-88160000D03*
X100500000Y-85620000D03*
X100500000Y-83080000D03*
X100500000Y-80540000D03*
D11*
X100500000Y-78000000D03*
D10*
X77800000Y-88200000D03*
X77800000Y-85660000D03*
X77800000Y-83120000D03*
X77800000Y-80580000D03*
X77800000Y-78040000D03*
D11*
X77800000Y-75500000D03*
D10*
X109600000Y-129140000D03*
X107060000Y-129140000D03*
X109600000Y-126600000D03*
X107060000Y-126600000D03*
X109600000Y-124060000D03*
X107060000Y-124060000D03*
X109600000Y-121520000D03*
X107060000Y-121520000D03*
X109600000Y-118980000D03*
X107060000Y-118980000D03*
X109600000Y-116440000D03*
X107060000Y-116440000D03*
X109600000Y-113900000D03*
X107060000Y-113900000D03*
X109600000Y-111360000D03*
X107060000Y-111360000D03*
X109600000Y-108820000D03*
X107060000Y-108820000D03*
X109600000Y-106280000D03*
X107060000Y-106280000D03*
X109600000Y-103740000D03*
X107060000Y-103740000D03*
X109600000Y-101200000D03*
X107060000Y-101200000D03*
X109600000Y-98660000D03*
X107060000Y-98660000D03*
X109600000Y-96120000D03*
X107060000Y-96120000D03*
X109600000Y-93580000D03*
X107060000Y-93580000D03*
X109600000Y-91040000D03*
X107060000Y-91040000D03*
X109600000Y-88500000D03*
X107060000Y-88500000D03*
X109600000Y-85960000D03*
X107060000Y-85960000D03*
X109600000Y-83420000D03*
X107060000Y-83420000D03*
X109600000Y-80880000D03*
D11*
X107060000Y-80880000D03*
D13*
X102690000Y-142390000D03*
D14*
X97610000Y-142390000D03*
D15*
X99960000Y-100500000D03*
D16*
X89800000Y-100500000D03*
D17*
X77700000Y-99800000D03*
D18*
X77700000Y-97300000D03*
D19*
X86600000Y-97300000D02*
X89800000Y-100500000D01*
X77700000Y-97300000D02*
X86600000Y-97300000D01*
X77800000Y-78040000D02*
X75860000Y-78040000D01*
X75860000Y-78040000D02*
X73600000Y-80300000D01*
X73600000Y-93200000D02*
X77700000Y-97300000D01*
X73600000Y-80300000D02*
X73600000Y-93200000D01*
X109600000Y-80880000D02*
X109600000Y-78700000D01*
X109600000Y-78700000D02*
X108400000Y-77500000D01*
X108400000Y-77500000D02*
X104700000Y-77500000D01*
X104700000Y-77500000D02*
X103300000Y-78900000D01*
X103300000Y-97160000D02*
X99960000Y-100500000D01*
X103300000Y-78900000D02*
X103300000Y-97160000D01*
X109600000Y-83420000D02*
X109600000Y-80880000D01*
X97610000Y-102850000D02*
X99960000Y-100500000D01*
X97610000Y-142390000D02*
X97610000Y-102850000D01*
X80300000Y-107197919D02*
X80300000Y-108400000D01*
X84647919Y-102850000D02*
X80300000Y-107197919D01*
X97610000Y-102850000D02*
X84647919Y-102850000D01*
D20*
G36*
X106555330Y-65921161D02*
G01*
X106021161Y-66455330D01*
X105601467Y-67083446D01*
X105312377Y-67781372D01*
X105165000Y-68522285D01*
X105165000Y-69277715D01*
X105312377Y-70018628D01*
X105601467Y-70716554D01*
X106021161Y-71344670D01*
X106555330Y-71878839D01*
X107183446Y-72298533D01*
X107881372Y-72587623D01*
X108622285Y-72735000D01*
X109377715Y-72735000D01*
X110118628Y-72587623D01*
X110816554Y-72298533D01*
X111444670Y-71878839D01*
X111978839Y-71344670D01*
X112340001Y-70804153D01*
X112340000Y-144195845D01*
X111978839Y-143655330D01*
X111444670Y-143121161D01*
X110816554Y-142701467D01*
X110118628Y-142412377D01*
X109377715Y-142265000D01*
X108622285Y-142265000D01*
X107881372Y-142412377D01*
X107183446Y-142701467D01*
X106555330Y-143121161D01*
X106021161Y-143655330D01*
X105601467Y-144283446D01*
X105312377Y-144981372D01*
X105165000Y-145722285D01*
X105165000Y-146477715D01*
X105312377Y-147218628D01*
X105601467Y-147916554D01*
X106021161Y-148544670D01*
X106555330Y-149078839D01*
X106946185Y-149340000D01*
X76053815Y-149340000D01*
X76444670Y-149078839D01*
X76978839Y-148544670D01*
X77398533Y-147916554D01*
X77687623Y-147218628D01*
X77835000Y-146477715D01*
X77835000Y-145722285D01*
X77687623Y-144981372D01*
X77398533Y-144283446D01*
X76978839Y-143655330D01*
X76444670Y-143121161D01*
X75816554Y-142701467D01*
X75118628Y-142412377D01*
X74377715Y-142265000D01*
X73622285Y-142265000D01*
X72881372Y-142412377D01*
X72183446Y-142701467D01*
X71555330Y-143121161D01*
X71021161Y-143655330D01*
X70660000Y-144195845D01*
X70660000Y-139728140D01*
X70917023Y-139985163D01*
X71272355Y-140222588D01*
X71667179Y-140386130D01*
X72086323Y-140469503D01*
X72513677Y-140469503D01*
X72932821Y-140386130D01*
X73327645Y-140222588D01*
X73682977Y-139985163D01*
X73985163Y-139682977D01*
X74222588Y-139327645D01*
X74386130Y-138932821D01*
X74469503Y-138513677D01*
X74469503Y-138086323D01*
X89100497Y-138086323D01*
X89100497Y-138513677D01*
X89183870Y-138932821D01*
X89347412Y-139327645D01*
X89584837Y-139682977D01*
X89887023Y-139985163D01*
X90242355Y-140222588D01*
X90637179Y-140386130D01*
X91056323Y-140469503D01*
X91483677Y-140469503D01*
X91902821Y-140386130D01*
X92297645Y-140222588D01*
X92652977Y-139985163D01*
X92955163Y-139682977D01*
X93192588Y-139327645D01*
X93356130Y-138932821D01*
X93439503Y-138513677D01*
X93439503Y-138086323D01*
X93356130Y-137667179D01*
X93192588Y-137272355D01*
X92955163Y-136917023D01*
X92652977Y-136614837D01*
X92297645Y-136377412D01*
X91902821Y-136213870D01*
X91483677Y-136130497D01*
X91056323Y-136130497D01*
X90637179Y-136213870D01*
X90242355Y-136377412D01*
X89887023Y-136614837D01*
X89584837Y-136917023D01*
X89347412Y-137272355D01*
X89183870Y-137667179D01*
X89100497Y-138086323D01*
X74469503Y-138086323D01*
X74386130Y-137667179D01*
X74222588Y-137272355D01*
X73985163Y-136917023D01*
X73682977Y-136614837D01*
X73327645Y-136377412D01*
X72932821Y-136213870D01*
X72513677Y-136130497D01*
X72086323Y-136130497D01*
X71667179Y-136213870D01*
X71272355Y-136377412D01*
X70917023Y-136614837D01*
X70660000Y-136871860D01*
X70660000Y-110676323D01*
X89130497Y-110676323D01*
X89130497Y-111103677D01*
X89213870Y-111522821D01*
X89377412Y-111917645D01*
X89614837Y-112272977D01*
X89917023Y-112575163D01*
X90272355Y-112812588D01*
X90667179Y-112976130D01*
X91086323Y-113059503D01*
X91513677Y-113059503D01*
X91932821Y-112976130D01*
X92327645Y-112812588D01*
X92682977Y-112575163D01*
X92985163Y-112272977D01*
X93222588Y-111917645D01*
X93386130Y-111522821D01*
X93469503Y-111103677D01*
X93469503Y-110676323D01*
X93386130Y-110257179D01*
X93222588Y-109862355D01*
X92985163Y-109507023D01*
X92682977Y-109204837D01*
X92327645Y-108967412D01*
X91932821Y-108803870D01*
X91513677Y-108720497D01*
X91086323Y-108720497D01*
X90667179Y-108803870D01*
X90272355Y-108967412D01*
X89917023Y-109204837D01*
X89614837Y-109507023D01*
X89377412Y-109862355D01*
X89213870Y-110257179D01*
X89130497Y-110676323D01*
X70660000Y-110676323D01*
X70660000Y-108756891D01*
X76318519Y-108756891D01*
X76415843Y-109031252D01*
X76564822Y-109281355D01*
X76759731Y-109497588D01*
X76993080Y-109671641D01*
X77255901Y-109796825D01*
X77403110Y-109841476D01*
X77633000Y-109720155D01*
X77633000Y-108527000D01*
X76439186Y-108527000D01*
X76318519Y-108756891D01*
X70660000Y-108756891D01*
X70660000Y-108043109D01*
X76318519Y-108043109D01*
X76439186Y-108273000D01*
X77633000Y-108273000D01*
X77633000Y-107079845D01*
X77403110Y-106958524D01*
X77255901Y-107003175D01*
X76993080Y-107128359D01*
X76759731Y-107302412D01*
X76564822Y-107518645D01*
X76415843Y-107768748D01*
X76318519Y-108043109D01*
X70660000Y-108043109D01*
X70660000Y-100792702D01*
X76886903Y-100792702D01*
X76958486Y-101036671D01*
X77213996Y-101157571D01*
X77488184Y-101226300D01*
X77770512Y-101240217D01*
X78050130Y-101198787D01*
X78316292Y-101103603D01*
X78441514Y-101036671D01*
X78513097Y-100792702D01*
X77700000Y-99979605D01*
X76886903Y-100792702D01*
X70660000Y-100792702D01*
X70660000Y-99870512D01*
X76259783Y-99870512D01*
X76301213Y-100150130D01*
X76396397Y-100416292D01*
X76463329Y-100541514D01*
X76707298Y-100613097D01*
X77520395Y-99800000D01*
X77879605Y-99800000D01*
X78692702Y-100613097D01*
X78936671Y-100541514D01*
X79057571Y-100286004D01*
X79126300Y-100011816D01*
X79140217Y-99729488D01*
X79098787Y-99449870D01*
X79003603Y-99183708D01*
X78936671Y-99058486D01*
X78692702Y-98986903D01*
X77879605Y-99800000D01*
X77520395Y-99800000D01*
X76707298Y-98986903D01*
X76463329Y-99058486D01*
X76342429Y-99313996D01*
X76273700Y-99588184D01*
X76259783Y-99870512D01*
X70660000Y-99870512D01*
X70660000Y-80300000D01*
X72459509Y-80300000D01*
X72465000Y-80355752D01*
X72465001Y-93144239D01*
X72459509Y-93200000D01*
X72481423Y-93422498D01*
X72546324Y-93636446D01*
X72546325Y-93636447D01*
X72651717Y-93833623D01*
X72793552Y-94006449D01*
X72836860Y-94041991D01*
X76261928Y-97467061D01*
X76261928Y-98100000D01*
X76274188Y-98224482D01*
X76310498Y-98344180D01*
X76369463Y-98454494D01*
X76448815Y-98551185D01*
X76545506Y-98630537D01*
X76655820Y-98689502D01*
X76775518Y-98725812D01*
X76900000Y-98738072D01*
X76907215Y-98738072D01*
X76886903Y-98807298D01*
X77700000Y-99620395D01*
X78513097Y-98807298D01*
X78492785Y-98738072D01*
X78500000Y-98738072D01*
X78624482Y-98725812D01*
X78744180Y-98689502D01*
X78854494Y-98630537D01*
X78951185Y-98551185D01*
X79030537Y-98454494D01*
X79040957Y-98435000D01*
X86129869Y-98435000D01*
X88061928Y-100367060D01*
X88061928Y-101600000D01*
X88073254Y-101715000D01*
X84703670Y-101715000D01*
X84647918Y-101709509D01*
X84592167Y-101715000D01*
X84425420Y-101731423D01*
X84211472Y-101796324D01*
X84014296Y-101901716D01*
X83841470Y-102043551D01*
X83805930Y-102086857D01*
X79536865Y-106355923D01*
X79493551Y-106391470D01*
X79351716Y-106564296D01*
X79272149Y-106713158D01*
X79246324Y-106761473D01*
X79181423Y-106975421D01*
X79159509Y-107197919D01*
X79165000Y-107253670D01*
X79165000Y-107434893D01*
X79146525Y-107453368D01*
X79024805Y-107635534D01*
X78955178Y-107518645D01*
X78760269Y-107302412D01*
X78526920Y-107128359D01*
X78264099Y-107003175D01*
X78116890Y-106958524D01*
X77887000Y-107079845D01*
X77887000Y-108273000D01*
X77907000Y-108273000D01*
X77907000Y-108527000D01*
X77887000Y-108527000D01*
X77887000Y-109720155D01*
X78116890Y-109841476D01*
X78264099Y-109796825D01*
X78526920Y-109671641D01*
X78760269Y-109497588D01*
X78955178Y-109281355D01*
X79024805Y-109164466D01*
X79146525Y-109346632D01*
X79353368Y-109553475D01*
X79596589Y-109715990D01*
X79866842Y-109827932D01*
X80153740Y-109885000D01*
X80446260Y-109885000D01*
X80733158Y-109827932D01*
X81003411Y-109715990D01*
X81246632Y-109553475D01*
X81453475Y-109346632D01*
X81570000Y-109172240D01*
X81686525Y-109346632D01*
X81893368Y-109553475D01*
X82136589Y-109715990D01*
X82406842Y-109827932D01*
X82693740Y-109885000D01*
X82986260Y-109885000D01*
X83273158Y-109827932D01*
X83543411Y-109715990D01*
X83786632Y-109553475D01*
X83918487Y-109421620D01*
X83940498Y-109494180D01*
X83999463Y-109604494D01*
X84078815Y-109701185D01*
X84175506Y-109780537D01*
X84285820Y-109839502D01*
X84405518Y-109875812D01*
X84530000Y-109888072D01*
X86230000Y-109888072D01*
X86354482Y-109875812D01*
X86474180Y-109839502D01*
X86584494Y-109780537D01*
X86681185Y-109701185D01*
X86760537Y-109604494D01*
X86819502Y-109494180D01*
X86855812Y-109374482D01*
X86868072Y-109250000D01*
X86868072Y-107550000D01*
X86855812Y-107425518D01*
X86819502Y-107305820D01*
X86760537Y-107195506D01*
X86681185Y-107098815D01*
X86584494Y-107019463D01*
X86474180Y-106960498D01*
X86354482Y-106924188D01*
X86230000Y-106911928D01*
X84530000Y-106911928D01*
X84405518Y-106924188D01*
X84285820Y-106960498D01*
X84175506Y-107019463D01*
X84078815Y-107098815D01*
X83999463Y-107195506D01*
X83940498Y-107305820D01*
X83918487Y-107378380D01*
X83786632Y-107246525D01*
X83543411Y-107084010D01*
X83273158Y-106972068D01*
X82986260Y-106915000D01*
X82693740Y-106915000D01*
X82406842Y-106972068D01*
X82136589Y-107084010D01*
X81893368Y-107246525D01*
X81686525Y-107453368D01*
X81570000Y-107627760D01*
X81532065Y-107570986D01*
X85118051Y-103985000D01*
X96475001Y-103985000D01*
X96475000Y-140451928D01*
X96310000Y-140451928D01*
X96185518Y-140464188D01*
X96065820Y-140500498D01*
X95955506Y-140559463D01*
X95858815Y-140638815D01*
X95779463Y-140735506D01*
X95720498Y-140845820D01*
X95684188Y-140965518D01*
X95671928Y-141090000D01*
X95671928Y-143690000D01*
X95684188Y-143814482D01*
X95720498Y-143934180D01*
X95779463Y-144044494D01*
X95858815Y-144141185D01*
X95955506Y-144220537D01*
X96065820Y-144279502D01*
X96185518Y-144315812D01*
X96310000Y-144328072D01*
X98910000Y-144328072D01*
X99034482Y-144315812D01*
X99154180Y-144279502D01*
X99264494Y-144220537D01*
X99361185Y-144141185D01*
X99440537Y-144044494D01*
X99499502Y-143934180D01*
X99535812Y-143814482D01*
X99543224Y-143739224D01*
X101520381Y-143739224D01*
X101652317Y-144034312D01*
X101993045Y-144205159D01*
X102360557Y-144306250D01*
X102740729Y-144333701D01*
X103118951Y-144286457D01*
X103480690Y-144166333D01*
X103727683Y-144034312D01*
X103859619Y-143739224D01*
X102690000Y-142569605D01*
X101520381Y-143739224D01*
X99543224Y-143739224D01*
X99548072Y-143690000D01*
X99548072Y-142440729D01*
X100746299Y-142440729D01*
X100793543Y-142818951D01*
X100913667Y-143180690D01*
X101045688Y-143427683D01*
X101340776Y-143559619D01*
X102510395Y-142390000D01*
X102869605Y-142390000D01*
X104039224Y-143559619D01*
X104334312Y-143427683D01*
X104505159Y-143086955D01*
X104606250Y-142719443D01*
X104633701Y-142339271D01*
X104586457Y-141961049D01*
X104466333Y-141599310D01*
X104334312Y-141352317D01*
X104039224Y-141220381D01*
X102869605Y-142390000D01*
X102510395Y-142390000D01*
X101340776Y-141220381D01*
X101045688Y-141352317D01*
X100874841Y-141693045D01*
X100773750Y-142060557D01*
X100746299Y-142440729D01*
X99548072Y-142440729D01*
X99548072Y-141090000D01*
X99543225Y-141040776D01*
X101520381Y-141040776D01*
X102690000Y-142210395D01*
X103859619Y-141040776D01*
X103727683Y-140745688D01*
X103386955Y-140574841D01*
X103019443Y-140473750D01*
X102639271Y-140446299D01*
X102261049Y-140493543D01*
X101899310Y-140613667D01*
X101652317Y-140745688D01*
X101520381Y-141040776D01*
X99543225Y-141040776D01*
X99535812Y-140965518D01*
X99499502Y-140845820D01*
X99440537Y-140735506D01*
X99361185Y-140638815D01*
X99264494Y-140559463D01*
X99154180Y-140500498D01*
X99034482Y-140464188D01*
X98910000Y-140451928D01*
X98745000Y-140451928D01*
X98745000Y-129496890D01*
X105618524Y-129496890D01*
X105663175Y-129644099D01*
X105788359Y-129906920D01*
X105962412Y-130140269D01*
X106178645Y-130335178D01*
X106428748Y-130484157D01*
X106703109Y-130581481D01*
X106933000Y-130460814D01*
X106933000Y-129267000D01*
X105739845Y-129267000D01*
X105618524Y-129496890D01*
X98745000Y-129496890D01*
X98745000Y-103320131D01*
X99830132Y-102235000D01*
X100130883Y-102235000D01*
X100466081Y-102168325D01*
X100781831Y-102037537D01*
X101065998Y-101847663D01*
X101307663Y-101605998D01*
X101497537Y-101321831D01*
X101628325Y-101006081D01*
X101695000Y-100670883D01*
X101695000Y-100370131D01*
X104063141Y-98001991D01*
X104106449Y-97966449D01*
X104248284Y-97793623D01*
X104353676Y-97596447D01*
X104418577Y-97382499D01*
X104435000Y-97215752D01*
X104435000Y-97215743D01*
X104440490Y-97160001D01*
X104435000Y-97104259D01*
X104435000Y-79370131D01*
X105170132Y-78635000D01*
X107929869Y-78635000D01*
X108465001Y-79170132D01*
X108465001Y-79721273D01*
X108440537Y-79675506D01*
X108361185Y-79578815D01*
X108264494Y-79499463D01*
X108154180Y-79440498D01*
X108034482Y-79404188D01*
X107910000Y-79391928D01*
X106210000Y-79391928D01*
X106085518Y-79404188D01*
X105965820Y-79440498D01*
X105855506Y-79499463D01*
X105758815Y-79578815D01*
X105679463Y-79675506D01*
X105620498Y-79785820D01*
X105584188Y-79905518D01*
X105571928Y-80030000D01*
X105571928Y-81730000D01*
X105584188Y-81854482D01*
X105620498Y-81974180D01*
X105679463Y-82084494D01*
X105758815Y-82181185D01*
X105855506Y-82260537D01*
X105965820Y-82319502D01*
X106038380Y-82341513D01*
X105906525Y-82473368D01*
X105744010Y-82716589D01*
X105632068Y-82986842D01*
X105575000Y-83273740D01*
X105575000Y-83566260D01*
X105632068Y-83853158D01*
X105744010Y-84123411D01*
X105906525Y-84366632D01*
X106113368Y-84573475D01*
X106287760Y-84690000D01*
X106113368Y-84806525D01*
X105906525Y-85013368D01*
X105744010Y-85256589D01*
X105632068Y-85526842D01*
X105575000Y-85813740D01*
X105575000Y-86106260D01*
X105632068Y-86393158D01*
X105744010Y-86663411D01*
X105906525Y-86906632D01*
X106113368Y-87113475D01*
X106287760Y-87230000D01*
X106113368Y-87346525D01*
X105906525Y-87553368D01*
X105744010Y-87796589D01*
X105632068Y-88066842D01*
X105575000Y-88353740D01*
X105575000Y-88646260D01*
X105632068Y-88933158D01*
X105744010Y-89203411D01*
X105906525Y-89446632D01*
X106113368Y-89653475D01*
X106295534Y-89775195D01*
X106178645Y-89844822D01*
X105962412Y-90039731D01*
X105788359Y-90273080D01*
X105663175Y-90535901D01*
X105618524Y-90683110D01*
X105739845Y-90913000D01*
X106933000Y-90913000D01*
X106933000Y-90893000D01*
X107187000Y-90893000D01*
X107187000Y-90913000D01*
X107207000Y-90913000D01*
X107207000Y-91167000D01*
X107187000Y-91167000D01*
X107187000Y-91187000D01*
X106933000Y-91187000D01*
X106933000Y-91167000D01*
X105739845Y-91167000D01*
X105618524Y-91396890D01*
X105663175Y-91544099D01*
X105788359Y-91806920D01*
X105962412Y-92040269D01*
X106178645Y-92235178D01*
X106295534Y-92304805D01*
X106113368Y-92426525D01*
X105906525Y-92633368D01*
X105744010Y-92876589D01*
X105632068Y-93146842D01*
X105575000Y-93433740D01*
X105575000Y-93726260D01*
X105632068Y-94013158D01*
X105744010Y-94283411D01*
X105906525Y-94526632D01*
X106113368Y-94733475D01*
X106287760Y-94850000D01*
X106113368Y-94966525D01*
X105906525Y-95173368D01*
X105744010Y-95416589D01*
X105632068Y-95686842D01*
X105575000Y-95973740D01*
X105575000Y-96266260D01*
X105632068Y-96553158D01*
X105744010Y-96823411D01*
X105906525Y-97066632D01*
X106113368Y-97273475D01*
X106287760Y-97390000D01*
X106113368Y-97506525D01*
X105906525Y-97713368D01*
X105744010Y-97956589D01*
X105632068Y-98226842D01*
X105575000Y-98513740D01*
X105575000Y-98806260D01*
X105632068Y-99093158D01*
X105744010Y-99363411D01*
X105906525Y-99606632D01*
X106113368Y-99813475D01*
X106287760Y-99930000D01*
X106113368Y-100046525D01*
X105906525Y-100253368D01*
X105744010Y-100496589D01*
X105632068Y-100766842D01*
X105575000Y-101053740D01*
X105575000Y-101346260D01*
X105632068Y-101633158D01*
X105744010Y-101903411D01*
X105906525Y-102146632D01*
X106113368Y-102353475D01*
X106287760Y-102470000D01*
X106113368Y-102586525D01*
X105906525Y-102793368D01*
X105744010Y-103036589D01*
X105632068Y-103306842D01*
X105575000Y-103593740D01*
X105575000Y-103886260D01*
X105632068Y-104173158D01*
X105744010Y-104443411D01*
X105906525Y-104686632D01*
X106113368Y-104893475D01*
X106287760Y-105010000D01*
X106113368Y-105126525D01*
X105906525Y-105333368D01*
X105744010Y-105576589D01*
X105632068Y-105846842D01*
X105575000Y-106133740D01*
X105575000Y-106426260D01*
X105632068Y-106713158D01*
X105744010Y-106983411D01*
X105906525Y-107226632D01*
X106113368Y-107433475D01*
X106287760Y-107550000D01*
X106113368Y-107666525D01*
X105906525Y-107873368D01*
X105744010Y-108116589D01*
X105632068Y-108386842D01*
X105575000Y-108673740D01*
X105575000Y-108966260D01*
X105632068Y-109253158D01*
X105744010Y-109523411D01*
X105906525Y-109766632D01*
X106113368Y-109973475D01*
X106295534Y-110095195D01*
X106178645Y-110164822D01*
X105962412Y-110359731D01*
X105788359Y-110593080D01*
X105663175Y-110855901D01*
X105618524Y-111003110D01*
X105739845Y-111233000D01*
X106933000Y-111233000D01*
X106933000Y-111213000D01*
X107187000Y-111213000D01*
X107187000Y-111233000D01*
X107207000Y-111233000D01*
X107207000Y-111487000D01*
X107187000Y-111487000D01*
X107187000Y-111507000D01*
X106933000Y-111507000D01*
X106933000Y-111487000D01*
X105739845Y-111487000D01*
X105618524Y-111716890D01*
X105663175Y-111864099D01*
X105788359Y-112126920D01*
X105962412Y-112360269D01*
X106178645Y-112555178D01*
X106295534Y-112624805D01*
X106113368Y-112746525D01*
X105906525Y-112953368D01*
X105744010Y-113196589D01*
X105632068Y-113466842D01*
X105575000Y-113753740D01*
X105575000Y-114046260D01*
X105632068Y-114333158D01*
X105744010Y-114603411D01*
X105906525Y-114846632D01*
X106113368Y-115053475D01*
X106287760Y-115170000D01*
X106113368Y-115286525D01*
X105906525Y-115493368D01*
X105744010Y-115736589D01*
X105632068Y-116006842D01*
X105575000Y-116293740D01*
X105575000Y-116586260D01*
X105632068Y-116873158D01*
X105744010Y-117143411D01*
X105906525Y-117386632D01*
X106113368Y-117593475D01*
X106287760Y-117710000D01*
X106113368Y-117826525D01*
X105906525Y-118033368D01*
X105744010Y-118276589D01*
X105632068Y-118546842D01*
X105575000Y-118833740D01*
X105575000Y-119126260D01*
X105632068Y-119413158D01*
X105744010Y-119683411D01*
X105906525Y-119926632D01*
X106113368Y-120133475D01*
X106287760Y-120250000D01*
X106113368Y-120366525D01*
X105906525Y-120573368D01*
X105744010Y-120816589D01*
X105632068Y-121086842D01*
X105575000Y-121373740D01*
X105575000Y-121666260D01*
X105632068Y-121953158D01*
X105744010Y-122223411D01*
X105906525Y-122466632D01*
X106113368Y-122673475D01*
X106287760Y-122790000D01*
X106113368Y-122906525D01*
X105906525Y-123113368D01*
X105744010Y-123356589D01*
X105632068Y-123626842D01*
X105575000Y-123913740D01*
X105575000Y-124206260D01*
X105632068Y-124493158D01*
X105744010Y-124763411D01*
X105906525Y-125006632D01*
X106113368Y-125213475D01*
X106287760Y-125330000D01*
X106113368Y-125446525D01*
X105906525Y-125653368D01*
X105744010Y-125896589D01*
X105632068Y-126166842D01*
X105575000Y-126453740D01*
X105575000Y-126746260D01*
X105632068Y-127033158D01*
X105744010Y-127303411D01*
X105906525Y-127546632D01*
X106113368Y-127753475D01*
X106295534Y-127875195D01*
X106178645Y-127944822D01*
X105962412Y-128139731D01*
X105788359Y-128373080D01*
X105663175Y-128635901D01*
X105618524Y-128783110D01*
X105739845Y-129013000D01*
X106933000Y-129013000D01*
X106933000Y-128993000D01*
X107187000Y-128993000D01*
X107187000Y-129013000D01*
X107207000Y-129013000D01*
X107207000Y-129267000D01*
X107187000Y-129267000D01*
X107187000Y-130460814D01*
X107416891Y-130581481D01*
X107691252Y-130484157D01*
X107941355Y-130335178D01*
X108157588Y-130140269D01*
X108328900Y-129910594D01*
X108446525Y-130086632D01*
X108653368Y-130293475D01*
X108896589Y-130455990D01*
X109166842Y-130567932D01*
X109453740Y-130625000D01*
X109746260Y-130625000D01*
X110033158Y-130567932D01*
X110303411Y-130455990D01*
X110546632Y-130293475D01*
X110753475Y-130086632D01*
X110915990Y-129843411D01*
X111027932Y-129573158D01*
X111085000Y-129286260D01*
X111085000Y-128993740D01*
X111027932Y-128706842D01*
X110915990Y-128436589D01*
X110753475Y-128193368D01*
X110546632Y-127986525D01*
X110372240Y-127870000D01*
X110546632Y-127753475D01*
X110753475Y-127546632D01*
X110915990Y-127303411D01*
X111027932Y-127033158D01*
X111085000Y-126746260D01*
X111085000Y-126453740D01*
X111027932Y-126166842D01*
X110915990Y-125896589D01*
X110753475Y-125653368D01*
X110546632Y-125446525D01*
X110372240Y-125330000D01*
X110546632Y-125213475D01*
X110753475Y-125006632D01*
X110915990Y-124763411D01*
X111027932Y-124493158D01*
X111085000Y-124206260D01*
X111085000Y-123913740D01*
X111027932Y-123626842D01*
X110915990Y-123356589D01*
X110753475Y-123113368D01*
X110546632Y-122906525D01*
X110364466Y-122784805D01*
X110481355Y-122715178D01*
X110697588Y-122520269D01*
X110871641Y-122286920D01*
X110996825Y-122024099D01*
X111041476Y-121876890D01*
X110920155Y-121647000D01*
X109727000Y-121647000D01*
X109727000Y-121667000D01*
X109473000Y-121667000D01*
X109473000Y-121647000D01*
X109453000Y-121647000D01*
X109453000Y-121393000D01*
X109473000Y-121393000D01*
X109473000Y-121373000D01*
X109727000Y-121373000D01*
X109727000Y-121393000D01*
X110920155Y-121393000D01*
X111041476Y-121163110D01*
X110996825Y-121015901D01*
X110871641Y-120753080D01*
X110697588Y-120519731D01*
X110481355Y-120324822D01*
X110364466Y-120255195D01*
X110546632Y-120133475D01*
X110753475Y-119926632D01*
X110915990Y-119683411D01*
X111027932Y-119413158D01*
X111085000Y-119126260D01*
X111085000Y-118833740D01*
X111027932Y-118546842D01*
X110915990Y-118276589D01*
X110753475Y-118033368D01*
X110546632Y-117826525D01*
X110364466Y-117704805D01*
X110481355Y-117635178D01*
X110697588Y-117440269D01*
X110871641Y-117206920D01*
X110996825Y-116944099D01*
X111041476Y-116796890D01*
X110920155Y-116567000D01*
X109727000Y-116567000D01*
X109727000Y-116587000D01*
X109473000Y-116587000D01*
X109473000Y-116567000D01*
X109453000Y-116567000D01*
X109453000Y-116313000D01*
X109473000Y-116313000D01*
X109473000Y-116293000D01*
X109727000Y-116293000D01*
X109727000Y-116313000D01*
X110920155Y-116313000D01*
X111041476Y-116083110D01*
X110996825Y-115935901D01*
X110871641Y-115673080D01*
X110697588Y-115439731D01*
X110481355Y-115244822D01*
X110364466Y-115175195D01*
X110546632Y-115053475D01*
X110753475Y-114846632D01*
X110915990Y-114603411D01*
X111027932Y-114333158D01*
X111085000Y-114046260D01*
X111085000Y-113753740D01*
X111027932Y-113466842D01*
X110915990Y-113196589D01*
X110753475Y-112953368D01*
X110546632Y-112746525D01*
X110372240Y-112630000D01*
X110546632Y-112513475D01*
X110753475Y-112306632D01*
X110915990Y-112063411D01*
X111027932Y-111793158D01*
X111085000Y-111506260D01*
X111085000Y-111213740D01*
X111027932Y-110926842D01*
X110915990Y-110656589D01*
X110753475Y-110413368D01*
X110546632Y-110206525D01*
X110372240Y-110090000D01*
X110546632Y-109973475D01*
X110753475Y-109766632D01*
X110915990Y-109523411D01*
X111027932Y-109253158D01*
X111085000Y-108966260D01*
X111085000Y-108673740D01*
X111027932Y-108386842D01*
X110915990Y-108116589D01*
X110753475Y-107873368D01*
X110546632Y-107666525D01*
X110372240Y-107550000D01*
X110546632Y-107433475D01*
X110753475Y-107226632D01*
X110915990Y-106983411D01*
X111027932Y-106713158D01*
X111085000Y-106426260D01*
X111085000Y-106133740D01*
X111027932Y-105846842D01*
X110915990Y-105576589D01*
X110753475Y-105333368D01*
X110546632Y-105126525D01*
X110364466Y-105004805D01*
X110481355Y-104935178D01*
X110697588Y-104740269D01*
X110871641Y-104506920D01*
X110996825Y-104244099D01*
X111041476Y-104096890D01*
X110920155Y-103867000D01*
X109727000Y-103867000D01*
X109727000Y-103887000D01*
X109473000Y-103887000D01*
X109473000Y-103867000D01*
X109453000Y-103867000D01*
X109453000Y-103613000D01*
X109473000Y-103613000D01*
X109473000Y-103593000D01*
X109727000Y-103593000D01*
X109727000Y-103613000D01*
X110920155Y-103613000D01*
X111041476Y-103383110D01*
X110996825Y-103235901D01*
X110871641Y-102973080D01*
X110697588Y-102739731D01*
X110481355Y-102544822D01*
X110364466Y-102475195D01*
X110546632Y-102353475D01*
X110753475Y-102146632D01*
X110915990Y-101903411D01*
X111027932Y-101633158D01*
X111085000Y-101346260D01*
X111085000Y-101053740D01*
X111027932Y-100766842D01*
X110915990Y-100496589D01*
X110753475Y-100253368D01*
X110546632Y-100046525D01*
X110372240Y-99930000D01*
X110546632Y-99813475D01*
X110753475Y-99606632D01*
X110915990Y-99363411D01*
X111027932Y-99093158D01*
X111085000Y-98806260D01*
X111085000Y-98513740D01*
X111027932Y-98226842D01*
X110915990Y-97956589D01*
X110753475Y-97713368D01*
X110546632Y-97506525D01*
X110364466Y-97384805D01*
X110481355Y-97315178D01*
X110697588Y-97120269D01*
X110871641Y-96886920D01*
X110996825Y-96624099D01*
X111041476Y-96476890D01*
X110920155Y-96247000D01*
X109727000Y-96247000D01*
X109727000Y-96267000D01*
X109473000Y-96267000D01*
X109473000Y-96247000D01*
X109453000Y-96247000D01*
X109453000Y-95993000D01*
X109473000Y-95993000D01*
X109473000Y-95973000D01*
X109727000Y-95973000D01*
X109727000Y-95993000D01*
X110920155Y-95993000D01*
X111041476Y-95763110D01*
X110996825Y-95615901D01*
X110871641Y-95353080D01*
X110697588Y-95119731D01*
X110481355Y-94924822D01*
X110364466Y-94855195D01*
X110546632Y-94733475D01*
X110753475Y-94526632D01*
X110915990Y-94283411D01*
X111027932Y-94013158D01*
X111085000Y-93726260D01*
X111085000Y-93433740D01*
X111027932Y-93146842D01*
X110915990Y-92876589D01*
X110753475Y-92633368D01*
X110546632Y-92426525D01*
X110372240Y-92310000D01*
X110546632Y-92193475D01*
X110753475Y-91986632D01*
X110915990Y-91743411D01*
X111027932Y-91473158D01*
X111085000Y-91186260D01*
X111085000Y-90893740D01*
X111027932Y-90606842D01*
X110915990Y-90336589D01*
X110753475Y-90093368D01*
X110546632Y-89886525D01*
X110372240Y-89770000D01*
X110546632Y-89653475D01*
X110753475Y-89446632D01*
X110915990Y-89203411D01*
X111027932Y-88933158D01*
X111085000Y-88646260D01*
X111085000Y-88353740D01*
X111027932Y-88066842D01*
X110915990Y-87796589D01*
X110753475Y-87553368D01*
X110546632Y-87346525D01*
X110364466Y-87224805D01*
X110481355Y-87155178D01*
X110697588Y-86960269D01*
X110871641Y-86726920D01*
X110996825Y-86464099D01*
X111041476Y-86316890D01*
X110920155Y-86087000D01*
X109727000Y-86087000D01*
X109727000Y-86107000D01*
X109473000Y-86107000D01*
X109473000Y-86087000D01*
X109453000Y-86087000D01*
X109453000Y-85833000D01*
X109473000Y-85833000D01*
X109473000Y-85813000D01*
X109727000Y-85813000D01*
X109727000Y-85833000D01*
X110920155Y-85833000D01*
X111041476Y-85603110D01*
X110996825Y-85455901D01*
X110871641Y-85193080D01*
X110697588Y-84959731D01*
X110481355Y-84764822D01*
X110364466Y-84695195D01*
X110546632Y-84573475D01*
X110753475Y-84366632D01*
X110915990Y-84123411D01*
X111027932Y-83853158D01*
X111085000Y-83566260D01*
X111085000Y-83273740D01*
X111027932Y-82986842D01*
X110915990Y-82716589D01*
X110753475Y-82473368D01*
X110735000Y-82454893D01*
X110735000Y-81845107D01*
X110753475Y-81826632D01*
X110915990Y-81583411D01*
X111027932Y-81313158D01*
X111085000Y-81026260D01*
X111085000Y-80733740D01*
X111027932Y-80446842D01*
X110915990Y-80176589D01*
X110753475Y-79933368D01*
X110735000Y-79914893D01*
X110735000Y-78755741D01*
X110740490Y-78699999D01*
X110735000Y-78644257D01*
X110735000Y-78644248D01*
X110718577Y-78477501D01*
X110653676Y-78263553D01*
X110548284Y-78066377D01*
X110406449Y-77893551D01*
X110363140Y-77858008D01*
X109241996Y-76736865D01*
X109206449Y-76693551D01*
X109033623Y-76551716D01*
X108836447Y-76446324D01*
X108622499Y-76381423D01*
X108455752Y-76365000D01*
X108455751Y-76365000D01*
X108400000Y-76359509D01*
X108344249Y-76365000D01*
X104755751Y-76365000D01*
X104700000Y-76359509D01*
X104644248Y-76365000D01*
X104477501Y-76381423D01*
X104263553Y-76446324D01*
X104066377Y-76551716D01*
X103893551Y-76693551D01*
X103858008Y-76736860D01*
X102536865Y-78058004D01*
X102493551Y-78093551D01*
X102351716Y-78266377D01*
X102254486Y-78448284D01*
X102246324Y-78463554D01*
X102181423Y-78677502D01*
X102159509Y-78900000D01*
X102165000Y-78955751D01*
X102165001Y-96689867D01*
X100089869Y-98765000D01*
X99789117Y-98765000D01*
X99453919Y-98831675D01*
X99138169Y-98962463D01*
X98854002Y-99152337D01*
X98612337Y-99394002D01*
X98422463Y-99678169D01*
X98291675Y-99993919D01*
X98225000Y-100329117D01*
X98225000Y-100629868D01*
X97139869Y-101715000D01*
X91526746Y-101715000D01*
X91538072Y-101600000D01*
X91538072Y-99400000D01*
X91525812Y-99275518D01*
X91489502Y-99155820D01*
X91430537Y-99045506D01*
X91351185Y-98948815D01*
X91254494Y-98869463D01*
X91144180Y-98810498D01*
X91024482Y-98774188D01*
X90900000Y-98761928D01*
X89667060Y-98761928D01*
X87441996Y-96536865D01*
X87406449Y-96493551D01*
X87233623Y-96351716D01*
X87036447Y-96246324D01*
X86822499Y-96181423D01*
X86655752Y-96165000D01*
X86655751Y-96165000D01*
X86600000Y-96159509D01*
X86544249Y-96165000D01*
X79040957Y-96165000D01*
X79030537Y-96145506D01*
X78951185Y-96048815D01*
X78854494Y-95969463D01*
X78744180Y-95910498D01*
X78624482Y-95874188D01*
X78500000Y-95861928D01*
X77867061Y-95861928D01*
X74735000Y-92729869D01*
X74735000Y-88556890D01*
X76358524Y-88556890D01*
X76403175Y-88704099D01*
X76528359Y-88966920D01*
X76702412Y-89200269D01*
X76918645Y-89395178D01*
X77168748Y-89544157D01*
X77443109Y-89641481D01*
X77673000Y-89520814D01*
X77673000Y-88327000D01*
X77927000Y-88327000D01*
X77927000Y-89520814D01*
X78156891Y-89641481D01*
X78431252Y-89544157D01*
X78681355Y-89395178D01*
X78897588Y-89200269D01*
X79071641Y-88966920D01*
X79196825Y-88704099D01*
X79241476Y-88556890D01*
X79120155Y-88327000D01*
X77927000Y-88327000D01*
X77673000Y-88327000D01*
X76479845Y-88327000D01*
X76358524Y-88556890D01*
X74735000Y-88556890D01*
X74735000Y-80770131D01*
X76330133Y-79175000D01*
X76834893Y-79175000D01*
X76853368Y-79193475D01*
X77027760Y-79310000D01*
X76853368Y-79426525D01*
X76646525Y-79633368D01*
X76484010Y-79876589D01*
X76372068Y-80146842D01*
X76315000Y-80433740D01*
X76315000Y-80726260D01*
X76372068Y-81013158D01*
X76484010Y-81283411D01*
X76646525Y-81526632D01*
X76853368Y-81733475D01*
X77027760Y-81850000D01*
X76853368Y-81966525D01*
X76646525Y-82173368D01*
X76484010Y-82416589D01*
X76372068Y-82686842D01*
X76315000Y-82973740D01*
X76315000Y-83266260D01*
X76372068Y-83553158D01*
X76484010Y-83823411D01*
X76646525Y-84066632D01*
X76853368Y-84273475D01*
X77027760Y-84390000D01*
X76853368Y-84506525D01*
X76646525Y-84713368D01*
X76484010Y-84956589D01*
X76372068Y-85226842D01*
X76315000Y-85513740D01*
X76315000Y-85806260D01*
X76372068Y-86093158D01*
X76484010Y-86363411D01*
X76646525Y-86606632D01*
X76853368Y-86813475D01*
X77035534Y-86935195D01*
X76918645Y-87004822D01*
X76702412Y-87199731D01*
X76528359Y-87433080D01*
X76403175Y-87695901D01*
X76358524Y-87843110D01*
X76479845Y-88073000D01*
X77673000Y-88073000D01*
X77673000Y-88053000D01*
X77927000Y-88053000D01*
X77927000Y-88073000D01*
X79120155Y-88073000D01*
X79241476Y-87843110D01*
X79196825Y-87695901D01*
X79071641Y-87433080D01*
X78897588Y-87199731D01*
X78681355Y-87004822D01*
X78564466Y-86935195D01*
X78746632Y-86813475D01*
X78953475Y-86606632D01*
X79115990Y-86363411D01*
X79227932Y-86093158D01*
X79285000Y-85806260D01*
X79285000Y-85513740D01*
X79227932Y-85226842D01*
X79115990Y-84956589D01*
X78953475Y-84713368D01*
X78746632Y-84506525D01*
X78572240Y-84390000D01*
X78746632Y-84273475D01*
X78953475Y-84066632D01*
X79115990Y-83823411D01*
X79227932Y-83553158D01*
X79285000Y-83266260D01*
X79285000Y-82973740D01*
X79227932Y-82686842D01*
X79115990Y-82416589D01*
X78953475Y-82173368D01*
X78746632Y-81966525D01*
X78572240Y-81850000D01*
X78746632Y-81733475D01*
X78953475Y-81526632D01*
X79115990Y-81283411D01*
X79227932Y-81013158D01*
X79285000Y-80726260D01*
X79285000Y-80433740D01*
X79227932Y-80146842D01*
X79115990Y-79876589D01*
X78953475Y-79633368D01*
X78746632Y-79426525D01*
X78572240Y-79310000D01*
X78746632Y-79193475D01*
X78953475Y-78986632D01*
X79115990Y-78743411D01*
X79227932Y-78473158D01*
X79285000Y-78186260D01*
X79285000Y-77893740D01*
X79227932Y-77606842D01*
X79115990Y-77336589D01*
X78991316Y-77150000D01*
X99011928Y-77150000D01*
X99011928Y-78850000D01*
X99024188Y-78974482D01*
X99060498Y-79094180D01*
X99119463Y-79204494D01*
X99198815Y-79301185D01*
X99295506Y-79380537D01*
X99405820Y-79439502D01*
X99478380Y-79461513D01*
X99346525Y-79593368D01*
X99184010Y-79836589D01*
X99072068Y-80106842D01*
X99015000Y-80393740D01*
X99015000Y-80686260D01*
X99072068Y-80973158D01*
X99184010Y-81243411D01*
X99346525Y-81486632D01*
X99553368Y-81693475D01*
X99727760Y-81810000D01*
X99553368Y-81926525D01*
X99346525Y-82133368D01*
X99184010Y-82376589D01*
X99072068Y-82646842D01*
X99015000Y-82933740D01*
X99015000Y-83226260D01*
X99072068Y-83513158D01*
X99184010Y-83783411D01*
X99346525Y-84026632D01*
X99553368Y-84233475D01*
X99727760Y-84350000D01*
X99553368Y-84466525D01*
X99346525Y-84673368D01*
X99184010Y-84916589D01*
X99072068Y-85186842D01*
X99015000Y-85473740D01*
X99015000Y-85766260D01*
X99072068Y-86053158D01*
X99184010Y-86323411D01*
X99346525Y-86566632D01*
X99553368Y-86773475D01*
X99727760Y-86890000D01*
X99553368Y-87006525D01*
X99346525Y-87213368D01*
X99184010Y-87456589D01*
X99072068Y-87726842D01*
X99015000Y-88013740D01*
X99015000Y-88306260D01*
X99072068Y-88593158D01*
X99184010Y-88863411D01*
X99346525Y-89106632D01*
X99553368Y-89313475D01*
X99727760Y-89430000D01*
X99553368Y-89546525D01*
X99346525Y-89753368D01*
X99184010Y-89996589D01*
X99072068Y-90266842D01*
X99015000Y-90553740D01*
X99015000Y-90846260D01*
X99072068Y-91133158D01*
X99184010Y-91403411D01*
X99346525Y-91646632D01*
X99553368Y-91853475D01*
X99796589Y-92015990D01*
X100066842Y-92127932D01*
X100353740Y-92185000D01*
X100646260Y-92185000D01*
X100933158Y-92127932D01*
X101203411Y-92015990D01*
X101446632Y-91853475D01*
X101653475Y-91646632D01*
X101815990Y-91403411D01*
X101927932Y-91133158D01*
X101985000Y-90846260D01*
X101985000Y-90553740D01*
X101927932Y-90266842D01*
X101815990Y-89996589D01*
X101653475Y-89753368D01*
X101446632Y-89546525D01*
X101272240Y-89430000D01*
X101446632Y-89313475D01*
X101653475Y-89106632D01*
X101815990Y-88863411D01*
X101927932Y-88593158D01*
X101985000Y-88306260D01*
X101985000Y-88013740D01*
X101927932Y-87726842D01*
X101815990Y-87456589D01*
X101653475Y-87213368D01*
X101446632Y-87006525D01*
X101272240Y-86890000D01*
X101446632Y-86773475D01*
X101653475Y-86566632D01*
X101815990Y-86323411D01*
X101927932Y-86053158D01*
X101985000Y-85766260D01*
X101985000Y-85473740D01*
X101927932Y-85186842D01*
X101815990Y-84916589D01*
X101653475Y-84673368D01*
X101446632Y-84466525D01*
X101272240Y-84350000D01*
X101446632Y-84233475D01*
X101653475Y-84026632D01*
X101815990Y-83783411D01*
X101927932Y-83513158D01*
X101985000Y-83226260D01*
X101985000Y-82933740D01*
X101927932Y-82646842D01*
X101815990Y-82376589D01*
X101653475Y-82133368D01*
X101446632Y-81926525D01*
X101272240Y-81810000D01*
X101446632Y-81693475D01*
X101653475Y-81486632D01*
X101815990Y-81243411D01*
X101927932Y-80973158D01*
X101985000Y-80686260D01*
X101985000Y-80393740D01*
X101927932Y-80106842D01*
X101815990Y-79836589D01*
X101653475Y-79593368D01*
X101521620Y-79461513D01*
X101594180Y-79439502D01*
X101704494Y-79380537D01*
X101801185Y-79301185D01*
X101880537Y-79204494D01*
X101939502Y-79094180D01*
X101975812Y-78974482D01*
X101988072Y-78850000D01*
X101988072Y-77150000D01*
X101975812Y-77025518D01*
X101939502Y-76905820D01*
X101880537Y-76795506D01*
X101801185Y-76698815D01*
X101704494Y-76619463D01*
X101594180Y-76560498D01*
X101474482Y-76524188D01*
X101350000Y-76511928D01*
X99650000Y-76511928D01*
X99525518Y-76524188D01*
X99405820Y-76560498D01*
X99295506Y-76619463D01*
X99198815Y-76698815D01*
X99119463Y-76795506D01*
X99060498Y-76905820D01*
X99024188Y-77025518D01*
X99011928Y-77150000D01*
X78991316Y-77150000D01*
X78953475Y-77093368D01*
X78821620Y-76961513D01*
X78894180Y-76939502D01*
X79004494Y-76880537D01*
X79101185Y-76801185D01*
X79180537Y-76704494D01*
X79239502Y-76594180D01*
X79275812Y-76474482D01*
X79288072Y-76350000D01*
X79288072Y-74650000D01*
X79275812Y-74525518D01*
X79239502Y-74405820D01*
X79180537Y-74295506D01*
X79101185Y-74198815D01*
X79004494Y-74119463D01*
X78894180Y-74060498D01*
X78774482Y-74024188D01*
X78650000Y-74011928D01*
X76950000Y-74011928D01*
X76825518Y-74024188D01*
X76705820Y-74060498D01*
X76595506Y-74119463D01*
X76498815Y-74198815D01*
X76419463Y-74295506D01*
X76360498Y-74405820D01*
X76324188Y-74525518D01*
X76311928Y-74650000D01*
X76311928Y-76350000D01*
X76324188Y-76474482D01*
X76360498Y-76594180D01*
X76419463Y-76704494D01*
X76498815Y-76801185D01*
X76595506Y-76880537D01*
X76641272Y-76905000D01*
X75915752Y-76905000D01*
X75860000Y-76899509D01*
X75804248Y-76905000D01*
X75637501Y-76921423D01*
X75423553Y-76986324D01*
X75226377Y-77091716D01*
X75096856Y-77198011D01*
X75096854Y-77198013D01*
X75053551Y-77233551D01*
X75018013Y-77276854D01*
X72836864Y-79458004D01*
X72793551Y-79493551D01*
X72651716Y-79666377D01*
X72546325Y-79863553D01*
X72546324Y-79863554D01*
X72481423Y-80077502D01*
X72459509Y-80300000D01*
X70660000Y-80300000D01*
X70660000Y-70804155D01*
X71021161Y-71344670D01*
X71555330Y-71878839D01*
X72183446Y-72298533D01*
X72881372Y-72587623D01*
X73622285Y-72735000D01*
X74377715Y-72735000D01*
X75118628Y-72587623D01*
X75816554Y-72298533D01*
X76444670Y-71878839D01*
X76978839Y-71344670D01*
X77398533Y-70716554D01*
X77687623Y-70018628D01*
X77835000Y-69277715D01*
X77835000Y-68522285D01*
X77687623Y-67781372D01*
X77398533Y-67083446D01*
X76978839Y-66455330D01*
X76444670Y-65921161D01*
X76053815Y-65660000D01*
X106946185Y-65660000D01*
X106555330Y-65921161D01*
G37*
X106555330Y-65921161D02*
X106021161Y-66455330D01*
X105601467Y-67083446D01*
X105312377Y-67781372D01*
X105165000Y-68522285D01*
X105165000Y-69277715D01*
X105312377Y-70018628D01*
X105601467Y-70716554D01*
X106021161Y-71344670D01*
X106555330Y-71878839D01*
X107183446Y-72298533D01*
X107881372Y-72587623D01*
X108622285Y-72735000D01*
X109377715Y-72735000D01*
X110118628Y-72587623D01*
X110816554Y-72298533D01*
X111444670Y-71878839D01*
X111978839Y-71344670D01*
X112340001Y-70804153D01*
X112340000Y-144195845D01*
X111978839Y-143655330D01*
X111444670Y-143121161D01*
X110816554Y-142701467D01*
X110118628Y-142412377D01*
X109377715Y-142265000D01*
X108622285Y-142265000D01*
X107881372Y-142412377D01*
X107183446Y-142701467D01*
X106555330Y-143121161D01*
X106021161Y-143655330D01*
X105601467Y-144283446D01*
X105312377Y-144981372D01*
X105165000Y-145722285D01*
X105165000Y-146477715D01*
X105312377Y-147218628D01*
X105601467Y-147916554D01*
X106021161Y-148544670D01*
X106555330Y-149078839D01*
X106946185Y-149340000D01*
X76053815Y-149340000D01*
X76444670Y-149078839D01*
X76978839Y-148544670D01*
X77398533Y-147916554D01*
X77687623Y-147218628D01*
X77835000Y-146477715D01*
X77835000Y-145722285D01*
X77687623Y-144981372D01*
X77398533Y-144283446D01*
X76978839Y-143655330D01*
X76444670Y-143121161D01*
X75816554Y-142701467D01*
X75118628Y-142412377D01*
X74377715Y-142265000D01*
X73622285Y-142265000D01*
X72881372Y-142412377D01*
X72183446Y-142701467D01*
X71555330Y-143121161D01*
X71021161Y-143655330D01*
X70660000Y-144195845D01*
X70660000Y-139728140D01*
X70917023Y-139985163D01*
X71272355Y-140222588D01*
X71667179Y-140386130D01*
X72086323Y-140469503D01*
X72513677Y-140469503D01*
X72932821Y-140386130D01*
X73327645Y-140222588D01*
X73682977Y-139985163D01*
X73985163Y-139682977D01*
X74222588Y-139327645D01*
X74386130Y-138932821D01*
X74469503Y-138513677D01*
X74469503Y-138086323D01*
X89100497Y-138086323D01*
X89100497Y-138513677D01*
X89183870Y-138932821D01*
X89347412Y-139327645D01*
X89584837Y-139682977D01*
X89887023Y-139985163D01*
X90242355Y-140222588D01*
X90637179Y-140386130D01*
X91056323Y-140469503D01*
X91483677Y-140469503D01*
X91902821Y-140386130D01*
X92297645Y-140222588D01*
X92652977Y-139985163D01*
X92955163Y-139682977D01*
X93192588Y-139327645D01*
X93356130Y-138932821D01*
X93439503Y-138513677D01*
X93439503Y-138086323D01*
X93356130Y-137667179D01*
X93192588Y-137272355D01*
X92955163Y-136917023D01*
X92652977Y-136614837D01*
X92297645Y-136377412D01*
X91902821Y-136213870D01*
X91483677Y-136130497D01*
X91056323Y-136130497D01*
X90637179Y-136213870D01*
X90242355Y-136377412D01*
X89887023Y-136614837D01*
X89584837Y-136917023D01*
X89347412Y-137272355D01*
X89183870Y-137667179D01*
X89100497Y-138086323D01*
X74469503Y-138086323D01*
X74386130Y-137667179D01*
X74222588Y-137272355D01*
X73985163Y-136917023D01*
X73682977Y-136614837D01*
X73327645Y-136377412D01*
X72932821Y-136213870D01*
X72513677Y-136130497D01*
X72086323Y-136130497D01*
X71667179Y-136213870D01*
X71272355Y-136377412D01*
X70917023Y-136614837D01*
X70660000Y-136871860D01*
X70660000Y-110676323D01*
X89130497Y-110676323D01*
X89130497Y-111103677D01*
X89213870Y-111522821D01*
X89377412Y-111917645D01*
X89614837Y-112272977D01*
X89917023Y-112575163D01*
X90272355Y-112812588D01*
X90667179Y-112976130D01*
X91086323Y-113059503D01*
X91513677Y-113059503D01*
X91932821Y-112976130D01*
X92327645Y-112812588D01*
X92682977Y-112575163D01*
X92985163Y-112272977D01*
X93222588Y-111917645D01*
X93386130Y-111522821D01*
X93469503Y-111103677D01*
X93469503Y-110676323D01*
X93386130Y-110257179D01*
X93222588Y-109862355D01*
X92985163Y-109507023D01*
X92682977Y-109204837D01*
X92327645Y-108967412D01*
X91932821Y-108803870D01*
X91513677Y-108720497D01*
X91086323Y-108720497D01*
X90667179Y-108803870D01*
X90272355Y-108967412D01*
X89917023Y-109204837D01*
X89614837Y-109507023D01*
X89377412Y-109862355D01*
X89213870Y-110257179D01*
X89130497Y-110676323D01*
X70660000Y-110676323D01*
X70660000Y-108756891D01*
X76318519Y-108756891D01*
X76415843Y-109031252D01*
X76564822Y-109281355D01*
X76759731Y-109497588D01*
X76993080Y-109671641D01*
X77255901Y-109796825D01*
X77403110Y-109841476D01*
X77633000Y-109720155D01*
X77633000Y-108527000D01*
X76439186Y-108527000D01*
X76318519Y-108756891D01*
X70660000Y-108756891D01*
X70660000Y-108043109D01*
X76318519Y-108043109D01*
X76439186Y-108273000D01*
X77633000Y-108273000D01*
X77633000Y-107079845D01*
X77403110Y-106958524D01*
X77255901Y-107003175D01*
X76993080Y-107128359D01*
X76759731Y-107302412D01*
X76564822Y-107518645D01*
X76415843Y-107768748D01*
X76318519Y-108043109D01*
X70660000Y-108043109D01*
X70660000Y-100792702D01*
X76886903Y-100792702D01*
X76958486Y-101036671D01*
X77213996Y-101157571D01*
X77488184Y-101226300D01*
X77770512Y-101240217D01*
X78050130Y-101198787D01*
X78316292Y-101103603D01*
X78441514Y-101036671D01*
X78513097Y-100792702D01*
X77700000Y-99979605D01*
X76886903Y-100792702D01*
X70660000Y-100792702D01*
X70660000Y-99870512D01*
X76259783Y-99870512D01*
X76301213Y-100150130D01*
X76396397Y-100416292D01*
X76463329Y-100541514D01*
X76707298Y-100613097D01*
X77520395Y-99800000D01*
X77879605Y-99800000D01*
X78692702Y-100613097D01*
X78936671Y-100541514D01*
X79057571Y-100286004D01*
X79126300Y-100011816D01*
X79140217Y-99729488D01*
X79098787Y-99449870D01*
X79003603Y-99183708D01*
X78936671Y-99058486D01*
X78692702Y-98986903D01*
X77879605Y-99800000D01*
X77520395Y-99800000D01*
X76707298Y-98986903D01*
X76463329Y-99058486D01*
X76342429Y-99313996D01*
X76273700Y-99588184D01*
X76259783Y-99870512D01*
X70660000Y-99870512D01*
X70660000Y-80300000D01*
X72459509Y-80300000D01*
X72465000Y-80355752D01*
X72465001Y-93144239D01*
X72459509Y-93200000D01*
X72481423Y-93422498D01*
X72546324Y-93636446D01*
X72546325Y-93636447D01*
X72651717Y-93833623D01*
X72793552Y-94006449D01*
X72836860Y-94041991D01*
X76261928Y-97467061D01*
X76261928Y-98100000D01*
X76274188Y-98224482D01*
X76310498Y-98344180D01*
X76369463Y-98454494D01*
X76448815Y-98551185D01*
X76545506Y-98630537D01*
X76655820Y-98689502D01*
X76775518Y-98725812D01*
X76900000Y-98738072D01*
X76907215Y-98738072D01*
X76886903Y-98807298D01*
X77700000Y-99620395D01*
X78513097Y-98807298D01*
X78492785Y-98738072D01*
X78500000Y-98738072D01*
X78624482Y-98725812D01*
X78744180Y-98689502D01*
X78854494Y-98630537D01*
X78951185Y-98551185D01*
X79030537Y-98454494D01*
X79040957Y-98435000D01*
X86129869Y-98435000D01*
X88061928Y-100367060D01*
X88061928Y-101600000D01*
X88073254Y-101715000D01*
X84703670Y-101715000D01*
X84647918Y-101709509D01*
X84592167Y-101715000D01*
X84425420Y-101731423D01*
X84211472Y-101796324D01*
X84014296Y-101901716D01*
X83841470Y-102043551D01*
X83805930Y-102086857D01*
X79536865Y-106355923D01*
X79493551Y-106391470D01*
X79351716Y-106564296D01*
X79272149Y-106713158D01*
X79246324Y-106761473D01*
X79181423Y-106975421D01*
X79159509Y-107197919D01*
X79165000Y-107253670D01*
X79165000Y-107434893D01*
X79146525Y-107453368D01*
X79024805Y-107635534D01*
X78955178Y-107518645D01*
X78760269Y-107302412D01*
X78526920Y-107128359D01*
X78264099Y-107003175D01*
X78116890Y-106958524D01*
X77887000Y-107079845D01*
X77887000Y-108273000D01*
X77907000Y-108273000D01*
X77907000Y-108527000D01*
X77887000Y-108527000D01*
X77887000Y-109720155D01*
X78116890Y-109841476D01*
X78264099Y-109796825D01*
X78526920Y-109671641D01*
X78760269Y-109497588D01*
X78955178Y-109281355D01*
X79024805Y-109164466D01*
X79146525Y-109346632D01*
X79353368Y-109553475D01*
X79596589Y-109715990D01*
X79866842Y-109827932D01*
X80153740Y-109885000D01*
X80446260Y-109885000D01*
X80733158Y-109827932D01*
X81003411Y-109715990D01*
X81246632Y-109553475D01*
X81453475Y-109346632D01*
X81570000Y-109172240D01*
X81686525Y-109346632D01*
X81893368Y-109553475D01*
X82136589Y-109715990D01*
X82406842Y-109827932D01*
X82693740Y-109885000D01*
X82986260Y-109885000D01*
X83273158Y-109827932D01*
X83543411Y-109715990D01*
X83786632Y-109553475D01*
X83918487Y-109421620D01*
X83940498Y-109494180D01*
X83999463Y-109604494D01*
X84078815Y-109701185D01*
X84175506Y-109780537D01*
X84285820Y-109839502D01*
X84405518Y-109875812D01*
X84530000Y-109888072D01*
X86230000Y-109888072D01*
X86354482Y-109875812D01*
X86474180Y-109839502D01*
X86584494Y-109780537D01*
X86681185Y-109701185D01*
X86760537Y-109604494D01*
X86819502Y-109494180D01*
X86855812Y-109374482D01*
X86868072Y-109250000D01*
X86868072Y-107550000D01*
X86855812Y-107425518D01*
X86819502Y-107305820D01*
X86760537Y-107195506D01*
X86681185Y-107098815D01*
X86584494Y-107019463D01*
X86474180Y-106960498D01*
X86354482Y-106924188D01*
X86230000Y-106911928D01*
X84530000Y-106911928D01*
X84405518Y-106924188D01*
X84285820Y-106960498D01*
X84175506Y-107019463D01*
X84078815Y-107098815D01*
X83999463Y-107195506D01*
X83940498Y-107305820D01*
X83918487Y-107378380D01*
X83786632Y-107246525D01*
X83543411Y-107084010D01*
X83273158Y-106972068D01*
X82986260Y-106915000D01*
X82693740Y-106915000D01*
X82406842Y-106972068D01*
X82136589Y-107084010D01*
X81893368Y-107246525D01*
X81686525Y-107453368D01*
X81570000Y-107627760D01*
X81532065Y-107570986D01*
X85118051Y-103985000D01*
X96475001Y-103985000D01*
X96475000Y-140451928D01*
X96310000Y-140451928D01*
X96185518Y-140464188D01*
X96065820Y-140500498D01*
X95955506Y-140559463D01*
X95858815Y-140638815D01*
X95779463Y-140735506D01*
X95720498Y-140845820D01*
X95684188Y-140965518D01*
X95671928Y-141090000D01*
X95671928Y-143690000D01*
X95684188Y-143814482D01*
X95720498Y-143934180D01*
X95779463Y-144044494D01*
X95858815Y-144141185D01*
X95955506Y-144220537D01*
X96065820Y-144279502D01*
X96185518Y-144315812D01*
X96310000Y-144328072D01*
X98910000Y-144328072D01*
X99034482Y-144315812D01*
X99154180Y-144279502D01*
X99264494Y-144220537D01*
X99361185Y-144141185D01*
X99440537Y-144044494D01*
X99499502Y-143934180D01*
X99535812Y-143814482D01*
X99543224Y-143739224D01*
X101520381Y-143739224D01*
X101652317Y-144034312D01*
X101993045Y-144205159D01*
X102360557Y-144306250D01*
X102740729Y-144333701D01*
X103118951Y-144286457D01*
X103480690Y-144166333D01*
X103727683Y-144034312D01*
X103859619Y-143739224D01*
X102690000Y-142569605D01*
X101520381Y-143739224D01*
X99543224Y-143739224D01*
X99548072Y-143690000D01*
X99548072Y-142440729D01*
X100746299Y-142440729D01*
X100793543Y-142818951D01*
X100913667Y-143180690D01*
X101045688Y-143427683D01*
X101340776Y-143559619D01*
X102510395Y-142390000D01*
X102869605Y-142390000D01*
X104039224Y-143559619D01*
X104334312Y-143427683D01*
X104505159Y-143086955D01*
X104606250Y-142719443D01*
X104633701Y-142339271D01*
X104586457Y-141961049D01*
X104466333Y-141599310D01*
X104334312Y-141352317D01*
X104039224Y-141220381D01*
X102869605Y-142390000D01*
X102510395Y-142390000D01*
X101340776Y-141220381D01*
X101045688Y-141352317D01*
X100874841Y-141693045D01*
X100773750Y-142060557D01*
X100746299Y-142440729D01*
X99548072Y-142440729D01*
X99548072Y-141090000D01*
X99543225Y-141040776D01*
X101520381Y-141040776D01*
X102690000Y-142210395D01*
X103859619Y-141040776D01*
X103727683Y-140745688D01*
X103386955Y-140574841D01*
X103019443Y-140473750D01*
X102639271Y-140446299D01*
X102261049Y-140493543D01*
X101899310Y-140613667D01*
X101652317Y-140745688D01*
X101520381Y-141040776D01*
X99543225Y-141040776D01*
X99535812Y-140965518D01*
X99499502Y-140845820D01*
X99440537Y-140735506D01*
X99361185Y-140638815D01*
X99264494Y-140559463D01*
X99154180Y-140500498D01*
X99034482Y-140464188D01*
X98910000Y-140451928D01*
X98745000Y-140451928D01*
X98745000Y-129496890D01*
X105618524Y-129496890D01*
X105663175Y-129644099D01*
X105788359Y-129906920D01*
X105962412Y-130140269D01*
X106178645Y-130335178D01*
X106428748Y-130484157D01*
X106703109Y-130581481D01*
X106933000Y-130460814D01*
X106933000Y-129267000D01*
X105739845Y-129267000D01*
X105618524Y-129496890D01*
X98745000Y-129496890D01*
X98745000Y-103320131D01*
X99830132Y-102235000D01*
X100130883Y-102235000D01*
X100466081Y-102168325D01*
X100781831Y-102037537D01*
X101065998Y-101847663D01*
X101307663Y-101605998D01*
X101497537Y-101321831D01*
X101628325Y-101006081D01*
X101695000Y-100670883D01*
X101695000Y-100370131D01*
X104063141Y-98001991D01*
X104106449Y-97966449D01*
X104248284Y-97793623D01*
X104353676Y-97596447D01*
X104418577Y-97382499D01*
X104435000Y-97215752D01*
X104435000Y-97215743D01*
X104440490Y-97160001D01*
X104435000Y-97104259D01*
X104435000Y-79370131D01*
X105170132Y-78635000D01*
X107929869Y-78635000D01*
X108465001Y-79170132D01*
X108465001Y-79721273D01*
X108440537Y-79675506D01*
X108361185Y-79578815D01*
X108264494Y-79499463D01*
X108154180Y-79440498D01*
X108034482Y-79404188D01*
X107910000Y-79391928D01*
X106210000Y-79391928D01*
X106085518Y-79404188D01*
X105965820Y-79440498D01*
X105855506Y-79499463D01*
X105758815Y-79578815D01*
X105679463Y-79675506D01*
X105620498Y-79785820D01*
X105584188Y-79905518D01*
X105571928Y-80030000D01*
X105571928Y-81730000D01*
X105584188Y-81854482D01*
X105620498Y-81974180D01*
X105679463Y-82084494D01*
X105758815Y-82181185D01*
X105855506Y-82260537D01*
X105965820Y-82319502D01*
X106038380Y-82341513D01*
X105906525Y-82473368D01*
X105744010Y-82716589D01*
X105632068Y-82986842D01*
X105575000Y-83273740D01*
X105575000Y-83566260D01*
X105632068Y-83853158D01*
X105744010Y-84123411D01*
X105906525Y-84366632D01*
X106113368Y-84573475D01*
X106287760Y-84690000D01*
X106113368Y-84806525D01*
X105906525Y-85013368D01*
X105744010Y-85256589D01*
X105632068Y-85526842D01*
X105575000Y-85813740D01*
X105575000Y-86106260D01*
X105632068Y-86393158D01*
X105744010Y-86663411D01*
X105906525Y-86906632D01*
X106113368Y-87113475D01*
X106287760Y-87230000D01*
X106113368Y-87346525D01*
X105906525Y-87553368D01*
X105744010Y-87796589D01*
X105632068Y-88066842D01*
X105575000Y-88353740D01*
X105575000Y-88646260D01*
X105632068Y-88933158D01*
X105744010Y-89203411D01*
X105906525Y-89446632D01*
X106113368Y-89653475D01*
X106295534Y-89775195D01*
X106178645Y-89844822D01*
X105962412Y-90039731D01*
X105788359Y-90273080D01*
X105663175Y-90535901D01*
X105618524Y-90683110D01*
X105739845Y-90913000D01*
X106933000Y-90913000D01*
X106933000Y-90893000D01*
X107187000Y-90893000D01*
X107187000Y-90913000D01*
X107207000Y-90913000D01*
X107207000Y-91167000D01*
X107187000Y-91167000D01*
X107187000Y-91187000D01*
X106933000Y-91187000D01*
X106933000Y-91167000D01*
X105739845Y-91167000D01*
X105618524Y-91396890D01*
X105663175Y-91544099D01*
X105788359Y-91806920D01*
X105962412Y-92040269D01*
X106178645Y-92235178D01*
X106295534Y-92304805D01*
X106113368Y-92426525D01*
X105906525Y-92633368D01*
X105744010Y-92876589D01*
X105632068Y-93146842D01*
X105575000Y-93433740D01*
X105575000Y-93726260D01*
X105632068Y-94013158D01*
X105744010Y-94283411D01*
X105906525Y-94526632D01*
X106113368Y-94733475D01*
X106287760Y-94850000D01*
X106113368Y-94966525D01*
X105906525Y-95173368D01*
X105744010Y-95416589D01*
X105632068Y-95686842D01*
X105575000Y-95973740D01*
X105575000Y-96266260D01*
X105632068Y-96553158D01*
X105744010Y-96823411D01*
X105906525Y-97066632D01*
X106113368Y-97273475D01*
X106287760Y-97390000D01*
X106113368Y-97506525D01*
X105906525Y-97713368D01*
X105744010Y-97956589D01*
X105632068Y-98226842D01*
X105575000Y-98513740D01*
X105575000Y-98806260D01*
X105632068Y-99093158D01*
X105744010Y-99363411D01*
X105906525Y-99606632D01*
X106113368Y-99813475D01*
X106287760Y-99930000D01*
X106113368Y-100046525D01*
X105906525Y-100253368D01*
X105744010Y-100496589D01*
X105632068Y-100766842D01*
X105575000Y-101053740D01*
X105575000Y-101346260D01*
X105632068Y-101633158D01*
X105744010Y-101903411D01*
X105906525Y-102146632D01*
X106113368Y-102353475D01*
X106287760Y-102470000D01*
X106113368Y-102586525D01*
X105906525Y-102793368D01*
X105744010Y-103036589D01*
X105632068Y-103306842D01*
X105575000Y-103593740D01*
X105575000Y-103886260D01*
X105632068Y-104173158D01*
X105744010Y-104443411D01*
X105906525Y-104686632D01*
X106113368Y-104893475D01*
X106287760Y-105010000D01*
X106113368Y-105126525D01*
X105906525Y-105333368D01*
X105744010Y-105576589D01*
X105632068Y-105846842D01*
X105575000Y-106133740D01*
X105575000Y-106426260D01*
X105632068Y-106713158D01*
X105744010Y-106983411D01*
X105906525Y-107226632D01*
X106113368Y-107433475D01*
X106287760Y-107550000D01*
X106113368Y-107666525D01*
X105906525Y-107873368D01*
X105744010Y-108116589D01*
X105632068Y-108386842D01*
X105575000Y-108673740D01*
X105575000Y-108966260D01*
X105632068Y-109253158D01*
X105744010Y-109523411D01*
X105906525Y-109766632D01*
X106113368Y-109973475D01*
X106295534Y-110095195D01*
X106178645Y-110164822D01*
X105962412Y-110359731D01*
X105788359Y-110593080D01*
X105663175Y-110855901D01*
X105618524Y-111003110D01*
X105739845Y-111233000D01*
X106933000Y-111233000D01*
X106933000Y-111213000D01*
X107187000Y-111213000D01*
X107187000Y-111233000D01*
X107207000Y-111233000D01*
X107207000Y-111487000D01*
X107187000Y-111487000D01*
X107187000Y-111507000D01*
X106933000Y-111507000D01*
X106933000Y-111487000D01*
X105739845Y-111487000D01*
X105618524Y-111716890D01*
X105663175Y-111864099D01*
X105788359Y-112126920D01*
X105962412Y-112360269D01*
X106178645Y-112555178D01*
X106295534Y-112624805D01*
X106113368Y-112746525D01*
X105906525Y-112953368D01*
X105744010Y-113196589D01*
X105632068Y-113466842D01*
X105575000Y-113753740D01*
X105575000Y-114046260D01*
X105632068Y-114333158D01*
X105744010Y-114603411D01*
X105906525Y-114846632D01*
X106113368Y-115053475D01*
X106287760Y-115170000D01*
X106113368Y-115286525D01*
X105906525Y-115493368D01*
X105744010Y-115736589D01*
X105632068Y-116006842D01*
X105575000Y-116293740D01*
X105575000Y-116586260D01*
X105632068Y-116873158D01*
X105744010Y-117143411D01*
X105906525Y-117386632D01*
X106113368Y-117593475D01*
X106287760Y-117710000D01*
X106113368Y-117826525D01*
X105906525Y-118033368D01*
X105744010Y-118276589D01*
X105632068Y-118546842D01*
X105575000Y-118833740D01*
X105575000Y-119126260D01*
X105632068Y-119413158D01*
X105744010Y-119683411D01*
X105906525Y-119926632D01*
X106113368Y-120133475D01*
X106287760Y-120250000D01*
X106113368Y-120366525D01*
X105906525Y-120573368D01*
X105744010Y-120816589D01*
X105632068Y-121086842D01*
X105575000Y-121373740D01*
X105575000Y-121666260D01*
X105632068Y-121953158D01*
X105744010Y-122223411D01*
X105906525Y-122466632D01*
X106113368Y-122673475D01*
X106287760Y-122790000D01*
X106113368Y-122906525D01*
X105906525Y-123113368D01*
X105744010Y-123356589D01*
X105632068Y-123626842D01*
X105575000Y-123913740D01*
X105575000Y-124206260D01*
X105632068Y-124493158D01*
X105744010Y-124763411D01*
X105906525Y-125006632D01*
X106113368Y-125213475D01*
X106287760Y-125330000D01*
X106113368Y-125446525D01*
X105906525Y-125653368D01*
X105744010Y-125896589D01*
X105632068Y-126166842D01*
X105575000Y-126453740D01*
X105575000Y-126746260D01*
X105632068Y-127033158D01*
X105744010Y-127303411D01*
X105906525Y-127546632D01*
X106113368Y-127753475D01*
X106295534Y-127875195D01*
X106178645Y-127944822D01*
X105962412Y-128139731D01*
X105788359Y-128373080D01*
X105663175Y-128635901D01*
X105618524Y-128783110D01*
X105739845Y-129013000D01*
X106933000Y-129013000D01*
X106933000Y-128993000D01*
X107187000Y-128993000D01*
X107187000Y-129013000D01*
X107207000Y-129013000D01*
X107207000Y-129267000D01*
X107187000Y-129267000D01*
X107187000Y-130460814D01*
X107416891Y-130581481D01*
X107691252Y-130484157D01*
X107941355Y-130335178D01*
X108157588Y-130140269D01*
X108328900Y-129910594D01*
X108446525Y-130086632D01*
X108653368Y-130293475D01*
X108896589Y-130455990D01*
X109166842Y-130567932D01*
X109453740Y-130625000D01*
X109746260Y-130625000D01*
X110033158Y-130567932D01*
X110303411Y-130455990D01*
X110546632Y-130293475D01*
X110753475Y-130086632D01*
X110915990Y-129843411D01*
X111027932Y-129573158D01*
X111085000Y-129286260D01*
X111085000Y-128993740D01*
X111027932Y-128706842D01*
X110915990Y-128436589D01*
X110753475Y-128193368D01*
X110546632Y-127986525D01*
X110372240Y-127870000D01*
X110546632Y-127753475D01*
X110753475Y-127546632D01*
X110915990Y-127303411D01*
X111027932Y-127033158D01*
X111085000Y-126746260D01*
X111085000Y-126453740D01*
X111027932Y-126166842D01*
X110915990Y-125896589D01*
X110753475Y-125653368D01*
X110546632Y-125446525D01*
X110372240Y-125330000D01*
X110546632Y-125213475D01*
X110753475Y-125006632D01*
X110915990Y-124763411D01*
X111027932Y-124493158D01*
X111085000Y-124206260D01*
X111085000Y-123913740D01*
X111027932Y-123626842D01*
X110915990Y-123356589D01*
X110753475Y-123113368D01*
X110546632Y-122906525D01*
X110364466Y-122784805D01*
X110481355Y-122715178D01*
X110697588Y-122520269D01*
X110871641Y-122286920D01*
X110996825Y-122024099D01*
X111041476Y-121876890D01*
X110920155Y-121647000D01*
X109727000Y-121647000D01*
X109727000Y-121667000D01*
X109473000Y-121667000D01*
X109473000Y-121647000D01*
X109453000Y-121647000D01*
X109453000Y-121393000D01*
X109473000Y-121393000D01*
X109473000Y-121373000D01*
X109727000Y-121373000D01*
X109727000Y-121393000D01*
X110920155Y-121393000D01*
X111041476Y-121163110D01*
X110996825Y-121015901D01*
X110871641Y-120753080D01*
X110697588Y-120519731D01*
X110481355Y-120324822D01*
X110364466Y-120255195D01*
X110546632Y-120133475D01*
X110753475Y-119926632D01*
X110915990Y-119683411D01*
X111027932Y-119413158D01*
X111085000Y-119126260D01*
X111085000Y-118833740D01*
X111027932Y-118546842D01*
X110915990Y-118276589D01*
X110753475Y-118033368D01*
X110546632Y-117826525D01*
X110364466Y-117704805D01*
X110481355Y-117635178D01*
X110697588Y-117440269D01*
X110871641Y-117206920D01*
X110996825Y-116944099D01*
X111041476Y-116796890D01*
X110920155Y-116567000D01*
X109727000Y-116567000D01*
X109727000Y-116587000D01*
X109473000Y-116587000D01*
X109473000Y-116567000D01*
X109453000Y-116567000D01*
X109453000Y-116313000D01*
X109473000Y-116313000D01*
X109473000Y-116293000D01*
X109727000Y-116293000D01*
X109727000Y-116313000D01*
X110920155Y-116313000D01*
X111041476Y-116083110D01*
X110996825Y-115935901D01*
X110871641Y-115673080D01*
X110697588Y-115439731D01*
X110481355Y-115244822D01*
X110364466Y-115175195D01*
X110546632Y-115053475D01*
X110753475Y-114846632D01*
X110915990Y-114603411D01*
X111027932Y-114333158D01*
X111085000Y-114046260D01*
X111085000Y-113753740D01*
X111027932Y-113466842D01*
X110915990Y-113196589D01*
X110753475Y-112953368D01*
X110546632Y-112746525D01*
X110372240Y-112630000D01*
X110546632Y-112513475D01*
X110753475Y-112306632D01*
X110915990Y-112063411D01*
X111027932Y-111793158D01*
X111085000Y-111506260D01*
X111085000Y-111213740D01*
X111027932Y-110926842D01*
X110915990Y-110656589D01*
X110753475Y-110413368D01*
X110546632Y-110206525D01*
X110372240Y-110090000D01*
X110546632Y-109973475D01*
X110753475Y-109766632D01*
X110915990Y-109523411D01*
X111027932Y-109253158D01*
X111085000Y-108966260D01*
X111085000Y-108673740D01*
X111027932Y-108386842D01*
X110915990Y-108116589D01*
X110753475Y-107873368D01*
X110546632Y-107666525D01*
X110372240Y-107550000D01*
X110546632Y-107433475D01*
X110753475Y-107226632D01*
X110915990Y-106983411D01*
X111027932Y-106713158D01*
X111085000Y-106426260D01*
X111085000Y-106133740D01*
X111027932Y-105846842D01*
X110915990Y-105576589D01*
X110753475Y-105333368D01*
X110546632Y-105126525D01*
X110364466Y-105004805D01*
X110481355Y-104935178D01*
X110697588Y-104740269D01*
X110871641Y-104506920D01*
X110996825Y-104244099D01*
X111041476Y-104096890D01*
X110920155Y-103867000D01*
X109727000Y-103867000D01*
X109727000Y-103887000D01*
X109473000Y-103887000D01*
X109473000Y-103867000D01*
X109453000Y-103867000D01*
X109453000Y-103613000D01*
X109473000Y-103613000D01*
X109473000Y-103593000D01*
X109727000Y-103593000D01*
X109727000Y-103613000D01*
X110920155Y-103613000D01*
X111041476Y-103383110D01*
X110996825Y-103235901D01*
X110871641Y-102973080D01*
X110697588Y-102739731D01*
X110481355Y-102544822D01*
X110364466Y-102475195D01*
X110546632Y-102353475D01*
X110753475Y-102146632D01*
X110915990Y-101903411D01*
X111027932Y-101633158D01*
X111085000Y-101346260D01*
X111085000Y-101053740D01*
X111027932Y-100766842D01*
X110915990Y-100496589D01*
X110753475Y-100253368D01*
X110546632Y-100046525D01*
X110372240Y-99930000D01*
X110546632Y-99813475D01*
X110753475Y-99606632D01*
X110915990Y-99363411D01*
X111027932Y-99093158D01*
X111085000Y-98806260D01*
X111085000Y-98513740D01*
X111027932Y-98226842D01*
X110915990Y-97956589D01*
X110753475Y-97713368D01*
X110546632Y-97506525D01*
X110364466Y-97384805D01*
X110481355Y-97315178D01*
X110697588Y-97120269D01*
X110871641Y-96886920D01*
X110996825Y-96624099D01*
X111041476Y-96476890D01*
X110920155Y-96247000D01*
X109727000Y-96247000D01*
X109727000Y-96267000D01*
X109473000Y-96267000D01*
X109473000Y-96247000D01*
X109453000Y-96247000D01*
X109453000Y-95993000D01*
X109473000Y-95993000D01*
X109473000Y-95973000D01*
X109727000Y-95973000D01*
X109727000Y-95993000D01*
X110920155Y-95993000D01*
X111041476Y-95763110D01*
X110996825Y-95615901D01*
X110871641Y-95353080D01*
X110697588Y-95119731D01*
X110481355Y-94924822D01*
X110364466Y-94855195D01*
X110546632Y-94733475D01*
X110753475Y-94526632D01*
X110915990Y-94283411D01*
X111027932Y-94013158D01*
X111085000Y-93726260D01*
X111085000Y-93433740D01*
X111027932Y-93146842D01*
X110915990Y-92876589D01*
X110753475Y-92633368D01*
X110546632Y-92426525D01*
X110372240Y-92310000D01*
X110546632Y-92193475D01*
X110753475Y-91986632D01*
X110915990Y-91743411D01*
X111027932Y-91473158D01*
X111085000Y-91186260D01*
X111085000Y-90893740D01*
X111027932Y-90606842D01*
X110915990Y-90336589D01*
X110753475Y-90093368D01*
X110546632Y-89886525D01*
X110372240Y-89770000D01*
X110546632Y-89653475D01*
X110753475Y-89446632D01*
X110915990Y-89203411D01*
X111027932Y-88933158D01*
X111085000Y-88646260D01*
X111085000Y-88353740D01*
X111027932Y-88066842D01*
X110915990Y-87796589D01*
X110753475Y-87553368D01*
X110546632Y-87346525D01*
X110364466Y-87224805D01*
X110481355Y-87155178D01*
X110697588Y-86960269D01*
X110871641Y-86726920D01*
X110996825Y-86464099D01*
X111041476Y-86316890D01*
X110920155Y-86087000D01*
X109727000Y-86087000D01*
X109727000Y-86107000D01*
X109473000Y-86107000D01*
X109473000Y-86087000D01*
X109453000Y-86087000D01*
X109453000Y-85833000D01*
X109473000Y-85833000D01*
X109473000Y-85813000D01*
X109727000Y-85813000D01*
X109727000Y-85833000D01*
X110920155Y-85833000D01*
X111041476Y-85603110D01*
X110996825Y-85455901D01*
X110871641Y-85193080D01*
X110697588Y-84959731D01*
X110481355Y-84764822D01*
X110364466Y-84695195D01*
X110546632Y-84573475D01*
X110753475Y-84366632D01*
X110915990Y-84123411D01*
X111027932Y-83853158D01*
X111085000Y-83566260D01*
X111085000Y-83273740D01*
X111027932Y-82986842D01*
X110915990Y-82716589D01*
X110753475Y-82473368D01*
X110735000Y-82454893D01*
X110735000Y-81845107D01*
X110753475Y-81826632D01*
X110915990Y-81583411D01*
X111027932Y-81313158D01*
X111085000Y-81026260D01*
X111085000Y-80733740D01*
X111027932Y-80446842D01*
X110915990Y-80176589D01*
X110753475Y-79933368D01*
X110735000Y-79914893D01*
X110735000Y-78755741D01*
X110740490Y-78699999D01*
X110735000Y-78644257D01*
X110735000Y-78644248D01*
X110718577Y-78477501D01*
X110653676Y-78263553D01*
X110548284Y-78066377D01*
X110406449Y-77893551D01*
X110363140Y-77858008D01*
X109241996Y-76736865D01*
X109206449Y-76693551D01*
X109033623Y-76551716D01*
X108836447Y-76446324D01*
X108622499Y-76381423D01*
X108455752Y-76365000D01*
X108455751Y-76365000D01*
X108400000Y-76359509D01*
X108344249Y-76365000D01*
X104755751Y-76365000D01*
X104700000Y-76359509D01*
X104644248Y-76365000D01*
X104477501Y-76381423D01*
X104263553Y-76446324D01*
X104066377Y-76551716D01*
X103893551Y-76693551D01*
X103858008Y-76736860D01*
X102536865Y-78058004D01*
X102493551Y-78093551D01*
X102351716Y-78266377D01*
X102254486Y-78448284D01*
X102246324Y-78463554D01*
X102181423Y-78677502D01*
X102159509Y-78900000D01*
X102165000Y-78955751D01*
X102165001Y-96689867D01*
X100089869Y-98765000D01*
X99789117Y-98765000D01*
X99453919Y-98831675D01*
X99138169Y-98962463D01*
X98854002Y-99152337D01*
X98612337Y-99394002D01*
X98422463Y-99678169D01*
X98291675Y-99993919D01*
X98225000Y-100329117D01*
X98225000Y-100629868D01*
X97139869Y-101715000D01*
X91526746Y-101715000D01*
X91538072Y-101600000D01*
X91538072Y-99400000D01*
X91525812Y-99275518D01*
X91489502Y-99155820D01*
X91430537Y-99045506D01*
X91351185Y-98948815D01*
X91254494Y-98869463D01*
X91144180Y-98810498D01*
X91024482Y-98774188D01*
X90900000Y-98761928D01*
X89667060Y-98761928D01*
X87441996Y-96536865D01*
X87406449Y-96493551D01*
X87233623Y-96351716D01*
X87036447Y-96246324D01*
X86822499Y-96181423D01*
X86655752Y-96165000D01*
X86655751Y-96165000D01*
X86600000Y-96159509D01*
X86544249Y-96165000D01*
X79040957Y-96165000D01*
X79030537Y-96145506D01*
X78951185Y-96048815D01*
X78854494Y-95969463D01*
X78744180Y-95910498D01*
X78624482Y-95874188D01*
X78500000Y-95861928D01*
X77867061Y-95861928D01*
X74735000Y-92729869D01*
X74735000Y-88556890D01*
X76358524Y-88556890D01*
X76403175Y-88704099D01*
X76528359Y-88966920D01*
X76702412Y-89200269D01*
X76918645Y-89395178D01*
X77168748Y-89544157D01*
X77443109Y-89641481D01*
X77673000Y-89520814D01*
X77673000Y-88327000D01*
X77927000Y-88327000D01*
X77927000Y-89520814D01*
X78156891Y-89641481D01*
X78431252Y-89544157D01*
X78681355Y-89395178D01*
X78897588Y-89200269D01*
X79071641Y-88966920D01*
X79196825Y-88704099D01*
X79241476Y-88556890D01*
X79120155Y-88327000D01*
X77927000Y-88327000D01*
X77673000Y-88327000D01*
X76479845Y-88327000D01*
X76358524Y-88556890D01*
X74735000Y-88556890D01*
X74735000Y-80770131D01*
X76330133Y-79175000D01*
X76834893Y-79175000D01*
X76853368Y-79193475D01*
X77027760Y-79310000D01*
X76853368Y-79426525D01*
X76646525Y-79633368D01*
X76484010Y-79876589D01*
X76372068Y-80146842D01*
X76315000Y-80433740D01*
X76315000Y-80726260D01*
X76372068Y-81013158D01*
X76484010Y-81283411D01*
X76646525Y-81526632D01*
X76853368Y-81733475D01*
X77027760Y-81850000D01*
X76853368Y-81966525D01*
X76646525Y-82173368D01*
X76484010Y-82416589D01*
X76372068Y-82686842D01*
X76315000Y-82973740D01*
X76315000Y-83266260D01*
X76372068Y-83553158D01*
X76484010Y-83823411D01*
X76646525Y-84066632D01*
X76853368Y-84273475D01*
X77027760Y-84390000D01*
X76853368Y-84506525D01*
X76646525Y-84713368D01*
X76484010Y-84956589D01*
X76372068Y-85226842D01*
X76315000Y-85513740D01*
X76315000Y-85806260D01*
X76372068Y-86093158D01*
X76484010Y-86363411D01*
X76646525Y-86606632D01*
X76853368Y-86813475D01*
X77035534Y-86935195D01*
X76918645Y-87004822D01*
X76702412Y-87199731D01*
X76528359Y-87433080D01*
X76403175Y-87695901D01*
X76358524Y-87843110D01*
X76479845Y-88073000D01*
X77673000Y-88073000D01*
X77673000Y-88053000D01*
X77927000Y-88053000D01*
X77927000Y-88073000D01*
X79120155Y-88073000D01*
X79241476Y-87843110D01*
X79196825Y-87695901D01*
X79071641Y-87433080D01*
X78897588Y-87199731D01*
X78681355Y-87004822D01*
X78564466Y-86935195D01*
X78746632Y-86813475D01*
X78953475Y-86606632D01*
X79115990Y-86363411D01*
X79227932Y-86093158D01*
X79285000Y-85806260D01*
X79285000Y-85513740D01*
X79227932Y-85226842D01*
X79115990Y-84956589D01*
X78953475Y-84713368D01*
X78746632Y-84506525D01*
X78572240Y-84390000D01*
X78746632Y-84273475D01*
X78953475Y-84066632D01*
X79115990Y-83823411D01*
X79227932Y-83553158D01*
X79285000Y-83266260D01*
X79285000Y-82973740D01*
X79227932Y-82686842D01*
X79115990Y-82416589D01*
X78953475Y-82173368D01*
X78746632Y-81966525D01*
X78572240Y-81850000D01*
X78746632Y-81733475D01*
X78953475Y-81526632D01*
X79115990Y-81283411D01*
X79227932Y-81013158D01*
X79285000Y-80726260D01*
X79285000Y-80433740D01*
X79227932Y-80146842D01*
X79115990Y-79876589D01*
X78953475Y-79633368D01*
X78746632Y-79426525D01*
X78572240Y-79310000D01*
X78746632Y-79193475D01*
X78953475Y-78986632D01*
X79115990Y-78743411D01*
X79227932Y-78473158D01*
X79285000Y-78186260D01*
X79285000Y-77893740D01*
X79227932Y-77606842D01*
X79115990Y-77336589D01*
X78991316Y-77150000D01*
X99011928Y-77150000D01*
X99011928Y-78850000D01*
X99024188Y-78974482D01*
X99060498Y-79094180D01*
X99119463Y-79204494D01*
X99198815Y-79301185D01*
X99295506Y-79380537D01*
X99405820Y-79439502D01*
X99478380Y-79461513D01*
X99346525Y-79593368D01*
X99184010Y-79836589D01*
X99072068Y-80106842D01*
X99015000Y-80393740D01*
X99015000Y-80686260D01*
X99072068Y-80973158D01*
X99184010Y-81243411D01*
X99346525Y-81486632D01*
X99553368Y-81693475D01*
X99727760Y-81810000D01*
X99553368Y-81926525D01*
X99346525Y-82133368D01*
X99184010Y-82376589D01*
X99072068Y-82646842D01*
X99015000Y-82933740D01*
X99015000Y-83226260D01*
X99072068Y-83513158D01*
X99184010Y-83783411D01*
X99346525Y-84026632D01*
X99553368Y-84233475D01*
X99727760Y-84350000D01*
X99553368Y-84466525D01*
X99346525Y-84673368D01*
X99184010Y-84916589D01*
X99072068Y-85186842D01*
X99015000Y-85473740D01*
X99015000Y-85766260D01*
X99072068Y-86053158D01*
X99184010Y-86323411D01*
X99346525Y-86566632D01*
X99553368Y-86773475D01*
X99727760Y-86890000D01*
X99553368Y-87006525D01*
X99346525Y-87213368D01*
X99184010Y-87456589D01*
X99072068Y-87726842D01*
X99015000Y-88013740D01*
X99015000Y-88306260D01*
X99072068Y-88593158D01*
X99184010Y-88863411D01*
X99346525Y-89106632D01*
X99553368Y-89313475D01*
X99727760Y-89430000D01*
X99553368Y-89546525D01*
X99346525Y-89753368D01*
X99184010Y-89996589D01*
X99072068Y-90266842D01*
X99015000Y-90553740D01*
X99015000Y-90846260D01*
X99072068Y-91133158D01*
X99184010Y-91403411D01*
X99346525Y-91646632D01*
X99553368Y-91853475D01*
X99796589Y-92015990D01*
X100066842Y-92127932D01*
X100353740Y-92185000D01*
X100646260Y-92185000D01*
X100933158Y-92127932D01*
X101203411Y-92015990D01*
X101446632Y-91853475D01*
X101653475Y-91646632D01*
X101815990Y-91403411D01*
X101927932Y-91133158D01*
X101985000Y-90846260D01*
X101985000Y-90553740D01*
X101927932Y-90266842D01*
X101815990Y-89996589D01*
X101653475Y-89753368D01*
X101446632Y-89546525D01*
X101272240Y-89430000D01*
X101446632Y-89313475D01*
X101653475Y-89106632D01*
X101815990Y-88863411D01*
X101927932Y-88593158D01*
X101985000Y-88306260D01*
X101985000Y-88013740D01*
X101927932Y-87726842D01*
X101815990Y-87456589D01*
X101653475Y-87213368D01*
X101446632Y-87006525D01*
X101272240Y-86890000D01*
X101446632Y-86773475D01*
X101653475Y-86566632D01*
X101815990Y-86323411D01*
X101927932Y-86053158D01*
X101985000Y-85766260D01*
X101985000Y-85473740D01*
X101927932Y-85186842D01*
X101815990Y-84916589D01*
X101653475Y-84673368D01*
X101446632Y-84466525D01*
X101272240Y-84350000D01*
X101446632Y-84233475D01*
X101653475Y-84026632D01*
X101815990Y-83783411D01*
X101927932Y-83513158D01*
X101985000Y-83226260D01*
X101985000Y-82933740D01*
X101927932Y-82646842D01*
X101815990Y-82376589D01*
X101653475Y-82133368D01*
X101446632Y-81926525D01*
X101272240Y-81810000D01*
X101446632Y-81693475D01*
X101653475Y-81486632D01*
X101815990Y-81243411D01*
X101927932Y-80973158D01*
X101985000Y-80686260D01*
X101985000Y-80393740D01*
X101927932Y-80106842D01*
X101815990Y-79836589D01*
X101653475Y-79593368D01*
X101521620Y-79461513D01*
X101594180Y-79439502D01*
X101704494Y-79380537D01*
X101801185Y-79301185D01*
X101880537Y-79204494D01*
X101939502Y-79094180D01*
X101975812Y-78974482D01*
X101988072Y-78850000D01*
X101988072Y-77150000D01*
X101975812Y-77025518D01*
X101939502Y-76905820D01*
X101880537Y-76795506D01*
X101801185Y-76698815D01*
X101704494Y-76619463D01*
X101594180Y-76560498D01*
X101474482Y-76524188D01*
X101350000Y-76511928D01*
X99650000Y-76511928D01*
X99525518Y-76524188D01*
X99405820Y-76560498D01*
X99295506Y-76619463D01*
X99198815Y-76698815D01*
X99119463Y-76795506D01*
X99060498Y-76905820D01*
X99024188Y-77025518D01*
X99011928Y-77150000D01*
X78991316Y-77150000D01*
X78953475Y-77093368D01*
X78821620Y-76961513D01*
X78894180Y-76939502D01*
X79004494Y-76880537D01*
X79101185Y-76801185D01*
X79180537Y-76704494D01*
X79239502Y-76594180D01*
X79275812Y-76474482D01*
X79288072Y-76350000D01*
X79288072Y-74650000D01*
X79275812Y-74525518D01*
X79239502Y-74405820D01*
X79180537Y-74295506D01*
X79101185Y-74198815D01*
X79004494Y-74119463D01*
X78894180Y-74060498D01*
X78774482Y-74024188D01*
X78650000Y-74011928D01*
X76950000Y-74011928D01*
X76825518Y-74024188D01*
X76705820Y-74060498D01*
X76595506Y-74119463D01*
X76498815Y-74198815D01*
X76419463Y-74295506D01*
X76360498Y-74405820D01*
X76324188Y-74525518D01*
X76311928Y-74650000D01*
X76311928Y-76350000D01*
X76324188Y-76474482D01*
X76360498Y-76594180D01*
X76419463Y-76704494D01*
X76498815Y-76801185D01*
X76595506Y-76880537D01*
X76641272Y-76905000D01*
X75915752Y-76905000D01*
X75860000Y-76899509D01*
X75804248Y-76905000D01*
X75637501Y-76921423D01*
X75423553Y-76986324D01*
X75226377Y-77091716D01*
X75096856Y-77198011D01*
X75096854Y-77198013D01*
X75053551Y-77233551D01*
X75018013Y-77276854D01*
X72836864Y-79458004D01*
X72793551Y-79493551D01*
X72651716Y-79666377D01*
X72546325Y-79863553D01*
X72546324Y-79863554D01*
X72481423Y-80077502D01*
X72459509Y-80300000D01*
X70660000Y-80300000D01*
X70660000Y-70804155D01*
X71021161Y-71344670D01*
X71555330Y-71878839D01*
X72183446Y-72298533D01*
X72881372Y-72587623D01*
X73622285Y-72735000D01*
X74377715Y-72735000D01*
X75118628Y-72587623D01*
X75816554Y-72298533D01*
X76444670Y-71878839D01*
X76978839Y-71344670D01*
X77398533Y-70716554D01*
X77687623Y-70018628D01*
X77835000Y-69277715D01*
X77835000Y-68522285D01*
X77687623Y-67781372D01*
X77398533Y-67083446D01*
X76978839Y-66455330D01*
X76444670Y-65921161D01*
X76053815Y-65660000D01*
X106946185Y-65660000D01*
X106555330Y-65921161D01*
M02*
