%TF.GenerationSoftware,KiCad,Pcbnew,5.1.6+dfsg1-1*%
%TF.CreationDate,2021-04-08T11:29:05+02:00*%
%TF.ProjectId,gsm-rtc-board,67736d2d-7274-4632-9d62-6f6172642e6b,rev?*%
%TF.SameCoordinates,Original*%
%TF.FileFunction,Soldermask,Top*%
%TF.FilePolarity,Negative*%
%FSLAX46Y46*%
G04 Gerber Fmt 4.6, Leading zero omitted, Abs format (unit mm)*
G04 Created by KiCad (PCBNEW 5.1.6+dfsg1-1) date 2021-04-08 11:29:05*
%MOMM*%
%LPD*%
G01*
G04 APERTURE LIST*
%ADD10O,1.800000X1.800000*%
%ADD11R,1.800000X1.800000*%
%ADD12C,6.500000*%
%ADD13C,2.700000*%
%ADD14R,2.700000X2.700000*%
%ADD15O,2.300000X2.300000*%
%ADD16R,2.300000X2.300000*%
%ADD17C,1.700000*%
%ADD18R,1.700000X1.700000*%
G04 APERTURE END LIST*
D10*
%TO.C,J4*%
X77760000Y-108400000D03*
X80300000Y-108400000D03*
X82840000Y-108400000D03*
D11*
X85380000Y-108400000D03*
%TD*%
D12*
%TO.C,REF\u002A\u002A*%
X74000000Y-146100000D03*
%TD*%
%TO.C,REF\u002A\u002A*%
X109000000Y-146100000D03*
%TD*%
%TO.C,REF\u002A\u002A*%
X109000000Y-68900000D03*
%TD*%
%TO.C,REF\u002A\u002A*%
X74000000Y-68900000D03*
%TD*%
D10*
%TO.C,REF\u002A\u002A*%
X99800000Y-90740000D03*
X99800000Y-88200000D03*
X99800000Y-85660000D03*
X99800000Y-83120000D03*
X99800000Y-80580000D03*
D11*
X99800000Y-78040000D03*
%TD*%
D10*
%TO.C,J2*%
X77800000Y-88200000D03*
X77800000Y-85660000D03*
X77800000Y-83120000D03*
X77800000Y-80580000D03*
X77800000Y-78040000D03*
D11*
X77800000Y-75500000D03*
%TD*%
D10*
%TO.C,J3*%
X109600000Y-129140000D03*
X107060000Y-129140000D03*
X109600000Y-126600000D03*
X107060000Y-126600000D03*
X109600000Y-124060000D03*
X107060000Y-124060000D03*
X109600000Y-121520000D03*
X107060000Y-121520000D03*
X109600000Y-118980000D03*
X107060000Y-118980000D03*
X109600000Y-116440000D03*
X107060000Y-116440000D03*
X109600000Y-113900000D03*
X107060000Y-113900000D03*
X109600000Y-111360000D03*
X107060000Y-111360000D03*
X109600000Y-108820000D03*
X107060000Y-108820000D03*
X109600000Y-106280000D03*
X107060000Y-106280000D03*
X109600000Y-103740000D03*
X107060000Y-103740000D03*
X109600000Y-101200000D03*
X107060000Y-101200000D03*
X109600000Y-98660000D03*
X107060000Y-98660000D03*
X109600000Y-96120000D03*
X107060000Y-96120000D03*
X109600000Y-93580000D03*
X107060000Y-93580000D03*
X109600000Y-91040000D03*
X107060000Y-91040000D03*
X109600000Y-88500000D03*
X107060000Y-88500000D03*
X109600000Y-85960000D03*
X107060000Y-85960000D03*
X109600000Y-83420000D03*
X107060000Y-83420000D03*
X109600000Y-80880000D03*
D11*
X107060000Y-80880000D03*
%TD*%
D13*
%TO.C,J1*%
X101380000Y-142400000D03*
D14*
X96300000Y-142400000D03*
%TD*%
D15*
%TO.C,D1*%
X99960000Y-100500000D03*
D16*
X89800000Y-100500000D03*
%TD*%
D17*
%TO.C,C1*%
X77700000Y-99800000D03*
D18*
X77700000Y-97300000D03*
%TD*%
M02*
